<?xml version="1.0" encoding="utf-8"?>
<!-- Generator: Adobe Illustrator 25.2.1, SVG Export Plug-In . SVG Version: 6.00 Build 0)  -->
<svg version="1.1" id="Layer_1" xmlns="http://www.w3.org/2000/svg" xmlns:xlink="http://www.w3.org/1999/xlink" x="0px" y="0px"
	 viewBox="0 0 500 472" style="enable-background:new 0 0 500 472;" xml:space="preserve">
<style type="text/css">
	.st0{opacity:0.1;fill:#32324C;}
	.st1{fill:#F5F5F5;}
	.st2{fill:#E0E0E0;}
	.st3{fill:#263238;}
	.st4{fill:#EEAAAA;}
	.st5{fill:#E7515B;}
	.st6{opacity:0.2;}
	.st7{fill:#455B64;}
	.st8{fill:#EBEBEB;}
	.st9{fill:#FAFBFB;}
	.st10{fill:#E5524C;}
	.st11{fill:#122A4D;}
	.st12{fill:#5C3833;}
	.st13{fill:#E8A8A6;}
	.st14{fill:#2A4061;}
	.st15{fill:#FCEEF4;}
	.st16{fill:#193659;}
	.st17{fill:#DD888B;}
	.st18{opacity:0.5;fill:#E8A8A6;}
	.st19{fill:#EFC6AD;}
	.st20{fill:#2F2A32;}
	.st21{fill:#894230;}
	.st22{fill:#E2A680;}
	.st23{fill:#B65740;}
	.st24{fill:#C88160;}
	.st25{fill:#E0E8EC;}
	.st26{fill:#D87963;}
	.st27{fill:#45363F;}
	.st28{fill:#FFFFFF;}
	.st29{fill:#1C1A1E;}
	.st30{fill:none;stroke:#E6534E;stroke-width:0.5;stroke-linecap:round;stroke-miterlimit:10;}
	.st31{fill:none;stroke:#000000;stroke-width:0.5;stroke-linecap:round;stroke-miterlimit:10;}
</style>
<g>
	<path class="st0" d="M471.7,377.3c-4.3,65-84.1,91.3-123.5,40.3c-8-10.4-10-35.5-7.9-48.8c8.4-53.4,35.1-58.9,15.2-92.7
		c-19.9-33.8-21.8-95.1,33.2-94.6c55,0.5,19.5,90.7,57.4,116C463.4,309,474,343.4,471.7,377.3z"/>
	<path class="st0" d="M450.9,282.8c-3.3,1.2-7,0.1-9.2-2.7c-3.6-4.5-9.3-13.4-7.6-23.9c2.4-14.9,20.9-3,22.3,13.8
		C457.1,278.4,454.1,281.6,450.9,282.8z"/>
	<path class="st0" d="M431.3,243.5c-1.7-0.6-2.9-2.3-3-4.2c-0.1-3,0.4-8.6,4.3-12.3c5.6-5.4,9.5,5.6,4.9,13
		C435.2,243.7,432.9,244.1,431.3,243.5z"/>
	<path class="st0" d="M340.7,316.5c-1.8-0.2-3.3-1.7-3.6-3.5c-0.6-2.9-1.2-8.5,2.1-12.9c4.6-6.3,10.4,3.7,7.1,11.9
		C344.6,316,342.4,316.8,340.7,316.5z"/>
</g>
<g>
	<g>
		<g>
			<path class="st1" d="M103.2,248c0,0,4.6,3.6,4.6,8.3c0,4.7,0,24.2,0,24.2H73.4v-25.3c0,0,0.5-6.2,4.5-7.2H103.2z"/>
		</g>
		<g>
			<path class="st2" d="M105.2,279.2c0.2-2.3,0.6-5.1,0.5-7.4c-0.1-2.4-1.7-4.8-4-5.5c-1.8-0.5-3.7,0.2-5.6,0.5
				c-3,0.5-6.2,0-8.9-1.4c-2.3-1.2-4.4-3-7-3.3c-1.7-0.2-3.6,0.7-4.1,2.3c-0.2,0.8-0.1,1.6,0,2.5c0.5,3.7-0.2,8.4-0.2,11.9
				C85.6,279.3,95.5,279,105.2,279.2"/>
		</g>
		<g>
			<polyline class="st2" points="109.9,283.9 104.8,280.5 73.4,280.5 68.4,283.9 109.9,283.9 			"/>
		</g>
		<g>
			<path class="st1" d="M110.9,205.2v36H68.4v42.7h41.6v10.2H38.2v-89c0-4.2,3.3-7.7,7.5-7.7h57.8
				C107.6,197.5,110.9,201,110.9,205.2z"/>
		</g>
		<g>
			<g>
				<path class="st2" d="M38.2,206c0,0.2,16.3,0.3,36.4,0.3c20.1,0,36.4-0.1,36.4-0.3c0-0.2-16.3-0.3-36.4-0.3
					C54.5,205.7,38.2,205.8,38.2,206z"/>
			</g>
		</g>
		<g>
			<g>
				<path class="st2" d="M58.4,294.2c0.2,0,0.3-21.6,0.3-48.2c0-26.6-0.1-48.2-0.3-48.2s-0.3,21.6-0.3,48.2
					C58.1,272.6,58.2,294.2,58.4,294.2z"/>
			</g>
		</g>
		<g>
			<path class="st2" d="M114.8,268.8l0.4-10.9c0.1-3.1-0.6-6.3-2.3-8.9c-1.4-2.1-3.4-3.9-6.3-3.9c-7.1,0-28.7,0-28.7,0v2.9h28.2
				c0,0,5.1,0.5,5.7,7.7c0.7,7.1,0,13.2,0,13.2H114.8z"/>
		</g>
	</g>
	<g>
		<g>
			
				<rect x="76.1" y="433.9" transform="matrix(-1 -4.292223e-11 4.292223e-11 -1 164.7837 891.0084)" class="st2" width="12.6" height="23.3"/>
		</g>
		<g>
			
				<rect x="20.5" y="433.9" transform="matrix(-1 -4.422297e-11 4.422297e-11 -1 53.5453 891.0084)" class="st2" width="12.6" height="23.3"/>
		</g>
		<g>
			
				<rect x="12.1" y="294.2" transform="matrix(-1 -4.622181e-11 4.622181e-11 -1 128.4383 728.0139)" class="st2" width="104.2" height="139.7"/>
		</g>
		<g>
			
				<rect x="33.9" y="294.2" transform="matrix(-1 -4.619872e-11 4.619872e-11 -1 169.3365 728.0139)" class="st1" width="101.5" height="139.7"/>
		</g>
		<g>
			
				<rect x="113.9" y="433.9" transform="matrix(-1 -4.624624e-11 4.624624e-11 -1 240.3425 891.0084)" class="st1" width="12.6" height="23.3"/>
		</g>
		<g>
			
				<rect x="41.5" y="433.9" transform="matrix(-1 -4.624624e-11 4.624624e-11 -1 95.5975 891.0084)" class="st1" width="12.6" height="23.3"/>
		</g>
		<g>
			<g>
				<g>
					<g>
						<path class="st2" d="M42,417.9c0,0,0-0.2,0-0.6c0-0.4,0-1,0-1.8c0-1.6,0-3.9,0-6.8c0-5.9,0-14.5,0.1-25.2l-0.1,0.1
							c21.8,0,52.8,0,87.1,0.1h0l-0.2-0.2c0,12.1,0,23.7,0,34.5l0.2-0.2c-25.2,0-47,0.1-62.4,0.1c-7.7,0-13.9,0-18.2,0.1
							c-2.1,0-3.7,0-4.9,0c-0.5,0-1,0-1.3,0C42.1,417.9,42,417.9,42,417.9s0.1,0,0.4,0c0.3,0,0.7,0,1.2,0c1.1,0,2.7,0,4.8,0
							c4.2,0,10.4,0,18.1,0.1c15.5,0,37.3,0.1,62.6,0.1l0.2,0v-0.2c0-10.8,0-22.4,0-34.5l0-0.2h-0.2h0c-34.3,0-65.3,0-87.1,0.1
							l-0.1,0l0,0.1c0,10.7,0.1,19.4,0.1,25.3c0,3,0,5.2,0,6.8c0,0.8,0,1.4,0,1.8C42,417.7,42,417.9,42,417.9z"/>
					</g>
				</g>
			</g>
			<g>
				<g>
					<g>
						<path class="st2" d="M82.9,400.7c0,0,0-0.2,0.2-0.6c0.1-0.4,0.4-1,1-1.4c0.6-0.4,1.5-0.7,2.3-0.3c0.9,0.3,1.6,1.3,1.6,2.4
							c0,1.1-0.7,2-1.6,2.4c-0.9,0.3-1.8,0.1-2.3-0.3c-0.6-0.4-0.9-1-1-1.4C83,400.9,83,400.7,82.9,400.7c0,0-0.1,0.2,0,0.7
							c0.1,0.4,0.3,1.1,0.9,1.6c0.6,0.5,1.6,0.8,2.6,0.5c1-0.3,1.9-1.4,1.9-2.7c0-1.3-0.9-2.4-1.9-2.7c-1-0.4-2-0.1-2.6,0.5
							c-0.6,0.5-0.9,1.2-0.9,1.6C82.8,400.4,82.9,400.7,82.9,400.7z"/>
					</g>
				</g>
			</g>
		</g>
		<g>
			<g>
				<g>
					<g>
						<path class="st2" d="M42,376.6c0,0,0-0.2,0-0.6c0-0.4,0-1,0-1.8c0-1.6,0-3.9,0-6.8c0-5.9,0-14.5,0.1-25.2l-0.1,0.1
							c21.8,0,52.8,0,87.1,0.1h0l-0.2-0.2c0,12.1,0,23.7,0,34.5l0.2-0.2c-25.2,0-47,0.1-62.4,0.1c-7.7,0-13.9,0-18.2,0.1
							c-2.1,0-3.7,0-4.9,0c-0.5,0-1,0-1.3,0C42.1,376.6,42,376.6,42,376.6s0.1,0,0.4,0c0.3,0,0.7,0,1.2,0c1.1,0,2.7,0,4.8,0
							c4.2,0,10.4,0,18.1,0.1c15.5,0,37.3,0.1,62.6,0.1l0.2,0v-0.2c0-10.8,0-22.4,0-34.5l0-0.2h-0.2h0c-34.3,0-65.3,0-87.1,0.1
							l-0.1,0l0,0.1c0,10.7,0.1,19.4,0.1,25.3c0,3,0,5.2,0,6.8c0,0.8,0,1.4,0,1.8C42,376.4,42,376.6,42,376.6z"/>
					</g>
				</g>
			</g>
			<g>
				<g>
					<g>
						<path class="st2" d="M82.9,359.4c0,0,0-0.2,0.2-0.6c0.1-0.4,0.4-1,1-1.4c0.6-0.4,1.5-0.7,2.3-0.3c0.9,0.3,1.6,1.3,1.6,2.4
							c0,1.1-0.7,2-1.6,2.4c-0.9,0.3-1.8,0.1-2.3-0.3c-0.6-0.4-0.9-1-1-1.4C83,359.6,83,359.4,82.9,359.4c0,0-0.1,0.2,0,0.7
							c0.1,0.4,0.3,1.1,0.9,1.6c0.6,0.5,1.6,0.8,2.6,0.5c1-0.3,1.9-1.4,1.9-2.7c0-1.3-0.9-2.4-1.9-2.7c-1-0.4-2-0.1-2.6,0.5
							c-0.6,0.5-0.9,1.2-0.9,1.6C82.8,359.1,82.9,359.4,82.9,359.4z"/>
					</g>
				</g>
			</g>
		</g>
		<g>
			<g>
				<g>
					<g>
						<path class="st2" d="M42,335.9c0,0,0-0.2,0-0.6c0-0.4,0-1,0-1.8c0-1.6,0-3.9,0-6.8c0-5.9,0-14.5,0.1-25.2l-0.1,0.1
							c21.8,0,52.8,0,87.1,0.1h0l-0.2-0.2c0,12.1,0,23.7,0,34.5l0.2-0.2c-25.2,0-47,0.1-62.4,0.1c-7.7,0-13.9,0-18.2,0.1
							c-2.1,0-3.7,0-4.9,0c-0.5,0-1,0-1.3,0C42.1,335.9,42,335.9,42,335.9s0.1,0,0.4,0c0.3,0,0.7,0,1.2,0c1.1,0,2.7,0,4.8,0
							c4.2,0,10.4,0,18.1,0.1c15.5,0,37.3,0.1,62.6,0.1l0.2,0v-0.2c0-10.8,0-22.4,0-34.5l0-0.2h-0.2h0c-34.3,0-65.3,0-87.1,0.1
							l-0.1,0l0,0.1c0,10.7,0.1,19.4,0.1,25.3c0,3,0,5.2,0,6.8c0,0.8,0,1.4,0,1.8C42,335.7,42,335.9,42,335.9z"/>
					</g>
				</g>
			</g>
			<g>
				<g>
					<g>
						<path class="st2" d="M82.9,318.6c0,0,0-0.2,0.2-0.6c0.1-0.4,0.4-1,1-1.4c0.6-0.4,1.5-0.7,2.3-0.3c0.9,0.3,1.6,1.3,1.6,2.4
							c0,1.1-0.7,2-1.6,2.4c-0.9,0.3-1.8,0.1-2.3-0.3c-0.6-0.4-0.9-1-1-1.4C83,318.9,83,318.6,82.9,318.6c0,0-0.1,0.2,0,0.7
							c0.1,0.4,0.3,1.1,0.9,1.6c0.6,0.5,1.6,0.8,2.6,0.5c1-0.3,1.9-1.4,1.9-2.7c0-1.3-0.9-2.4-1.9-2.7c-1-0.4-2-0.1-2.6,0.5
							c-0.6,0.5-0.9,1.2-0.9,1.6C82.8,318.4,82.9,318.6,82.9,318.6z"/>
					</g>
				</g>
			</g>
		</g>
	</g>
	<g>
		<g>
			<path class="st2" d="M39.3,294.2c0,0.2,15.8,0.3,35.3,0.3c19.5,0,35.3-0.1,35.3-0.3c0-0.2-15.8-0.3-35.3-0.3
				C55.1,293.8,39.3,294,39.3,294.2z"/>
		</g>
	</g>
</g>
<g>
	<g>
		<g>
			<g>
				<g>
					<rect x="431.1" y="421.9" class="st3" width="46.1" height="6.5"/>
				</g>
			</g>
		</g>
		<g>
			<g>
				<g>
					<path class="st3" d="M477.2,428.4H431v-6.7h46.2V428.4z M431.2,428.3h45.9v-6.3h-45.9V428.3z"/>
				</g>
			</g>
		</g>
	</g>
	<g>
		<g>
			<g>
				<g>
					<polygon class="st3" points="435.3,426.2 442,459.8 466.5,459.8 472.9,428.4 					"/>
				</g>
			</g>
		</g>
	</g>
	<g>
		<g>
			<g>
				<g>
					<polygon class="st3" points="435.3,456.6 438.9,461.6 468.7,461.6 472.9,456.6 					"/>
				</g>
			</g>
		</g>
	</g>
	<g>
		<g>
			<g>
				<g>
					<g>
						<path class="st3" d="M452.4,427.2c-0.1,0-0.2-15.6-0.3-34.7c-0.1-19.2,0-34.8,0.1-34.8c0.1,0,0.2,15.6,0.3,34.8
							C452.5,411.6,452.5,427.2,452.4,427.2z"/>
					</g>
				</g>
			</g>
		</g>
	</g>
	<g>
		<g>
			<g>
				<g>
					<g>
						<path class="st3" d="M462.6,388.2c0,0,0,0.1-0.1,0.4c-0.1,0.3-0.2,0.6-0.4,1c-0.1,0.2-0.2,0.5-0.3,0.7
							c-0.1,0.3-0.2,0.6-0.3,0.9c-0.1,0.3-0.2,0.7-0.4,1c-0.1,0.4-0.2,0.8-0.3,1.2c-0.5,1.6-0.9,3.6-1.3,5.8
							c-0.3,2.2-0.6,4.7-0.7,7.2c-0.2,5.2,0.1,9.9,0.4,13.2c0.1,1.7,0.3,3.1,0.4,4c0,0.4,0.1,0.8,0.1,1.1c0,0.2,0,0.4,0,0.4
							c0,0,0-0.1-0.1-0.4c0-0.3-0.1-0.6-0.2-1.1c-0.1-0.9-0.3-2.3-0.5-4c-0.4-3.4-0.7-8.1-0.5-13.3c0.1-2.6,0.4-5.1,0.7-7.3
							c0.4-2.2,0.8-4.2,1.4-5.8c0.1-0.4,0.2-0.8,0.4-1.2c0.1-0.4,0.3-0.7,0.4-1c0.1-0.3,0.2-0.6,0.3-0.9c0.1-0.3,0.2-0.5,0.3-0.7
							c0.2-0.4,0.3-0.7,0.5-1C462.6,388.3,462.6,388.2,462.6,388.2z"/>
					</g>
				</g>
			</g>
		</g>
	</g>
	<g>
		<g>
			<g>
				<g>
					<g>
						<path class="st3" d="M461.5,375.7c0,0,0,0.2-0.1,0.5c-0.1,0.4-0.3,0.8-0.5,1.4c-0.1,0.3-0.2,0.7-0.4,1
							c-0.1,0.4-0.2,0.8-0.4,1.3c-0.3,0.9-0.6,1.9-0.9,3.1c-0.1,0.6-0.3,1.2-0.5,1.8c-0.1,0.6-0.3,1.3-0.4,2
							c-0.3,1.4-0.6,2.8-0.9,4.4c-0.5,3.1-1,6.5-1.3,10.1c-0.3,3.6-0.4,7.1-0.5,10.2c0,3.1,0,6,0.2,8.3c0,1.2,0.1,2.3,0.2,3.2
							c0.1,0.9,0.1,1.8,0.2,2.4c0,0.6,0.1,1.1,0.1,1.5c0,0.3,0,0.5,0,0.5c0,0,0-0.2-0.1-0.5c0-0.4-0.1-0.9-0.2-1.5
							c-0.1-0.7-0.2-1.5-0.2-2.4c-0.1-0.9-0.2-2-0.2-3.2c-0.2-2.4-0.2-5.2-0.2-8.3c0-3.1,0.1-6.6,0.4-10.2c0.3-3.6,0.8-7,1.3-10.1
							c0.3-1.5,0.5-3,0.9-4.4c0.2-0.7,0.3-1.3,0.5-2c0.2-0.6,0.3-1.2,0.5-1.8c0.3-1.2,0.6-2.2,0.9-3.1c0.1-0.4,0.3-0.9,0.4-1.3
							c0.1-0.4,0.3-0.7,0.4-1c0.2-0.6,0.4-1.1,0.5-1.4C461.4,375.8,461.4,375.6,461.5,375.7z"/>
					</g>
				</g>
			</g>
		</g>
	</g>
	<g>
		<g>
			<g>
				<g>
					<g>
						<path class="st3" d="M449.5,429.9c0,0,0-0.1,0-0.2c0-0.1,0-0.3,0-0.5c0-0.5-0.1-1.2-0.1-2.1c-0.1-1.8-0.3-4.4-0.5-7.6
							c-0.4-6.4-1-15.2-2-25c-0.5-4.9-1.2-9.5-1.8-13.7c-0.3-2.1-0.7-4.1-1-5.9c-0.3-1.9-0.7-3.6-1-5.1c-0.3-1.6-0.6-3-0.9-4.2
							c-0.3-1.2-0.5-2.3-0.7-3.2c-0.2-0.9-0.4-1.5-0.5-2c0-0.2-0.1-0.4-0.1-0.5c0-0.1,0-0.2,0-0.2c0,0,0,0.1,0.1,0.2
							c0,0.1,0.1,0.3,0.1,0.5c0.1,0.5,0.3,1.1,0.5,2c0.2,0.9,0.5,1.9,0.8,3.2c0.3,1.2,0.6,2.6,1,4.2c0.3,1.6,0.7,3.3,1,5.1
							c0.4,1.8,0.7,3.8,1,5.9c0.7,4.2,1.3,8.8,1.8,13.7c1,9.7,1.6,18.6,1.9,25c0.2,3.2,0.3,5.8,0.4,7.6c0,0.9,0.1,1.6,0.1,2.1
							c0,0.2,0,0.4,0,0.5C449.5,429.9,449.5,429.9,449.5,429.9z"/>
					</g>
				</g>
			</g>
		</g>
	</g>
	<g>
		<g>
			<g>
				<g>
					<path class="st4" d="M452,365.2c-0.2-2.2-2.4-3.9-4.5-3.9c-2.2,0-4.2,1.3-5.5,3.1c-1.3,1.8-2,3.9-2.6,6
						c-1.5,5.2-2.2,10.6-1.6,16c0.6,5.4,2.7,10.6,6.5,14.4c0.6,0.6,1.4,1.2,2.2,1c0.5-0.1,0.8-0.4,1.2-0.7
						c7.4-6.8,11.6-17.1,11.3-27.3c-0.1-2-0.3-4.2-1.4-5.9C456.4,366.3,453.9,364.5,452,365.2"/>
				</g>
			</g>
		</g>
	</g>
	<g>
		<g>
			<g>
				<g>
					<g>
						<path class="st5" d="M435.9,347.5c-1,1.9-2,3.8-3,5.6c-0.1,0.1-0.2,0.3-0.3,0.3c-0.2,0-0.3-0.1-0.4-0.3
							c-2.7-4.2-5.4-8.4-8-12.7l1.8-1.1L435.9,347.5z"/>
					</g>
				</g>
			</g>
		</g>
		<g class="st6">
			<g>
				<g>
					<g>
						<g>
							<path d="M435.9,347.5c-1,1.9-2,3.8-3,5.6c-0.1,0.1-0.2,0.3-0.3,0.3c-0.2,0-0.3-0.1-0.4-0.3c-2.7-4.2-5.4-8.4-8-12.7l1.8-1.1
								L435.9,347.5z"/>
						</g>
					</g>
				</g>
			</g>
		</g>
		<g>
			<g>
				<g>
					<g>
						<path class="st4" d="M452.2,357.7c-9.1-5.5-18.3-11.1-27.4-16.6c-0.3-0.2-0.6-0.4-0.7-0.7c-0.1-0.4,0.2-0.8,0.5-1.1
							c3.8-4,9.2-6.3,14.6-5.9c5.4,0.4,10.6,3.6,13.2,8.4C455.1,346.7,455.2,353.1,452.2,357.7"/>
					</g>
				</g>
			</g>
		</g>
		<g>
			<g>
				<g>
					<g>
						<g>
							<path class="st3" d="M428.8,335.8c0,0,0.1,0,0.4,0c0.2,0,0.6-0.1,1-0.1c0.9,0,2.2,0,3.8,0.3c1.6,0.3,3.5,0.8,5.4,1.7
								c2,0.9,4,2.2,5.8,3.9c1.8,1.7,3.3,3.6,4.3,5.5c1.1,1.9,1.8,3.8,2.2,5.4c0.4,1.6,0.6,2.9,0.7,3.9c0,0.5,0,0.8,0.1,1.1
								c0,0.2,0,0.4,0,0.4c0,0-0.1-0.5-0.2-1.4c-0.1-0.9-0.3-2.2-0.8-3.8c-0.9-3.1-2.9-7.4-6.5-10.7c-3.6-3.4-7.9-5-11-5.6
								c-1.6-0.3-2.9-0.4-3.8-0.4C429.2,335.8,428.8,335.8,428.8,335.8z"/>
						</g>
					</g>
				</g>
			</g>
		</g>
		<g>
			<g>
				<g>
					<g>
						<g>
							<path class="st3" d="M448.5,346.2c0,0-0.5,0.3-1.4,0.6c-0.9,0.4-2.1,0.8-3.5,1.2c-1.4,0.4-2.6,0.8-3.5,1
								c-0.9,0.2-1.5,0.3-1.5,0.3c0,0,0.5-0.2,1.4-0.5c1-0.3,2.2-0.7,3.5-1.1c1.3-0.4,2.5-0.8,3.5-1.2
								C447.9,346.3,448.5,346.2,448.5,346.2z"/>
						</g>
					</g>
				</g>
			</g>
		</g>
		<g>
			<g>
				<g>
					<g>
						<g>
							<path class="st3" d="M444.2,334.3c0.1,0,0.3,1.4,0.3,3.1c0,1.7-0.1,3.2-0.2,3.1c-0.1,0-0.1-1.4-0.2-3.1
								C444.1,335.7,444.1,334.3,444.2,334.3z"/>
						</g>
					</g>
				</g>
			</g>
		</g>
		<g>
			<g>
				<g>
					<g>
						<g>
							<path class="st3" d="M424.6,340.8c0,0,0.7-0.3,2-0.7c1.2-0.4,3-0.9,4.9-1.4c1.9-0.5,3.7-0.8,5-1.1c1.3-0.2,2.1-0.3,2.1-0.3
								c0,0-0.8,0.2-2,0.5c-1.3,0.3-3,0.7-4.9,1.2c-1.9,0.5-3.7,0.9-4.9,1.3C425.4,340.6,424.6,340.8,424.6,340.8z"/>
						</g>
					</g>
				</g>
			</g>
		</g>
	</g>
	<g>
		<g>
			<g>
				<g>
					<g>
						<path class="st4" d="M439.6,359.9c-2.4-1.8-4.8-2.2-7.8-2.1c-3,0.1-5.8,1-8.5,2.3c-4.6,2.1-9,5.1-11.7,9.5
							c-2.8,4.3-3.7,10.1-1.7,14.8c0.2,0.5,0.5,1,0.9,1.2c0.5,0.2,1,0,1.5-0.1c5.3-1.8,10.5-3.5,15.4-6.3c4.8-2.8,9.2-6.6,11.8-11.6
							c0.6-1.2,1.1-2.5,1.2-3.8C440.9,362.3,440.5,360.9,439.6,359.9"/>
					</g>
				</g>
			</g>
		</g>
		<g>
			<g>
				<g>
					<g>
						<g>
							<path class="st3" d="M439.6,359.4c0,0-0.1,0.1-0.4,0.2c-0.3,0.1-0.6,0.2-1.1,0.4c-0.2,0.1-0.5,0.2-0.8,0.3
								c-0.3,0.1-0.6,0.2-0.9,0.4c-0.7,0.3-1.4,0.6-2.2,1c-0.4,0.2-0.8,0.4-1.3,0.6c-0.4,0.2-0.9,0.5-1.4,0.7
								c-1,0.5-1.9,1.1-2.9,1.7c-2,1.3-4.1,2.9-6.2,4.7c-2.1,1.9-3.8,3.8-5.4,5.7c-0.7,1-1.4,1.9-2,2.8c-0.3,0.4-0.6,0.9-0.9,1.3
								c-0.3,0.4-0.5,0.8-0.7,1.2c-0.5,0.8-0.9,1.5-1.2,2.2c-0.2,0.3-0.3,0.6-0.5,0.9c-0.1,0.3-0.3,0.5-0.4,0.8
								c-0.2,0.4-0.4,0.8-0.5,1.1c-0.1,0.2-0.2,0.4-0.2,0.4c0,0,0-0.1,0.1-0.4c0.1-0.3,0.3-0.6,0.5-1.1c0.1-0.2,0.2-0.5,0.3-0.8
								c0.1-0.3,0.3-0.6,0.5-0.9c0.3-0.7,0.7-1.4,1.2-2.2c0.2-0.4,0.5-0.8,0.7-1.3c0.3-0.4,0.6-0.9,0.9-1.3c0.6-0.9,1.3-1.8,2-2.8
								c1.5-1.9,3.3-3.9,5.4-5.8c2.1-1.9,4.2-3.4,6.3-4.7c1-0.6,2-1.2,3-1.7c0.5-0.2,0.9-0.5,1.4-0.7c0.5-0.2,0.9-0.4,1.3-0.6
								c0.8-0.4,1.6-0.7,2.3-0.9c0.3-0.1,0.7-0.2,0.9-0.3c0.3-0.1,0.6-0.2,0.8-0.2c0.5-0.1,0.8-0.2,1.1-0.3
								C439.5,359.4,439.6,359.4,439.6,359.4z"/>
						</g>
					</g>
				</g>
			</g>
		</g>
		<g>
			<g>
				<g>
					<g>
						<g>
							<path class="st3" d="M421.2,369.6c0,0.1-2.5,0.9-5.7,1.9c-3.2,1-5.8,1.7-5.8,1.6c0-0.1,2.5-0.9,5.7-1.9
								C418.6,370.2,421.2,369.5,421.2,369.6z"/>
						</g>
					</g>
				</g>
			</g>
		</g>
		<g>
			<g>
				<g>
					<g>
						<g>
							<path class="st3" d="M421,382.6c0,0-0.1-0.7-0.1-1.8c0-1.1,0-2.7,0-4.4c0-1.7,0.1-3.3,0.2-4.4c0.1-1.1,0.2-1.8,0.2-1.8
								c0,0,0,0.7,0,1.8c0,1.2-0.1,2.8-0.1,4.4c0,1.7-0.1,3.2-0.1,4.4C421,381.9,421,382.6,421,382.6z"/>
						</g>
					</g>
				</g>
			</g>
		</g>
		<g>
			<g>
				<g>
					<g>
						<g>
							<path class="st3" d="M431.8,376.9c-0.1,0-0.4-3.2-0.6-7.1c-0.3-3.9-0.4-7.1-0.3-7.1c0.1,0,0.4,3.2,0.6,7.1
								C431.8,373.7,431.9,376.9,431.8,376.9z"/>
						</g>
					</g>
				</g>
			</g>
		</g>
		<g>
			<g>
				<g>
					<g>
						<g>
							<path class="st3" d="M418.3,362.4c0,0,0.7-0.1,1.8-0.1c1.1,0,2.7,0,4.4,0.1c1.7,0.1,3.3,0.1,4.4,0.2c1.1,0.1,1.8,0.1,1.8,0.2
								c0,0-0.7,0.1-1.8,0.1c-1.1,0-2.7,0-4.4-0.1c-1.7-0.1-3.3-0.1-4.4-0.2C419,362.5,418.3,362.4,418.3,362.4z"/>
						</g>
					</g>
				</g>
			</g>
		</g>
	</g>
	<g>
		<g>
			<g>
				<g>
					<g>
						<path class="st3" d="M445.4,402.3c0,0,0-0.1,0-0.4c0-0.3,0-0.7,0-1.1c0-1-0.1-2.3,0-4.1c0-1.7,0.1-3.8,0.3-6
							c0.2-2.3,0.5-4.7,1-7.3c0.5-2.6,1-5,1.6-7.2c0.6-2.2,1.2-4.2,1.7-5.8c0.5-1.6,1-2.9,1.4-3.8c0.2-0.4,0.3-0.8,0.4-1
							c0.1-0.2,0.2-0.4,0.2-0.3c0,0,0,0.1-0.1,0.4c-0.1,0.3-0.2,0.6-0.4,1c-0.3,0.9-0.8,2.2-1.3,3.8c-0.5,1.6-1.1,3.6-1.6,5.8
							c-0.5,2.2-1.1,4.6-1.5,7.2c-0.4,2.6-0.8,5-1,7.3c-0.2,2.3-0.3,4.3-0.4,6c-0.1,1.7-0.1,3.1-0.1,4.1c0,0.4,0,0.8,0,1.1
							C445.4,402.2,445.4,402.3,445.4,402.3z"/>
					</g>
				</g>
			</g>
		</g>
	</g>
	<g>
		<g>
			<g>
				<g>
					<g>
						<path class="st3" d="M446.8,383.1c0,0-0.4,0.5-1.1,1.2c-0.7,0.7-1.7,1.7-2.9,2.7c-1.1,1-2.2,1.9-3,2.6c-0.8,0.6-1.3,1-1.3,1
							c0,0,0.4-0.5,1.2-1.1c0.8-0.8,1.8-1.6,2.9-2.6c1.1-1,2.1-1.9,2.9-2.7C446.3,383.5,446.8,383.1,446.8,383.1z"/>
					</g>
				</g>
			</g>
		</g>
	</g>
	<g>
		<g>
			<g>
				<g>
					<g>
						<path class="st3" d="M455.5,390.3c0,0-0.5-0.6-1.2-1.7c-0.7-1.1-1.7-2.5-2.7-4.1c-1-1.5-2-2.9-2.8-4c-0.7-1-1.1-1.7-1.1-1.7
							c0,0,0.5,0.6,1.3,1.6c0.8,1,1.8,2.4,2.8,4c1.1,1.6,2,3,2.6,4.1C455.2,389.6,455.5,390.3,455.5,390.3z"/>
					</g>
				</g>
			</g>
		</g>
	</g>
	<g>
		<g>
			<g>
				<g>
					<g>
						<path class="st3" d="M451,367.7c0,0.1-2.8,2.1-6.4,4.4c-3.6,2.4-6.6,4.2-6.6,4.2c0-0.1,2.8-2.1,6.4-4.4
							C448,369.5,450.9,367.7,451,367.7z"/>
					</g>
				</g>
			</g>
		</g>
	</g>
	<g>
		<g>
			<g>
				<g>
					<g>
						<path class="st3" d="M459.1,376.7c-0.1,0.1-2-1.8-4.4-4.1c-2.3-2.3-4.2-4.3-4.1-4.4c0.1-0.1,2,1.8,4.4,4.1
							C457.3,374.7,459.1,376.7,459.1,376.7z"/>
					</g>
				</g>
			</g>
		</g>
	</g>
	<g>
		<g>
			<g>
				<g>
					<g>
						<path class="st4" d="M461.1,376.6l2.5-0.2c1.8-0.1,3.5-0.7,5-1.6c0.8-0.4,1.5-0.9,2.3-1.2c3.1-1.3,6.5-1,9.8-1.2
							c5.4-0.3,10.7-1.7,15.5-4.1c0.3-0.1,0.5-0.4,0.7-0.6c0.5-0.9-0.4-1.8-1.2-2.3c-4.2-2.6-8.4-5.3-13.1-6.6
							c-4.7-1.3-10.1-1.1-14.1,1.8C463.6,363.9,461.9,370.7,461.1,376.6"/>
					</g>
				</g>
			</g>
		</g>
		<g>
			<g>
				<g>
					<g>
						<g>
							<path class="st3" d="M496.9,367.4c0,0-0.1-0.1-0.4-0.2c-0.3-0.2-0.7-0.4-1.2-0.6c-1-0.5-2.5-1.4-4.3-2.3
								c-1.8-0.9-4.1-1.9-6.7-2.7c-2.6-0.7-5.6-1.1-8.7-0.7c-3.1,0.4-5.9,1.6-7.9,3.5c-2,1.8-3.3,4.1-4.1,5.9
								c-0.9,1.9-1.4,3.5-1.8,4.6c-0.2,0.5-0.3,1-0.4,1.3c-0.1,0.3-0.2,0.4-0.2,0.4c0,0,0-0.2,0.1-0.5c0.1-0.3,0.2-0.8,0.4-1.3
								c0.4-1.1,0.9-2.8,1.7-4.7c0.9-1.9,2.1-4.2,4.1-6.1c2-1.9,4.9-3.2,8.1-3.6c3.1-0.4,6.2,0,8.8,0.8c2.6,0.8,4.9,1.8,6.7,2.7
								c1.8,0.9,3.3,1.8,4.3,2.4c0.5,0.3,0.9,0.5,1.1,0.7C496.8,367.3,496.9,367.3,496.9,367.4z"/>
						</g>
					</g>
				</g>
			</g>
		</g>
		<g>
			<g>
				<g>
					<g>
						<g>
							<path class="st3" d="M491,370.6c-0.1,0.1-3.3-2.1-7.2-4.8c-3.9-2.7-7.1-5-7-5.1c0.1-0.1,3.3,2.1,7.2,4.8
								C487.9,368.3,491,370.6,491,370.6z"/>
						</g>
					</g>
				</g>
			</g>
		</g>
		<g>
			<g>
				<g>
					<g>
						<g>
							<path class="st3" d="M487.9,360.4c0,0.1-1.1,0.4-2.5,0.5c-1.4,0.1-2.6,0.1-2.6,0c0-0.1,1.1-0.2,2.5-0.3
								C486.7,360.5,487.9,360.3,487.9,360.4z"/>
						</g>
					</g>
				</g>
			</g>
		</g>
		<g>
			<g>
				<g>
					<g>
						<g>
							<path class="st3" d="M473.4,357.8c0.1,0-0.4,1-1.1,2.2c-0.7,1.2-1.3,2.1-1.3,2c-0.1,0,0.4-1,1.1-2.2
								C472.7,358.6,473.3,357.7,473.4,357.8z"/>
						</g>
					</g>
				</g>
			</g>
		</g>
		<g>
			<g>
				<g>
					<g>
						<g>
							<path class="st3" d="M476.3,372.6c0,0-0.6-0.3-1.6-0.9c-0.9-0.6-2.2-1.4-3.5-2.4c-1.3-1-2.5-2-3.4-2.7
								c-0.9-0.7-1.4-1.1-1.3-1.2c0,0,0.6,0.3,1.5,1c1,0.7,2.1,1.6,3.4,2.6c1.3,1,2.6,1.9,3.5,2.5
								C475.7,372.2,476.3,372.5,476.3,372.6z"/>
						</g>
					</g>
				</g>
			</g>
		</g>
	</g>
	<g>
		<g>
			<g>
				<g>
					<g>
						<path class="st4" d="M464.8,387.3c-2.4-0.6-5.2,1.7-5.7,4.2c-0.5,2.5,0.4,5,1.5,7.2c2.3,5,5.5,9.6,9.7,13.1
							c4.2,3.5,9.5,5.7,14.9,5.6c-1-4.8,0.3-9.7-0.3-14.5c-0.5-4.2-2.4-8.2-5.3-11.2c-2.9-3-6.9-4.9-11-5.4
							C467.1,386.2,465.4,385.9,464.8,387.3"/>
					</g>
				</g>
			</g>
		</g>
		<g>
			<g>
				<g>
					<g>
						<g>
							<path class="st3" d="M485.2,417.5c0,0-0.1,0-0.3-0.2c-0.2-0.1-0.5-0.3-0.9-0.6c-0.7-0.6-1.6-1.7-2.3-3.2
								c-0.4-0.7-0.8-1.6-1.2-2.5c-0.4-0.9-0.8-1.9-1.3-2.9c-0.4-1-0.9-2.1-1.6-3.1c-0.6-1-1.3-2-2.1-3c-1.6-1.9-3.3-3.6-4.8-5.2
								c-1.5-1.6-2.8-3.1-3.7-4.6c-0.9-1.4-1.5-2.7-1.8-3.5c-0.2-0.4-0.3-0.8-0.3-1c-0.1-0.2-0.1-0.4-0.1-0.4c0,0,0.2,0.5,0.5,1.4
								c0.4,0.9,0.9,2.1,1.9,3.5c0.9,1.4,2.2,2.9,3.7,4.5c1.5,1.6,3.2,3.3,4.9,5.2c0.8,1,1.6,2,2.2,3c0.6,1,1.1,2.1,1.6,3.1
								c0.4,1,0.9,2,1.2,2.9c0.4,0.9,0.8,1.7,1.2,2.5c0.7,1.5,1.5,2.6,2.2,3.2C484.8,417.2,485.2,417.4,485.2,417.5z"/>
						</g>
					</g>
				</g>
			</g>
		</g>
		<g>
			<g>
				<g>
					<g>
						<g>
							<path class="st3" d="M473,413.5c0,0,0-0.6,0.2-1.6c0.2-1,0.5-2.4,0.9-3.9c0.4-1.5,0.8-2.8,1.2-3.8c0.3-0.9,0.6-1.5,0.6-1.5
								c0,0-0.1,0.6-0.4,1.6c-0.3,1-0.7,2.3-1.1,3.8c-0.4,1.5-0.7,2.8-1,3.8C473.2,412.9,473.1,413.5,473,413.5z"/>
						</g>
					</g>
				</g>
			</g>
		</g>
		<g>
			<g>
				<g>
					<g>
						<g>
							<path class="st3" d="M484.8,401.8c0,0-0.6-0.1-1.7-0.4c-1-0.3-2.4-0.6-4-1c-1.6-0.4-3-0.6-4-0.8c-1-0.2-1.7-0.3-1.7-0.4
								c0,0,0.7,0,1.7,0.1c1,0.1,2.5,0.4,4.1,0.7c1.6,0.4,3,0.8,4,1.1C484.2,401.6,484.8,401.8,484.8,401.8z"/>
						</g>
					</g>
				</g>
			</g>
		</g>
		<g>
			<g>
				<g>
					<g>
						<g>
							<path class="st3" d="M464.3,405.2c0,0,0-0.7,0.3-1.9c0.2-1.2,0.5-2.7,1-4.5c0.4-1.7,0.9-3.3,1.3-4.4c0.4-1.1,0.6-1.8,0.7-1.8
								c0,0-0.1,0.7-0.5,1.8c-0.3,1.1-0.7,2.7-1.2,4.4c-0.4,1.7-0.8,3.3-1.1,4.4C464.5,404.5,464.3,405.2,464.3,405.2z"/>
						</g>
					</g>
				</g>
			</g>
		</g>
		<g>
			<g>
				<g>
					<g>
						<g>
							<path class="st3" d="M479.4,391.7c0,0.1-3-0.2-6.6-0.5c-3.6-0.4-6.5-0.8-6.5-0.9c0-0.1,3,0.2,6.6,0.5
								C476.4,391.2,479.4,391.6,479.4,391.7z"/>
						</g>
					</g>
				</g>
			</g>
		</g>
	</g>
	<g>
		<g>
			<g>
				<g>
					<g>
						<path class="st7" d="M477.2,428.3c0,0.1-10.3,0.2-23.1,0.2c-12.8,0-23.1-0.1-23.1-0.2c0-0.1,10.3-0.2,23.1-0.2
							C466.9,428.2,477.2,428.2,477.2,428.3z"/>
					</g>
				</g>
			</g>
		</g>
	</g>
	<g>
		<g>
			<g>
				<g>
					<g>
						<path class="st7" d="M470,442c0,0.1-7,0.2-15.6,0.2c-8.6,0-15.6-0.1-15.6-0.2c0-0.1,7-0.2,15.6-0.2
							C463,441.8,470,441.9,470,442z"/>
					</g>
				</g>
			</g>
		</g>
	</g>
	<g>
		<g>
			<g>
				<g>
					<g>
						<path class="st7" d="M470.3,444c0,0.1-7,0.2-15.6,0.2c-8.6,0-15.6-0.1-15.6-0.2s7-0.2,15.6-0.2
							C463.3,443.8,470.3,443.9,470.3,444z"/>
					</g>
				</g>
			</g>
		</g>
	</g>
	<g>
		<g>
			<g>
				<g>
					<g>
						<path class="st7" d="M470.3,440.4c0,0.1-7.2,0.2-16.1,0.2c-8.9,0-16.1-0.1-16.1-0.2c0-0.1,7.2-0.2,16.1-0.2
							C463.1,440.2,470.3,440.3,470.3,440.4z"/>
					</g>
				</g>
			</g>
		</g>
	</g>
</g>
<g>
	<g>
		<g>
			<path class="st2" d="M460.1,159c0,0,0-0.5,0-1.6c0-1,0-2.5,0-4.5c0-3.9,0-9.7,0-17.1c0-14.7,0-35.8-0.1-61.2l0.1,0.2
				c-29.5,0-65,0-103.2,0h0l0.2-0.2c0,30.4,0,59.2,0,84.3l-0.2-0.2c30.6,0,56.4,0.1,74.5,0.1c9.1,0,16.2,0,21.1,0c2.4,0,4.3,0,5.6,0
				c0.6,0,1.1,0,1.4,0C459.9,159,460.1,159,460.1,159s-0.2,0-0.5,0c-0.3,0-0.8,0-1.4,0c-1.3,0-3.1,0-5.6,0c-4.9,0-12,0-21.1,0
				c-18.1,0-44,0-74.6,0.1l-0.2,0l0-0.2c0-25.1,0-53.9,0-84.3v-0.2h0.2h0c38.2,0,73.7,0,103.2,0h0.1l0,0.2c0,25.4-0.1,46.5-0.1,61.3
				c0,7.3,0,13.1,0,17c0,2,0,3.5,0,4.5C460.1,158.5,460.1,159,460.1,159z"/>
		</g>
	</g>
	<g>
		<g>
			<g>
				<g>
					<g>
						<rect x="370.2" y="90.4" class="st2" width="3.7" height="42.8"/>
					</g>
				</g>
			</g>
		</g>
		<g>
			<g>
				<g>
					<g>
						<rect x="377.4" y="104.9" class="st8" width="3.7" height="28.3"/>
					</g>
				</g>
			</g>
		</g>
		<g>
			<g>
				<g>
					<g>
						<rect x="384.6" y="95.7" class="st2" width="3.7" height="37.7"/>
					</g>
				</g>
			</g>
		</g>
		<g>
			<g>
				<g>
					<g>
						<rect x="391.8" y="92" class="st8" width="3.7" height="41.1"/>
					</g>
				</g>
			</g>
		</g>
		<g>
			<g>
				<g>
					<g>
						<rect x="399" y="105.8" class="st2" width="3.7" height="27.4"/>
					</g>
				</g>
			</g>
		</g>
		<g>
			<g>
				<g>
					<g>
						<rect x="406.2" y="111.1" class="st8" width="3.7" height="22"/>
					</g>
				</g>
			</g>
		</g>
		<g>
			<g>
				<g>
					<g>
						<rect x="413.4" y="94.8" class="st2" width="3.7" height="38.4"/>
					</g>
				</g>
			</g>
		</g>
		<g>
			<g>
				<g>
					<g>
						<rect x="420.6" y="101.7" class="st8" width="3.7" height="31.5"/>
					</g>
				</g>
			</g>
		</g>
		<g>
			<g>
				<g>
					<g>
						<rect x="427.8" y="96.1" class="st2" width="3.7" height="37"/>
					</g>
				</g>
			</g>
		</g>
		<g>
			<g>
				<g>
					<g>
						<rect x="435" y="107.9" class="st8" width="3.7" height="25.2"/>
					</g>
				</g>
			</g>
		</g>
		<g>
			<g>
				<g>
					<g>
						<rect x="442.2" y="103.1" class="st2" width="3.7" height="30"/>
					</g>
				</g>
			</g>
		</g>
		<g>
			<g>
				<g>
					<g>
						<g>
							<path class="st2" d="M447.5,136.1c0,0.1-17.7,0.2-39.5,0.2c-21.8,0-39.5-0.1-39.5-0.2c0-0.1,17.7-0.2,39.5-0.2
								C429.8,136,447.5,136,447.5,136.1z"/>
						</g>
					</g>
				</g>
			</g>
		</g>
		<g>
			<g>
				<g>
					<g>
						<g>
							<path class="st2" d="M375.5,139.5c0,0.1-1.2,0.2-2.8,0.2c-1.5,0-2.8-0.1-2.8-0.2c0-0.1,1.2-0.2,2.8-0.2
								C374.3,139.3,375.5,139.4,375.5,139.5z"/>
						</g>
					</g>
				</g>
			</g>
		</g>
		<g>
			<g>
				<g>
					<g>
						<g>
							<path class="st2" d="M384.7,139.7c0,0.1-1.5,0.2-3.3,0.2c-1.8,0-3.3-0.1-3.3-0.2c0-0.1,1.5-0.2,3.3-0.2
								C383.2,139.5,384.7,139.6,384.7,139.7z"/>
						</g>
					</g>
				</g>
			</g>
		</g>
		<g>
			<g>
				<g>
					<g>
						<g>
							<path class="st2" d="M392.6,139.7c0,0.1-1.5,0.2-3.3,0.2c-1.8,0-3.3-0.1-3.3-0.2c0-0.1,1.5-0.2,3.3-0.2
								C391.1,139.5,392.6,139.6,392.6,139.7z"/>
						</g>
					</g>
				</g>
			</g>
		</g>
		<g>
			<g>
				<g>
					<g>
						<g>
							<path class="st2" d="M400.4,139.7c0,0.1-1.5,0.2-3.3,0.2c-1.8,0-3.3-0.1-3.3-0.2c0-0.1,1.5-0.2,3.3-0.2
								C398.9,139.5,400.4,139.6,400.4,139.7z"/>
						</g>
					</g>
				</g>
			</g>
		</g>
		<g>
			<g>
				<g>
					<g>
						<g>
							<path class="st2" d="M408.2,139.7c0,0.1-1.5,0.2-3.3,0.2c-1.8,0-3.3-0.1-3.3-0.2c0-0.1,1.5-0.2,3.3-0.2
								C406.7,139.5,408.2,139.6,408.2,139.7z"/>
						</g>
					</g>
				</g>
			</g>
		</g>
		<g>
			<g>
				<g>
					<g>
						<g>
							<path class="st2" d="M416.1,139.7c0,0.1-1.5,0.2-3.3,0.2c-1.8,0-3.3-0.1-3.3-0.2c0-0.1,1.5-0.2,3.3-0.2
								C414.6,139.5,416.1,139.6,416.1,139.7z"/>
						</g>
					</g>
				</g>
			</g>
		</g>
		<g>
			<g>
				<g>
					<g>
						<g>
							<path class="st2" d="M423.9,139.7c0,0.1-1.5,0.2-3.3,0.2c-1.8,0-3.3-0.1-3.3-0.2c0-0.1,1.5-0.2,3.3-0.2
								C422.4,139.5,423.9,139.6,423.9,139.7z"/>
						</g>
					</g>
				</g>
			</g>
		</g>
		<g>
			<g>
				<g>
					<g>
						<g>
							<path class="st2" d="M431.7,139.7c0,0.1-1.5,0.2-3.3,0.2c-1.8,0-3.3-0.1-3.3-0.2c0-0.1,1.5-0.2,3.3-0.2
								C430.2,139.5,431.7,139.6,431.7,139.7z"/>
						</g>
					</g>
				</g>
			</g>
		</g>
		<g>
			<g>
				<g>
					<g>
						<g>
							<path class="st2" d="M439.6,139.7c0,0.1-1.5,0.2-3.3,0.2c-1.8,0-3.3-0.1-3.3-0.2c0-0.1,1.5-0.2,3.3-0.2
								C438.1,139.5,439.6,139.6,439.6,139.7z"/>
						</g>
					</g>
				</g>
			</g>
		</g>
		<g>
			<g>
				<g>
					<g>
						<g>
							<path class="st2" d="M447.4,139.7c0,0.1-1.5,0.2-3.3,0.2c-1.8,0-3.3-0.1-3.3-0.2c0-0.1,1.5-0.2,3.3-0.2
								C445.9,139.5,447.4,139.6,447.4,139.7z"/>
						</g>
					</g>
				</g>
			</g>
		</g>
	</g>
	<g>
		<rect x="353.6" y="74.2" class="st8" width="109.4" height="3.2"/>
	</g>
</g>
<g>
	<g>
		<polygon class="st2" points="212,60.9 181.6,71.3 250.4,71.3 221.8,60.9 		"/>
	</g>
	<g>
		<g>
			<path class="st2" d="M220.6,70.6c0,0-0.2,0.6-0.2,1.8c-0.1,1.2,0.1,3,1.1,4.8c0.5,1,1.1,2,1.6,3.1c0.5,1.2,0.7,2.6,0.4,4.1
				c-0.3,1.4-1,2.9-2.1,3.9c-1.1,1.1-2.7,1.7-4.4,1.7c-1.6,0-3.2-0.5-4.4-1.6c-1.2-1-2-2.4-2.3-3.9c-0.3-1.4-0.2-2.9,0.3-4.1
				c0.5-1.2,1.2-2.2,1.8-3c0.6-0.9,1.2-1.7,1.5-2.4c0.3-0.8,0.5-1.5,0.5-2.1c0-1.2-0.5-1.8-0.4-1.8c0,0,0.1,0.1,0.2,0.4
				c0.1,0.3,0.3,0.8,0.3,1.4c0,0.6-0.1,1.4-0.4,2.2c-0.3,0.8-0.9,1.6-1.5,2.5c-0.6,0.9-1.3,1.8-1.8,3c-0.4,1.2-0.5,2.5-0.2,3.9
				c0.3,1.4,1,2.7,2.2,3.7c1.1,0.9,2.7,1.5,4.2,1.5c1.6,0,3.1-0.6,4.1-1.6c1.1-1,1.8-2.4,2.1-3.7c0.3-1.4,0.1-2.7-0.4-3.9
				c-0.5-1.2-1.1-2.2-1.5-3.1c-1-1.9-1.2-3.8-1-5c0-0.6,0.1-1.1,0.2-1.4C220.5,70.8,220.6,70.6,220.6,70.6z"/>
		</g>
	</g>
	<g>
		<g>
			<path class="st2" d="M218.1,71.3c0,0-0.1,0.5-0.2,1.3c-0.1,0.8-0.3,2.1-0.3,3.6c-0.1,1.5,0,3.3,0.2,5.3c0.1,0.2,0.1,0.4,0.3,0.6
				c0.1,0.2,0.3,0.2,0.5,0.2c0.4-0.1,0.6-0.7,0.5-1.1c-0.1-1-1.1-1.9-2.1-1.9c-1,0-2,0.8-2.2,1.8c-0.1,0.5,0.2,1,0.6,1.1
				c0.4,0.1,0.8-0.2,1-0.6c0.2-0.4,0.2-0.9,0.2-1.4c0-0.5,0.1-0.9,0.1-1.4c0-0.9,0-1.7-0.1-2.5c-0.1-1.5-0.4-2.7-0.6-3.5
				c-0.2-0.8-0.3-1.3-0.3-1.3c0,0,0.1,0.1,0.1,0.3c0.1,0.2,0.2,0.5,0.3,0.9c0.2,0.8,0.5,2,0.7,3.6c0.1,0.8,0.1,1.6,0.1,2.5
				c0,0.5,0,0.9,0,1.4c0,0.5,0,1-0.2,1.5c-0.1,0.3-0.3,0.5-0.5,0.7c-0.2,0.2-0.6,0.2-0.9,0.1c-0.6-0.2-0.9-0.9-0.8-1.5
				c0.2-1.2,1.3-2.2,2.5-2.2c1.3,0,2.3,1,2.5,2.2c0,0.3,0,0.6-0.1,0.9c-0.1,0.3-0.3,0.6-0.7,0.6c-0.3,0.1-0.7-0.1-0.8-0.3
				c-0.2-0.2-0.3-0.5-0.4-0.8c-0.3-2-0.3-3.9-0.2-5.4c0.1-1.5,0.3-2.8,0.5-3.6c0.1-0.4,0.2-0.7,0.2-1
				C218,71.4,218.1,71.3,218.1,71.3z"/>
		</g>
	</g>
	<g>
		<g>
			<path class="st2" d="M216.9,7.2c0,0,0,0.2,0,0.5c0,0.4,0,0.9,0,1.5c0,1.4,0,3.3,0.1,5.7c0,4.8,0,11.4,0.1,18.7
				c0,7.3,0,13.9-0.1,18.7c0,2.4,0,4.3-0.1,5.7c0,0.6,0,1.2,0,1.5c0,0.4,0,0.5,0,0.5s0-0.2,0-0.5c0-0.4,0-0.9,0-1.5
				c0-1.4,0-3.3-0.1-5.7c0-4.8,0-11.4-0.1-18.7c0-7.3,0-13.9,0.1-18.7c0-2.4,0-4.3,0.1-5.7c0-0.6,0-1.2,0-1.5
				C216.9,7.4,216.9,7.2,216.9,7.2z"/>
		</g>
	</g>
	<g>
		<polygon class="st2" points="212,60.9 213.9,52.2 220.2,52.2 221.8,60.9 		"/>
	</g>
</g>
<g>
	<g>
		<rect x="110" y="32.4" class="st2" width="3.6" height="80.5"/>
	</g>
	<g>
		<path class="st1" d="M57.2,33v79.8c0,0,0,0.1,0.1,0.1h52.2c0,0,0.1,0,0.1-0.1V33c0,0,0-0.1-0.1-0.1L57.2,33
			C57.2,33,57.2,33,57.2,33z"/>
	</g>
	<g>
		<g>
			<path class="st8" d="M110,113.5H56.6c0,0-0.1,0-0.1-0.1V32.4c0,0,0-0.1,0.1-0.1H110c0,0,0.1,0,0.1,0.1L110,113.5
				C110.1,113.5,110.1,113.5,110,113.5z M57.8,112.3h51c0,0,0.1,0,0.1-0.1V33.7c0,0,0-0.1-0.1-0.1h-51c0,0-0.1,0-0.1,0.1L57.8,112.3
				C57.8,112.3,57.8,112.3,57.8,112.3z"/>
		</g>
	</g>
	<g>
		<path class="st9" d="M62.4,38v69.9c0,0,0,0.1,0.1,0.1h41.8c0,0,0.1,0,0.1-0.1V38c0,0,0-0.1-0.1-0.1L62.4,38
			C62.5,37.9,62.4,37.9,62.4,38z"/>
	</g>
	<g>
		<path class="st8" d="M95,86.1H71.6c0,0-0.1,0-0.1-0.1V57.8c0,0,0-0.1,0.1-0.1H95c0,0,0.1,0,0.1,0.1L95,86.1
			C95.1,86,95,86.1,95,86.1z"/>
	</g>
	<g>
		<g>
			<path class="st2" d="M93.2,82.6c0,0.1-1.1,0.6-3.3,0.3c-1.1-0.2-2.4-0.6-3.8-1.5c-1.3-1-2.5-2.6-2.9-4.7
				c-0.4-2.1,0.3-4.7,2.2-6.4c0.5-0.4,1.1-0.8,1.7-1c0.7-0.3,1.4-0.3,2.1-0.3c0.7,0.1,1.5,0.3,2.1,0.9c0.6,0.6,1,1.6,0.8,2.5
				c-0.2,0.9-0.6,1.6-1.2,2.2c-0.5,0.6-1.1,1-1.8,1.3c-1.3,0.7-2.7,1.2-4.2,1.2c-1.5,0.1-3.1-0.2-4.5-1.1c-1.4-0.8-2.6-2-3.3-3.5
				c-0.8-1.5-1-3.3-0.6-4.9c0.4-1.6,1.3-3.1,2.5-4.1c0.6-0.5,1.3-0.9,2.1-1.1c0.8-0.2,1.6-0.2,2.4-0.1c0.8,0.2,1.6,0.6,2.2,1.3
				c0.6,0.7,0.8,1.6,0.9,2.4c0,0.8-0.2,1.6-0.6,2.3c-0.4,0.7-0.8,1.2-1.3,1.7c-1,0.9-2.2,1.5-3.3,1.8c-1.2,0.3-2.4,0.4-3.5,0.3
				c-1.1-0.2-2.2-0.6-3-1.2c-1.7-1.2-2.7-3-2.9-4.7c-0.2-1.7,0.4-3.1,1.1-4.1c0.7-0.9,1.5-1.4,2-1.6c0.5-0.2,0.9-0.2,0.9-0.2
				c0,0.1-0.2,0.2-0.7,0.5c-0.4,0.3-1.1,0.8-1.6,1.7c-0.5,0.9-0.9,2.1-0.6,3.5c0.2,1.4,1.1,2.8,2.6,3.7c1.4,0.9,3.4,1.2,5.3,0.5
				c1-0.3,1.9-0.8,2.7-1.6c0.8-0.7,1.3-1.6,1.2-2.6c0-1-0.6-1.6-1.6-1.8c-0.5-0.1-1-0.1-1.5,0.1c-0.5,0.2-1,0.4-1.5,0.8
				c-0.9,0.7-1.6,1.8-1.8,3c-0.3,1.2-0.1,2.4,0.4,3.6c0.6,1.1,1.5,2.1,2.5,2.7c1.1,0.6,2.3,0.9,3.5,0.8c1.2,0,2.4-0.4,3.4-1
				c0.5-0.3,1-0.6,1.4-1c0.4-0.4,0.6-0.8,0.7-1.2c0.1-0.4,0-0.7-0.3-0.9c-0.3-0.3-0.7-0.4-1.1-0.5c-0.5-0.1-0.9,0-1.3,0.1
				c-0.4,0.2-0.9,0.4-1.2,0.7c-0.7,0.6-1.3,1.4-1.6,2.3c-0.3,0.9-0.4,1.8-0.3,2.6c0.2,1.7,1.2,3.2,2.2,4.1c1.1,0.9,2.2,1.4,3.2,1.7
				C92,82.7,93.2,82.4,93.2,82.6z"/>
		</g>
	</g>
</g>
<g>
	<path class="st10" d="M164.7,98.9h-4.2l-2.4-9.4c-0.1-0.3-0.2-1-0.4-2.1c-0.2-1.1-0.3-1.8-0.4-2.1c0,0.4-0.2,1.2-0.4,2.1
		c-0.2,1-0.3,1.7-0.4,2.1l-2.4,9.4h-4.2L145.4,81h3.6l2.2,9.8c0.4,1.8,0.7,3.4,0.8,4.7c0-0.5,0.2-1.2,0.3-2.2s0.3-1.7,0.5-2.3
		l2.5-10h3.5l2.5,10c0.1,0.5,0.3,1.1,0.4,2.1c0.2,0.9,0.3,1.7,0.4,2.4c0.1-0.6,0.2-1.4,0.4-2.4c0.2-1,0.3-1.7,0.5-2.3l2.2-9.8h3.6
		L164.7,98.9z"/>
	<path class="st10" d="M183.3,98.9h-3.6v-8c0-2-0.7-3-2.2-3c-1,0-1.8,0.4-2.2,1.1c-0.5,0.7-0.7,1.9-0.7,3.5v6.5H171V79.8h3.6v3.9
		c0,0.3,0,1-0.1,2.1l-0.1,1.1h0.2c0.8-1.3,2.1-2,3.9-2c1.6,0,2.8,0.4,3.6,1.3s1.2,2.1,1.2,3.7V98.9z"/>
	<path class="st10" d="M193.1,99.2c-2.2,0-3.8-0.6-5-1.8c-1.2-1.2-1.8-2.9-1.8-5.2c0-2.3,0.6-4.1,1.7-5.3c1.1-1.3,2.7-1.9,4.6-1.9
		c1.9,0,3.4,0.6,4.4,1.7c1.1,1.1,1.6,2.6,1.6,4.6V93H190c0,1.1,0.3,1.9,0.9,2.5s1.4,0.9,2.4,0.9c0.8,0,1.6-0.1,2.3-0.3
		c0.7-0.2,1.5-0.4,2.2-0.8v2.9c-0.6,0.3-1.3,0.6-2,0.7C195.1,99.1,194.2,99.2,193.1,99.2z M192.6,87.6c-0.8,0-1.4,0.3-1.8,0.8
		c-0.4,0.5-0.7,1.2-0.8,2.1h5.1c0-0.9-0.3-1.6-0.7-2.1C194,87.9,193.4,87.6,192.6,87.6z"/>
	<path class="st10" d="M209,84.9c0.5,0,0.9,0,1.2,0.1l-0.3,3.5c-0.3-0.1-0.7-0.1-1.1-0.1c-1.2,0-2.1,0.3-2.7,0.9
		c-0.6,0.6-1,1.5-1,2.6v7h-3.6V85.2h2.8l0.5,2.3h0.2c0.4-0.8,1-1.4,1.7-1.9C207.4,85.2,208.2,84.9,209,84.9z"/>
	<path class="st10" d="M218.7,99.2c-2.2,0-3.8-0.6-5-1.8c-1.2-1.2-1.8-2.9-1.8-5.2c0-2.3,0.6-4.1,1.7-5.3c1.1-1.3,2.7-1.9,4.6-1.9
		c1.9,0,3.4,0.6,4.4,1.7c1.1,1.1,1.6,2.6,1.6,4.6V93h-8.6c0,1.1,0.3,1.9,0.9,2.5s1.4,0.9,2.4,0.9c0.8,0,1.6-0.1,2.3-0.3
		c0.7-0.2,1.5-0.4,2.2-0.8v2.9c-0.6,0.3-1.3,0.6-2,0.7C220.6,99.1,219.8,99.2,218.7,99.2z M218.2,87.6c-0.8,0-1.4,0.3-1.8,0.8
		c-0.4,0.5-0.7,1.2-0.8,2.1h5.1c0-0.9-0.3-1.6-0.7-2.1C219.6,87.9,219,87.6,218.2,87.6z"/>
	<path class="st10" d="M244.5,98.9l-1-4.8l-1.4-6.1H242l-2.4,10.9h-3.9l-3.8-13.7h3.6l1.5,6.1c0.2,1.1,0.5,2.6,0.8,4.5h0.1
		c0-0.6,0.2-1.6,0.4-3l0.2-1l1.6-6.6h4l1.6,6.6c0,0.2,0.1,0.4,0.1,0.8c0.1,0.4,0.1,0.7,0.2,1.1c0.1,0.4,0.1,0.8,0.2,1.2
		c0.1,0.4,0.1,0.7,0.1,0.9h0.1c0.1-0.6,0.2-1.4,0.4-2.4c0.2-1,0.3-1.7,0.4-2.1l1.6-6.1h3.6l-3.8,13.7H244.5z"/>
	<path class="st10" d="M254.3,81.7c0-1.2,0.7-1.8,2-1.8s2,0.6,2,1.8c0,0.6-0.2,1-0.5,1.4c-0.3,0.3-0.8,0.5-1.5,0.5
		C254.9,83.5,254.3,82.9,254.3,81.7z M258.1,98.9h-3.6V85.2h3.6V98.9z"/>
	<path class="st10" d="M265.5,98.9h-3.6V79.8h3.6V98.9z"/>
	<path class="st10" d="M273,98.9h-3.6V79.8h3.6V98.9z"/>
	<path class="st10" d="M281.3,85.2h4l2.5,7.7c0.2,0.7,0.4,1.5,0.4,2.4h0.1c0.1-0.8,0.3-1.6,0.5-2.4l2.5-7.7h3.9l-5.7,15.5
		c-0.5,1.4-1.3,2.5-2.2,3.2c-1,0.7-2.1,1.1-3.4,1.1c-0.6,0-1.2-0.1-1.9-0.2v-3c0.4,0.1,0.9,0.2,1.4,0.2c0.6,0,1.2-0.2,1.7-0.6
		c0.5-0.4,0.9-1,1.1-1.8l0.2-0.7L281.3,85.2z"/>
	<path class="st10" d="M309.3,92c0,2.2-0.6,4-1.7,5.2s-2.7,1.9-4.8,1.9c-1.3,0-2.4-0.3-3.4-0.9s-1.7-1.4-2.3-2.5
		c-0.5-1.1-0.8-2.3-0.8-3.8c0-2.2,0.6-4,1.7-5.2c1.1-1.2,2.7-1.9,4.8-1.9c1.3,0,2.4,0.3,3.4,0.9c1,0.6,1.7,1.4,2.3,2.5
		C309,89.3,309.3,90.6,309.3,92z M300,92c0,1.4,0.2,2.4,0.7,3.1s1.1,1,2.1,1c1,0,1.7-0.3,2.1-1c0.4-0.7,0.6-1.7,0.6-3.1
		c0-1.4-0.2-2.4-0.6-3.1c-0.4-0.7-1.1-1-2.1-1c-1,0-1.7,0.3-2.1,1C300.2,89.7,300,90.7,300,92z"/>
	<path class="st10" d="M321.7,98.9l-0.5-1.8H321c-0.4,0.6-0.9,1.1-1.7,1.5c-0.7,0.3-1.5,0.5-2.5,0.5c-1.6,0-2.8-0.4-3.5-1.3
		c-0.8-0.9-1.2-2.1-1.2-3.7v-8.9h3.6v8c0,1,0.2,1.7,0.5,2.2c0.3,0.5,0.9,0.7,1.6,0.7c1,0,1.8-0.3,2.2-1c0.5-0.7,0.7-1.9,0.7-3.5
		v-6.5h3.6v13.7H321.7z"/>
	<path class="st10" d="M125.7,129.1c0,1.7-0.6,3-1.7,3.9c-1.2,0.9-2.8,1.3-5,1.3c-1.2,0-2.2-0.1-3.1-0.2c-0.9-0.1-1.7-0.4-2.6-0.7
		V129c0.8,0.4,1.8,0.7,2.8,0.9c1,0.2,1.9,0.4,2.7,0.4c1.2,0,1.8-0.3,1.8-0.8c0-0.3-0.2-0.5-0.5-0.8c-0.3-0.2-1.3-0.7-2.9-1.3
		c-1.4-0.6-2.5-1.3-3-2.1c-0.6-0.8-0.9-1.8-0.9-3c0-1.5,0.6-2.7,1.7-3.5c1.1-0.8,2.7-1.3,4.8-1.3c1,0,2,0.1,2.9,0.4s1.9,0.6,2.9,1
		l-1.5,3.6c-0.7-0.3-1.5-0.6-2.3-0.9s-1.5-0.4-2-0.4c-0.9,0-1.3,0.2-1.3,0.7c0,0.3,0.2,0.5,0.5,0.7c0.3,0.2,1.2,0.6,2.7,1.2
		c1.1,0.5,1.9,0.9,2.5,1.4c0.5,0.4,0.9,1,1.2,1.6C125.6,127.5,125.7,128.3,125.7,129.1z"/>
	<path class="st10" d="M136.4,134.4c-2.6,0-4.7-0.7-6.1-2.2c-1.5-1.4-2.2-3.5-2.2-6.1c0-2.7,0.7-4.8,2-6.3c1.3-1.5,3.3-2.2,5.8-2.2
		c2.4,0,4.2,0.6,5.5,1.9c1.3,1.3,1.9,3.1,1.9,5.5v2.5h-9.7c0,0.9,0.4,1.6,1,2.1c0.6,0.5,1.4,0.8,2.5,0.8c1,0,1.8-0.1,2.6-0.3
		c0.8-0.2,1.7-0.5,2.6-1v4c-0.9,0.4-1.7,0.8-2.6,0.9C138.7,134.3,137.6,134.4,136.4,134.4z M136.1,121.4c-0.6,0-1.2,0.2-1.6,0.6
		s-0.7,1.1-0.8,2h4.7c0-0.8-0.2-1.4-0.6-1.9C137.3,121.6,136.7,121.4,136.1,121.4z"/>
	<path class="st10" d="M154.1,130c0.7,0,1.6-0.2,2.6-0.6v4.1c-0.7,0.3-1.4,0.6-2.1,0.7c-0.7,0.1-1.4,0.2-2.3,0.2
		c-1.8,0-3.2-0.5-4-1.4c-0.8-0.9-1.2-2.3-1.2-4.2v-6.7h-1.9v-2.3l2.4-1.8l1.4-3.4h3.6v3.2h3.9v4.2h-3.9v6.3
		C152.7,129.4,153.1,130,154.1,130z"/>
	<path class="st10" d="M178.2,134.1l-0.7-2h-0.3c-0.5,0.7-1.1,1.3-1.9,1.7c-0.8,0.4-1.8,0.6-2.9,0.6c-1.7,0-3.1-0.5-4.1-1.6
		c-1-1-1.5-2.5-1.5-4.4v-10.6h5.5v8.9c0,1.1,0.1,1.9,0.4,2.4c0.3,0.5,0.8,0.8,1.4,0.8c0.9,0,1.6-0.4,2-1.1c0.4-0.8,0.6-2,0.6-3.8
		v-7.1h5.5v16.2H178.2z"/>
	<path class="st10" d="M195.6,134.4c-0.8,0-1.5-0.1-2.1-0.4c-0.6-0.3-1.3-0.8-1.9-1.5h-0.3c0.2,1.1,0.3,1.8,0.3,2.1v6.5h-5.5v-23.3
		h4.4l0.8,2.1h0.3c1-1.6,2.4-2.3,4.2-2.3c1.7,0,3.1,0.7,4.1,2.2c1,1.5,1.5,3.5,1.5,6.1c0,2.6-0.5,4.7-1.6,6.2
		C198.7,133.6,197.3,134.4,195.6,134.4z M193.7,122c-0.8,0-1.4,0.3-1.7,0.9c-0.3,0.6-0.5,1.5-0.5,2.6v0.4c0,1.4,0.2,2.4,0.5,3
		c0.4,0.6,0.9,0.9,1.7,0.9c0.7,0,1.2-0.3,1.5-0.9s0.5-1.6,0.5-3.1c0-1.4-0.2-2.4-0.5-3C195,122.3,194.5,122,193.7,122z"/>
	<path class="st10" d="M210.7,116.8c0-1.2,0.7-1.8,2-1.8c1.3,0,2,0.6,2,1.8c0,0.6-0.2,1-0.5,1.4s-0.8,0.5-1.5,0.5
		C211.3,118.7,210.7,118.1,210.7,116.8z M214.5,134.1h-3.6v-13.7h3.6V134.1z"/>
	<path class="st10" d="M230.6,134.1H227v-8c0-1-0.2-1.7-0.5-2.2c-0.3-0.5-0.9-0.7-1.6-0.7c-1,0-1.8,0.3-2.2,1
		c-0.5,0.7-0.7,1.9-0.7,3.5v6.5h-3.6v-13.7h2.8l0.5,1.8h0.2c0.4-0.7,1-1.2,1.7-1.5c0.7-0.3,1.5-0.5,2.4-0.5c1.6,0,2.7,0.4,3.5,1.3
		c0.8,0.9,1.2,2.1,1.2,3.7V134.1z"/>
	<path class="st10" d="M246.4,131.4c0.6,0,1.4-0.1,2.3-0.4v2.8c-0.9,0.4-2,0.6-3.3,0.6c-1.5,0-2.5-0.4-3.2-1.1c-0.7-0.8-1-1.9-1-3.4
		v-6.6h-1.7v-1.6l2-1.3l1.1-2.9h2.3v2.9h3.7v2.8h-3.7v6.6c0,0.5,0.1,0.9,0.4,1.2C245.5,131.2,245.9,131.4,246.4,131.4z"/>
	<path class="st10" d="M263.7,134.1H260v-8c0-2-0.7-3-2.2-3c-1,0-1.8,0.4-2.2,1.1c-0.5,0.7-0.7,1.9-0.7,3.5v6.5h-3.6V115h3.6v3.9
		c0,0.3,0,1-0.1,2.1l-0.1,1.1h0.2c0.8-1.3,2.1-2,3.9-2c1.6,0,2.8,0.4,3.6,1.3c0.8,0.9,1.2,2.1,1.2,3.7V134.1z"/>
	<path class="st10" d="M273.5,134.4c-2.2,0-3.8-0.6-5-1.8c-1.2-1.2-1.8-2.9-1.8-5.2c0-2.3,0.6-4.1,1.7-5.3c1.1-1.3,2.7-1.9,4.6-1.9
		c1.9,0,3.4,0.6,4.4,1.7c1.1,1.1,1.6,2.6,1.6,4.6v1.8h-8.6c0,1.1,0.3,1.9,0.9,2.5s1.4,0.9,2.4,0.9c0.8,0,1.6-0.1,2.3-0.3
		c0.7-0.2,1.5-0.4,2.2-0.8v2.9c-0.6,0.3-1.3,0.6-2,0.7C275.4,134.3,274.5,134.4,273.5,134.4z M273,122.8c-0.8,0-1.4,0.3-1.8,0.8
		c-0.4,0.5-0.7,1.2-0.8,2.1h5.1c0-0.9-0.3-1.6-0.7-2.1C274.4,123,273.7,122.8,273,122.8z"/>
	<path class="st10" d="M300.4,127.2c0,2.2-0.6,4-1.7,5.2s-2.7,1.9-4.8,1.9c-1.3,0-2.4-0.3-3.4-0.9s-1.7-1.4-2.3-2.5
		c-0.5-1.1-0.8-2.3-0.8-3.8c0-2.2,0.6-4,1.7-5.2c1.1-1.2,2.7-1.9,4.8-1.9c1.3,0,2.4,0.3,3.4,0.9c1,0.6,1.7,1.4,2.3,2.5
		C300.1,124.5,300.4,125.8,300.4,127.2z M291.2,127.2c0,1.4,0.2,2.4,0.7,3.1s1.1,1,2.1,1c1,0,1.7-0.3,2.1-1c0.4-0.7,0.6-1.7,0.6-3.1
		c0-1.4-0.2-2.4-0.6-3.1c-0.4-0.7-1.1-1-2.1-1c-1,0-1.7,0.3-2.1,1C291.4,124.8,291.2,125.9,291.2,127.2z"/>
	<path class="st10" d="M310.8,123.2h-3.2v10.9H304v-10.9h-2v-1.8l2-1v-1c0-1.6,0.4-2.7,1.1-3.4c0.7-0.7,1.9-1.1,3.6-1.1
		c1.3,0,2.4,0.2,3.4,0.6l-0.9,2.7c-0.7-0.2-1.4-0.4-2-0.4c-0.5,0-0.9,0.2-1.1,0.5c-0.2,0.3-0.3,0.7-0.3,1.2v0.9h3.2V123.2z
		 M320.3,123.2h-3.2v10.9h-3.6v-10.9h-2v-1.8l2-1v-1c0-1.6,0.4-2.7,1.1-3.4s1.9-1.1,3.6-1.1c1.3,0,2.4,0.2,3.4,0.6l-0.9,2.7
		c-0.7-0.2-1.4-0.4-2-0.4c-0.5,0-0.9,0.2-1.1,0.5c-0.2,0.3-0.3,0.7-0.3,1.2v0.9h3.2V123.2z M322.2,116.8c0-1.2,0.7-1.8,2-1.8
		s2,0.6,2,1.8c0,0.6-0.2,1-0.5,1.4c-0.3,0.3-0.8,0.5-1.5,0.5C322.8,118.7,322.2,118.1,322.2,116.8z M326,134.1h-3.6v-13.7h3.6V134.1
		z"/>
	<path class="st10" d="M335.2,134.4c-4.2,0-6.2-2.3-6.2-7c0-2.3,0.6-4.1,1.7-5.3c1.1-1.2,2.8-1.8,4.9-1.8c1.5,0,2.9,0.3,4.2,0.9
		l-1.1,2.9c-0.6-0.2-1.1-0.4-1.6-0.6c-0.5-0.2-1-0.2-1.5-0.2c-1.9,0-2.8,1.4-2.8,4.1c0,2.7,0.9,4,2.8,4c0.7,0,1.4-0.1,1.9-0.3
		s1.2-0.5,1.8-0.9v3.2c-0.6,0.4-1.2,0.7-1.8,0.8C336.9,134.3,336.1,134.4,335.2,134.4z"/>
	<path class="st10" d="M348.4,134.4c-2.2,0-3.8-0.6-5-1.8c-1.2-1.2-1.8-2.9-1.8-5.2c0-2.3,0.6-4.1,1.7-5.3c1.1-1.3,2.7-1.9,4.6-1.9
		c1.9,0,3.4,0.6,4.4,1.7c1.1,1.1,1.6,2.6,1.6,4.6v1.8h-8.6c0,1.1,0.3,1.9,0.9,2.5s1.4,0.9,2.4,0.9c0.8,0,1.6-0.1,2.3-0.3
		c0.7-0.2,1.5-0.4,2.2-0.8v2.9c-0.6,0.3-1.3,0.6-2,0.7C350.3,134.3,349.5,134.4,348.4,134.4z M347.9,122.8c-0.8,0-1.4,0.3-1.8,0.8
		c-0.4,0.5-0.7,1.2-0.8,2.1h5.1c0-0.9-0.3-1.6-0.7-2.1C349.3,123,348.7,122.8,347.9,122.8z"/>
	<path class="st10" d="M358.2,128.2v-0.9c0-0.8,0.2-1.5,0.5-2c0.3-0.6,0.9-1.2,1.8-1.9c0.8-0.6,1.4-1.1,1.7-1.5
		c0.3-0.4,0.4-0.8,0.4-1.3c0-0.5-0.2-0.9-0.6-1.2c-0.4-0.3-0.9-0.4-1.6-0.4c-1.2,0-2.6,0.4-4.1,1.2l-1.3-2.7c1.8-1,3.7-1.5,5.7-1.5
		c1.6,0,2.9,0.4,3.9,1.2c1,0.8,1.5,1.9,1.5,3.2c0,0.9-0.2,1.7-0.6,2.3c-0.4,0.7-1.2,1.4-2.3,2.2c-0.8,0.6-1.2,1-1.5,1.3
		c-0.2,0.3-0.3,0.7-0.3,1.2v0.7H358.2z M357.8,132.3c0-0.7,0.2-1.2,0.5-1.6s0.9-0.5,1.6-0.5c0.7,0,1.2,0.2,1.5,0.5
		c0.4,0.4,0.5,0.9,0.5,1.5c0,0.6-0.2,1.2-0.5,1.5c-0.4,0.4-0.9,0.6-1.5,0.6c-0.7,0-1.2-0.2-1.6-0.5C358,133.5,357.8,133,357.8,132.3
		z"/>
</g>
<g>
	<path class="st11" d="M74.5,347.4L74.5,347.4c-4.9,0-9-4.1-9.1-9.3l-2.1-78.4c0-8.4,6.6-15.3,14.6-15.3l0,0c8,0,14.6,6.9,14.6,15.3
		c2.5,26.3-1.3,56.3-9.3,81.2C82,344.8,78.5,347.4,74.5,347.4z"/>
	<path class="st11" d="M72.2,432.4h-6.5v-91.3c0-5.4,3.8-9.8,8.4-9.8l0,0c4.1,0,7.7,3.5,8.3,8.3C85.8,366.3,82,398,72.2,432.4z"/>
	<path class="st12" d="M72.2,432.4c0,0,26,12.3,19.8,14.6c-0.7,0.3-23.4-3.3-24-3.7c-1.2-0.7-2.1-2.1-2.2-3.7c-0.1-1.4,0-2.9,0-3.9
		l-0.1-3.3H72.2z"/>
	<path class="st11" d="M56,346.3L56,346.3c4.9,0,9-4.2,9.1-9.4l2.1-79.5c0-8.5-6.6-15.5-14.6-15.5l0,0c-8,0-14.6,7-14.6,15.5
		c-2.5,26.6,1.3,57.1,9.3,82.3C48.6,343.6,52.1,346.3,56,346.3z"/>
	<path class="st11" d="M58.3,432.5h6.5v-92.6c0-5.5-3.8-10-8.4-10l0,0c-4.1,0-7.7,3.6-8.3,8.4C44.7,365.4,48.5,397.5,58.3,432.5z"/>
	<path class="st12" d="M58.3,432.4c0,0-26,12.5-19.8,14.8c0.7,0.3,23.4-3.4,24-3.7c1.2-0.8,2.1-2.1,2.2-3.7c0.1-1.4,0-2.9,0-4
		l0.1-3.3H58.3z"/>
	<g>
		<g>
			<path class="st12" d="M84.1,136.2c-3.4-6.5-8.7-11.7-12.1-18.1c-1.5-2.7-1.3-25.6-17.5-28.6c-3.4-0.6-7-0.4-10.4,0.3
				c-3.2,0.6-6.5,1.1-9.3,3c-2.6,1.8-4.8,4.4-6.1,7.4c-1.7,3.8-2,8.2-3.5,12.1c-4.2,10.4-12.4,18.7-15.8,29.5
				c-0.3,0.8-0.5,1.7-0.7,2.5c-1.1,4.7,0.3,10,2.5,14.2c1.3-3,0.7-6.5,2.4-9.6c0.9,8,2,15.6,6.8,22.2c4.7,6.4,10.5,9.4,16.9,13.4
				c-0.5-1.2-0.8-2.3-0.8-3.6c2.5,2.6,7.5,5.2,10.9,4.2c5.2-1.5,9.5-4.9,14-7.4c0,1.3-1.7,3.4-2.5,4.5c6-3.1,13.3-8.4,16.5-14.7
				c3.1-6,3.8-13.4,4.4-20c2.2,2.9,2.6,7,3.6,10.4C86.8,151.9,87.4,142.5,84.1,136.2z"/>
		</g>
	</g>
	<g>
		<g>
			<path class="st13" d="M99.2,274.7l4.5,14.7c0,0,3.2,2.5,1.1-7.6c0,0,7.2,3.5,10.8,8c0.8,1,2,1.8,3.3,1.8c1.8,0.1,3.6-1.1,1.1-7.8
				c0,0-2.7-7.7-14.3-10.3L99.2,274.7z"/>
		</g>
		<path class="st14" d="M89.1,223.2L89.1,223.2c-3.8,0.3-7.2-2.7-7.5-6.7c-2.2-14.7-3.5-28.5-3.2-40.9c-0.3-4,2.5-7.5,6.4-7.9h0
			c8.9,0,10.9,31.6,10.7,47.5C95.8,219.3,92.9,222.9,89.1,223.2z"/>
		<path class="st14" d="M105.6,273.5l-6.3,1.2l-17.2-55.5c-1.3-4.2,1.1-8.6,5.1-9.5l0,0c3.8-0.9,7.6,1.8,8.3,5.9L105.6,273.5z"/>
	</g>
	<path class="st15" d="M80.8,205.1l-0.9,10.6l-0.1,1.3c-0.2,1.9-0.2,3.9-0.1,5.8H53.6v-0.3c0-0.3,0-0.5,0-0.8
		c-0.1-2.1-0.6-4.2-1.6-6c-0.2-0.5-0.5-0.9-0.8-1.4c-12.6-18.3-12-45.5-12-45.5l19.9-8.9h7.2l18.9,7.9
		C89.7,183.3,88.4,195.8,80.8,205.1z"/>
	<path class="st11" d="M87.5,247.5C84.1,259.3,65,278.4,65,278.4c-7.8-18.6-25.4-30.3-25.4-30.3c2.3-5.3,7.4-12.1,10.8-16.4
		c0.2-0.3,0.4-0.6,0.6-0.9c0.1-0.1,0.1-0.1,0.1-0.2c0.2-0.3,0.4-0.6,0.6-0.9c0,0,0,0,0,0c0.2-0.3,0.3-0.6,0.5-0.9
		c0.1-0.1,0.1-0.2,0.1-0.3c0.1-0.2,0.2-0.5,0.3-0.7c0-0.1,0.1-0.2,0.1-0.3c0.1-0.2,0.2-0.5,0.2-0.7c0.2-0.5,0.3-1.1,0.4-1.6
		c0-0.2,0.1-0.5,0.1-0.7c0.1-0.6,0.1-1.1,0.1-1.7h26.1c0,0.5,0.1,1,0.1,1.6c0,0.5,0.1,1,0.2,1.5c0,0.5,0.1,1,0.2,1.5
		c0.1,0.5,0.2,1,0.3,1.4c0.2,1,0.4,1.9,0.7,2.9c0.1,0.3,0.2,0.7,0.3,1c0.1,0.4,0.2,0.8,0.4,1.2c0.2,0.5,0.3,1,0.5,1.4
		c0.2,0.6,0.5,1.3,0.8,1.9L87.5,247.5z"/>
	<path class="st12" d="M53.2,225.9H80c-0.1-1-0.2-2.1-0.3-3.1c-0.1-1.9-0.1-3.8,0.1-5.8l0.1-1.3H52L53.2,225.9z"/>
	<path class="st14" d="M68.3,160c0,0,12.2,64.1,8.8,101.4c-0.7,8.2,3.6,16,10.8,19.3l4.4,2.1c1,0.5,2.1-0.5,1.9-1.6
		c1-24.7-4.6-37.2-12.6-58.4l-0.4-17.7c0,0,14.8-8,5.2-36.9L68.3,160z"/>
	<polygon class="st16" points="68.3,161 80.3,169.2 73.3,180.9 79.4,187.6 75.1,206.1 	"/>
	<path class="st14" d="M57.1,160.7c0,0,15.1,56.5,11,101c-0.6,7-5.3,12.9-11.7,14.9L35,283.4c-0.9,0.3-1.7-0.4-1.7-1.4
		c0.4-19.7,5.7-38.2,16.8-55.3c2.1-3.2,2.2-7.4,0.3-10.8l-8.2-14.7c-1.7-12.6-3.2-24.1-3.6-32.8L57.1,160.7z"/>
	<path class="st16" d="M57.1,160.7c0,0-9.6,11-9,11.2c0.6,0.2,11.8,12.8,11.8,12.8l-4.9,6.5l11,14.9C63.9,190.9,61,175.8,57.1,160.7
		z"/>
	<path class="st17" d="M59.3,165.2H67c0.5,0,1-0.4,1-1v-16.3h-9.7v16.3C58.4,164.8,58.8,165.2,59.3,165.2z"/>
	<path class="st13" d="M79.9,136.3c-1.3,5.5-4.2,11.5-9,14.8c-3,2.1-6.8,2.4-10.2,1.5c-2.1-0.6-4.2-1.7-5.8-3.1
		c-2.3-2.1-4-4.7-5.3-7.4c-0.3-0.6-2.7-8-2.4-8c-1.4,0-3-1-4-2.7c-1.3-2.1-1.1-4.5,0.4-5.2c1-0.5,2.2-0.2,3.4,0.7
		c0.7-10.7,6.2-20.4,13.4-22.6c1-0.3,2-0.5,3-0.5c2.6-0.1,5.2,0.8,7.4,2.3c4,2.7,6.2,7.1,7.8,11.5C80.8,123.4,81.5,130,79.9,136.3z"
		/>
	<path class="st18" d="M60.7,152.6c-2.1-0.6-4.2-1.7-5.8-3.1c-2.3-2.1-4-4.7-5.3-7.4c-0.3-0.6-2.7-8-2.4-8c-1.4,0-3-1-4-2.7
		c-1.3-2.1-1.1-4.5,0.4-5.2c1-0.5,2.2-0.2,3.4,0.7c0.7-10.7,6.2-20.4,13.4-22.6l0.1,1.3C60.4,105.3,42.2,141.1,60.7,152.6z"/>
	<g>
		<g>
			<g>
				<path class="st12" d="M69.5,141.7c0.6,0,0.9-0.1,1-0.1c0.3-0.1,0.5-0.4,0.5-0.7c-0.1-0.3-0.3-0.5-0.7-0.5
					c-0.3,0.1-7.2,1.2-9.2-5.5c-0.1-0.3-0.4-0.5-0.7-0.4c-0.3,0.1-0.5,0.4-0.4,0.7C61.7,141.4,67.3,141.8,69.5,141.7z"/>
			</g>
		</g>
		<path class="st12" d="M59.6,127.9"/>
		<g>
			<g>
				<path class="st12" d="M55.5,124.3c0.2,0,0.4-0.1,0.5-0.3c1.7-3.3,4.8-1.9,4.9-1.9c0.3,0.1,0.6,0,0.8-0.3c0.1-0.3,0-0.6-0.3-0.8
					c-1.4-0.7-4.6-1-6.4,2.4c-0.2,0.3,0,0.6,0.2,0.8C55.3,124.3,55.4,124.3,55.5,124.3z"/>
			</g>
		</g>
		<g>
			<g>
				<path class="st12" d="M71.3,121.6c0.1,0.1,0.3,0.2,0.5,0.1c2.9-1.1,4.1,1.4,4.1,1.5c0.1,0.2,0.4,0.4,0.6,0.2
					c0.2-0.1,0.4-0.4,0.2-0.6c-0.5-1.2-2.4-3.1-5.4-2c-0.3,0.1-0.4,0.4-0.3,0.6C71.2,121.5,71.2,121.6,71.3,121.6z"/>
			</g>
		</g>
		<path class="st12" d="M59,127.6c0,1,0.7,1.8,1.6,1.8c0.9,0,1.6-0.8,1.6-1.7c0-1-0.7-1.8-1.6-1.8C59.8,125.9,59,126.7,59,127.6z"/>
		<path class="st12" d="M71.4,127.6c0,1,0.7,1.8,1.6,1.8c0.9,0,1.6-0.8,1.6-1.7c0-1-0.7-1.8-1.6-1.8
			C72.1,125.9,71.4,126.7,71.4,127.6z"/>
		<g>
			<path class="st12" d="M68.1,135.7C68.1,135.7,68.1,135.7,68.1,135.7c-0.3,0-0.5,0-0.8-0.1c-0.3,0-0.5-0.3-0.5-0.6
				c0-0.3,0.3-0.5,0.6-0.5c0.3,0,0.5,0,0.7,0c0.6,0,1-0.5,1-0.8c0.1-0.4,0-0.9-0.6-1.2c-0.2-0.1-0.3-0.1-0.5-0.2
				c-0.8-0.2-1.3-0.9-1.3-1.7v-1.3c0-0.3,0.3-0.6,0.6-0.6s0.6,0.3,0.6,0.6v1.3c0,0.3,0.2,0.5,0.5,0.6c0.2,0.1,0.4,0.1,0.6,0.2
				c1,0.4,1.5,1.4,1.3,2.4C70.1,134.9,69.3,135.7,68.1,135.7z"/>
		</g>
	</g>
	<path class="st12" d="M49,127.3c1.7-0.5,3.4-1.1,5.1-1.7c7.3-2.8,13.7-6.6,18.4-12.7c3,7.8,7.9,12.1,7.9,12.1
		c3.2,0.5,2.1-8.4,2-9.5c0-0.3,0-0.5-0.1-0.8c-0.7-5.7-4.3-11.2-9.3-14.3c-2.5-1.5-5.3-2.4-8.3-2.6c-8.1-0.4-16.1,4.7-19.7,11.4
		c-1.7,3.1-1.9,6.6-2.2,10c-0.1,1.7-0.2,3.4-0.5,5.1c0,0.1-0.1,0.3-0.1,0.4c-0.2,0.7-0.3,1.5-0.6,2.1c-0.1,0.4-0.4,0.8-0.7,1.2v0
		c-0.2,0.4-0.5,0.8-0.5,1.2c0.3,0,0.6,0,0.9,0c1.4-0.1,2.8-0.5,4.2-0.9c-0.1,1.2,0.2,4.4,0.4,4.4c0.6,4,2,7.6,4,10.5
		C49.3,139.6,48.5,133.2,49,127.3z"/>
	<g>
		<g>
			<path class="st13" d="M26,274.7l-4.5,14.7c0,0-3.2,2.5-1.1-7.6c0,0-7.2,3.5-10.8,8c-0.8,1-2,1.8-3.3,1.8
				c-1.8,0.1-3.6-1.1-1.1-7.8c0,0,2.7-7.7,14.3-10.3L26,274.7z"/>
		</g>
		<path class="st14" d="M36.1,223.2L36.1,223.2c3.8,0.3,7.2-2.7,7.5-6.7c2.2-14.7,3.5-28.5,3.2-40.9c0.3-4-2.5-7.5-6.4-7.9l0,0
			c-8.9,0-10.9,31.6-10.7,47.5C29.5,219.3,32.3,222.9,36.1,223.2z"/>
		<path class="st14" d="M19.6,273.5l6.3,1.2l17.2-55.5c1.3-4.2-1.1-8.6-5.1-9.5l0,0c-3.8-0.9-7.6,1.8-8.3,5.9L19.6,273.5z"/>
	</g>
</g>
<g>
	<g>
		<path class="st19" d="M365.5,273.9c0,0-3,7.2-3.1,8.3s0,8.7-0.8,9.9c-0.8,1.2-2-0.1-2-2.3c0-2.2,0.1-7.8,0.4-8.7
			c0.3-0.9,0.8-4.5,1.2-5.5C361.6,274.5,365.1,270.2,365.5,273.9z"/>
		<path class="st19" d="M361.6,276.3c0.6,1.4-1.2,6-1.1,6.4c0.1,0.4,1.3,5.6,1.5,7.5c0.2,1.8-1.4,1.8-2.2-0.2
			c-0.9-2-1.7-5.8-1.8-6.5c-0.1-0.7-0.3-6.4-0.2-7.9C358.1,274.1,360.8,274.3,361.6,276.3z"/>
		<path class="st19" d="M359.8,275.5c0.6,1.4-0.8,6.2-0.7,6.6c0.1,0.4,2.4,4.6,2.6,6.4c0.2,1.8-1.4,1.8-2.2-0.2
			c-0.9-2-3.2-5.3-3.2-6c-0.1-0.7,0.5-5.9,0.6-7.4C357,273.4,359,273.5,359.8,275.5z"/>
		<path class="st19" d="M366.1,274.1c-0.2,0.7-1.1,2.1-2.2,3.4c-0.4-0.2-0.8-0.3-1.3-0.5c-1.6-0.6-3.2-1-4.8-1.6
			c-0.4-0.1-0.7-0.3-1-0.4c0.5-3.8,3.8-12.3,7.7-9.6C364.6,265.5,366.5,272.6,366.1,274.1z"/>
	</g>
	<path class="st19" d="M364.5,265.4c0,0,3,0.7,3.8,2c0.5,0.9,0.9,6.7,1.1,6.9s-2.2,5.2-2.7,5.8c-0.5,0.6-1.5,0.2-1.7-1.5
		c-0.3-1.8,1.1-4.2,1.1-4.2s-3.3-3-3.7-5.1C361.9,267.3,364.5,265.4,364.5,265.4z"/>
	<g>
		<path class="st19" d="M442.7,280.1c0,0,1.6,8,1.4,9.1c-0.1,1.1-1.8,8.9-1.2,10.3c0.6,1.4,2.1,0.4,2.6-1.9c0.5-2.3,1.5-8,1.4-9
			c-0.2-1,0.1-4.8-0.1-5.9C446.6,281.6,443.9,276.5,442.7,280.1z"/>
		<path class="st19" d="M446.2,283.4c-0.9,1.3,0,6.4-0.2,6.8c-0.2,0.4-2.5,5.4-3.1,7.3c-0.6,1.8,1,2.2,2.3,0.3s3-5.6,3.2-6.3
			c0.2-0.7,1.7-6.5,1.8-8S447.5,281.6,446.2,283.4z"/>
		<path class="st19" d="M448.2,283c-0.9,1.3-0.4,6.5-0.6,6.9c-0.2,0.4-3.4,4.1-4,5.9c-0.6,1.8,1,2.2,2.3,0.3
			c1.3-1.9,4.3-4.7,4.5-5.4s0.8-6.1,0.9-7.6S449.4,281.2,448.2,283z"/>
		<path class="st19" d="M442,280.3c0,0.7,0.7,2.3,1.5,3.9c0.5-0.1,0.9-0.2,1.4-0.2c1.7-0.2,3.5-0.3,5.2-0.5c0.4-0.1,0.8-0.1,1.2-0.2
			c0.2-4-1.3-13.3-5.9-11.5C445.4,271.8,442,278.6,442,280.3z"/>
		<path class="st19" d="M445.5,271.8c0,0-3.2,0.1-4.2,1.2c-0.7,0.8-2.3,6.6-2.6,6.8s1.2,5.8,1.5,6.5s1.4,0.6,2.1-1.2
			s-0.3-4.5-0.3-4.5s4-2.4,4.8-4.4S445.5,271.8,445.5,271.8z"/>
		<g>
			<path class="st19" d="M443.1,275.5c0,0-3.7-24.5-5-37.7c-0.4-3.7-2.1-22.6,0.8-25.9c2.4-2.7,7.3-2.3,8.9,0.3
				c1.6,2.6,4.9,9.6,4.9,12.7c0.3,18.7-1.9,33.7-2.8,49.8C449.6,280.3,443.1,275.5,443.1,275.5z"/>
		</g>
		<g>
			<g>
				<path class="st19" d="M366,269.4c0,0,8.2-22.3,11.9-34.5c1.1-3.4,6.3-20.9,4.2-24.5c-1.7-3-6.4-3.6-8.4-1.5c-2,2.1-6.4,8-7.1,11
					c-3.9,17.6-4.7,32.1-6.9,47.4C359,272.7,366,269.4,366,269.4z"/>
			</g>
		</g>
		<path class="st20" d="M365.9,216.5c0.9-5.1,11.2-42.7,14.2-49.3c1.4-3.2,6.7-7.6,7.1-7.2c4.3,4.1,6.9,22.4,6.8,28.4
			c-0.2,6.7-11.5,34.4-12.4,34.7C376.5,224.4,364.8,222.8,365.9,216.5z"/>
		<path class="st10" d="M437.1,166.1l-6.5-51.6c-1.3-7.6-10.1-11-17.6-9.7l-15.3,2.7c-7.4,1.3-12.5,8.6-11.2,16.3l8.3,49.8
			C396,181.2,438.4,173.8,437.1,166.1z"/>
		<path class="st19" d="M390.6,247.8c8.2,6.6,15.2,13.5,16.6,22.6c1.4,9.1,0.8,22.5,0.1,31.4c-1.1,13.3-1.8,26-3,38.5
			c-0.9,8.9-16.8,6-17.9-1.1c-3.7-23.3-1.3-46-4-69.3C381.5,262.7,384.6,242.9,390.6,247.8z"/>
		<polygon class="st21" points="447.4,416.9 445.9,417.9 444,416.9 444.9,415.1 		"/>
		<path class="st19" d="M397.1,334.8c0,0,17.3,10.6,23.1,18.1c5.8,7.5,21.3,44.3,25.1,50.6c0,0-4.8,3.9-7.9,5.5
			c0,0-29.3-37.7-31.2-40.7c-1.9-3-16.1-19.1-19.2-26.1C383.9,335.4,392.5,330.9,397.1,334.8z"/>
		<path class="st22" d="M399.7,360.2c0.2-0.8,1.9-15.7,2.3-22.2c5.6,3.7,14.4,10,18.2,15c0.5,0.6,1,1.4,1.6,2.3
			c-0.6,1.1-0.9,3.7-1.1,4.9c-1.9,9.4-1.8,17.2-0.6,26.3c-6.7-8.7-12.9-16.8-13.8-18.2C405.4,367.2,402.7,364,399.7,360.2z"/>
		<path class="st19" d="M433.9,404c3.4,5,1.1,7.6,3.9,11.9c1.8,2.8,5.1,9.5,5.2,12.7c0,0.8,1,1.5,1.2,2.3c0.2,0.8,1,1.6,1.8,1.5
			c0.7-0.1,1.1-0.9,1.4-1.6c1.3-3.5,3-7.3,2.1-10.9c-0.5-1.8-0.3-13.2-1.6-15.2c-1.3-2-3.5-3.3-5.9-3.4L433.9,404z"/>
		<polygon class="st21" points="454.1,419.8 453.1,420.2 449,416.3 449.8,413.1 		"/>
		<polygon class="st23" points="450.1,407.6 454.1,417.5 454.1,419.8 451.2,415.5 		"/>
		<path class="st23" d="M447.6,422.2c1-2.5,0.7-8.9,0.7-8.9s0.2-4.9-2.1-9.1l-2-2.4c0,0,3.5-1.1,6.3,3.3c2.8,4.4,1.3,12.4,0.5,15.1
			c0,0,4.6,8.9,4.7,10.1c0.2,1.2-0.8,5.3-2.4,9.2c-1.6,3.9-10.7,4.4-10.8,2.3c-0.5-10.4-1.6-16.8-0.2-16.5
			C442.4,425.2,446.6,424.7,447.6,422.2z"/>
		<path class="st19" d="M415.9,257.2c5,12.2,16,28.7,15.1,36.6s-10.9,32.9-16.3,49.4c0,0-6.2,3.7-11.9,0.8l-1.1-41.7
			c0,0-0.3-33.4-0.8-37.7S415.9,257.2,415.9,257.2z"/>
		<path class="st19" d="M415.4,334.2c0,0,5.4,15.6,5.1,24.9c-0.3,9.4-17.1,54.5-18.2,61.7c0,0-9.7,1.8-9.4,0
			c0.3-1.8,7.3-47.7,7.6-51.1c0.4-3.5,2.2-35.9,2.2-35.9S414.4,328.4,415.4,334.2z"/>
		<path class="st19" d="M394.8,162.8c-0.1,5.4,9.4,27,14.5,27c5.2,0.1,14.8-21.2,14.9-26.6c0.1-5.4-6.5-4.6-14.6-4.7
			C401.5,158.4,394.9,157.3,394.8,162.8z"/>
		<g>
			<path class="st19" d="M409.3,173.2L409.3,173.2c5.5,0.1,12.1-4,12.2-10.1l-4.3-17.9c0.1-6-14.8-6.2-14.9-0.2l-4.9,17.7
				C397.4,168.8,403.8,173.1,409.3,173.2z"/>
		</g>
		<g>
			<path class="st24" d="M416.6,154.6c-7,2.3-11.1,2-15.9-3.7l1.6-6c0.1-6,14.9-5.7,14.9,0.2l3.3,13.7
				C419.5,156.3,419.3,153.8,416.6,154.6z"/>
		</g>
		<path class="st25" d="M428.2,229.3c-0.2,1,6.2,14,6,15c0,0-24.6,3.4-31.4,3.3c-6.8-0.1-20.3-4.1-20.3-4.1
			c-0.2-1,6.6-13.8,6.4-14.8c0,0-1.9-22.1-2.5-25.9c-0.6-4-3.6-15.3-1.4-26.3c0,0,0.7-10.5,1.4-14.8c4.8-5.2,6.8-5.3,13.5-7.4
			c0,0-1.1,4.6-1.4,9.9c-0.3,5.3,4.4,13.3,5.9,13.3s14.2-7.1,15.1-13.4c0.8-5.7,0.3-9.5,0.3-9.5c6.5,2.3,12,3.6,16.6,8.9
			c0.5,4.4-0.9,13.9-0.9,13.9c2,9.2-3.2,22.3-3.9,26.2C430.8,207.2,428.2,229.3,428.2,229.3z"/>
		<path class="st19" d="M391.5,139.4c-1.6-0.7-3.1-1.5-4.5-2.7s-2.4-2.8-2.8-4.7s0.3-4.1,1.7-5.2c1.4-1.1,3.4-0.6,4.4,0.9
			C391,128.5,392.5,139.8,391.5,139.4z"/>
		<path class="st19" d="M420,141.9c1.8-0.5,3.7-0.9,5.4-1.8c1.7-0.9,3.2-2.3,3.9-4.1c0.7-1.8,0.4-4.1-1-5.4
			c-1.4-1.3-3.6-1.2-5.1,0.1C422.5,131.3,418.9,142.2,420,141.9z"/>
		<path class="st19" d="M406.9,100.5c0.3,0,3.3,0.3,3.6,0.3c9.5,1.3,18.3,3.7,15.6,18.9c0,0-2.9,17.4-4,20.7
			c-0.6,1.7-1.8,3.2-2.9,4.6c-1.7,2.1-3.5,3.9-5.6,5.5c-2.6,2-5.6,3.6-8.8,3.3c-3-0.3-5.2-1.3-7.3-3.2c-2.1-1.8-3.9-4.1-5.4-6.5
			c-1.1-1.8-2.3-3.8-2.9-5.9c-0.1-0.2-0.1-0.5-0.2-0.8c-0.5-3.5-0.6-21.1-0.6-21.1C388.3,101,397.4,100.2,406.9,100.5z"/>
		<path class="st22" d="M404.4,153c7,0.3,13.2-5.9,15.8-12.2c0.9-2.2,1.8-6.5,1.6-8.7c-0.4-3.6-6.2-12.4-10.1-16.1
			c-3.9-3.6-8.1-5.4-12.8-6.2c-3-0.5-5.1,8.6-10.4,6.6c0,0,0,0,0,0c-0.1-15.4,9-16.3,18.5-15.9c0.3,0,3.3,0.3,3.6,0.3
			c9.5,1.3,18.3,3.7,15.6,18.9c0,0-2.9,17.4-4,20.7c-0.6,1.7-1.8,3.2-2.9,4.6c-1.7,2.1-3.5,3.9-5.6,5.5c-2.6,2-5.6,3.6-8.8,3.3
			c-3-0.3-5.2-1.3-7.3-3.2c-0.9-0.8-1.8-1.7-2.6-2.7C399.1,151.9,403.4,153.1,404.4,153z"/>
		<g>
			<path class="st26" d="M403.8,126.5c0,0-2.5,6.3-2.3,7.5c0.5,2,3.6,1.6,3.6,1.6s-2-0.9-1.9-2.4
				C403.4,131.9,403.8,126.5,403.8,126.5z"/>
		</g>
		<path class="st10" d="M416.7,123c0,0-0.1-0.1-0.1-0.1c-1.7-1.8-3.7-2.6-5.9-2.2c-0.2,0-0.4,0.1-0.6,0.3c-0.3,0.5-0.4,1-0.5,1.9
			c2.6-1,5-0.7,7.2,1c0.1-0.3,0.1-0.3,0-0.5C416.8,123.2,416.8,123.1,416.7,123z"/>
		<path class="st10" d="M392.5,120.9c0,0,0.1-0.1,0.1-0.1c2-1.5,4.1-1.9,6.2-1.1c0.2,0.1,0.4,0.2,0.5,0.4c0.3,0.5,0.3,1.1,0.2,1.9
			c-2.4-1.4-4.9-1.5-7.3-0.3c-0.1-0.3,0-0.3,0.1-0.5C392.3,121,392.4,120.9,392.5,120.9z"/>
		<path class="st27" d="M410.5,127c0.1-1.1,1-2,2-1.9c1,0.1,1.7,1.1,1.6,2.2c0,0.1,0,0.4,0,0.5l-0.1,1.7c-0.1,1.1-1,1.5-1.9,1.4
			c-0.9-0.1-1.8-0.6-1.7-1.7l0.1-1.7C410.5,127.5,410.5,127.1,410.5,127z"/>
		<path class="st28" d="M411.2,127c0,0.1,0.1,0.2,0.1,0.2c0.1,0,0.2-0.1,0.2-0.2c0-0.1-0.1-0.2-0.1-0.2
			C411.3,126.8,411.2,126.9,411.2,127z"/>
		<path class="st27" d="M394,125.6c0.1-1.1,1-2,2-1.9s1.7,1.1,1.6,2.2c0,0.1,0,0.4,0,0.5l-0.1,1.7c-0.1,1.1-1,1.5-1.9,1.4
			c-0.9-0.1-1.8-0.6-1.7-1.7l0.1-1.7C394,126,394,125.7,394,125.6z"/>
		<path class="st28" d="M394.7,125.5c0,0.1,0.1,0.2,0.1,0.2c0.1,0,0.2-0.1,0.2-0.2c0-0.1-0.1-0.2-0.1-0.2
			C394.8,125.4,394.7,125.4,394.7,125.5z"/>
		<path class="st28" d="M410.5,138.6c0,0-4.6,0.4-7.3,0.1c-2.7-0.4-7.5-1.3-7.5-1.3c-0.5,0,1.6,7.5,6.7,8
			C407.6,145.8,410.9,138.6,410.5,138.6z"/>
		<path class="st10" d="M428,130.2c0,0-2.5,1.6-5.3-0.3c-1.7-1.2-3-2.8-4.1-4.7c-1.8-3.2-3.4-6.6-5.6-9.6c-2.2-3-5.1-5.6-8.6-6.6
			c-2.8-0.8-6-0.3-8.3,1.4c-0.7,2.4-1.4,4.8-2,7.2c-0.5,1.9-2.1,5.5-3.3,7c-1.3,1.5-3.3,2.4-5,1.5c0,0-1.9-24.4,10.8-24.7
			c0,0,2.2-3.2,8.2-4.6c7.8-1.9,24.4,0.4,25.8,15.5C431.4,123.6,428,130.2,428,130.2z"/>
		<path class="st20" d="M451.9,218.7c0.3-5-11.8-47.6-13.9-54.3c-0.3-0.8-0.6-1.8-1.1-2.5c-0.3-0.5-3.7-2-4.1-1.6
			c-4.5,4.3-10.9,23.6-10.7,29.8c0.2,6.9,12.7,35.4,13.7,35.7C441,227.2,451.5,225.4,451.9,218.7z"/>
		<path class="st21" d="M399.5,422.3c0,0,4.6,2.9,3.7,8.9l0.1,12.6h-2.9L399.5,422.3z"/>
		<path class="st23" d="M395.4,422.8c0,0-3,1.9-4.2,4.5c-1.2,2.6-7.4,15.4-8.2,17.1c-0.9,2-1.9,6,2.5,6c4.4,0,7,0,10.5,0
			c3.5,0,5.2-2.9,5.2-6.5c0-3.6,2.9-19.1,2.1-21.1C402.3,420.8,395.4,422.8,395.4,422.8z"/>
		<path class="st19" d="M394.3,416.5c-0.7,2-2.3,6.6-2.3,9.3c0,2.6-4.5,11.5-5.5,14.3c-1,2.8,7.3,4.2,10.1,1.6s4.2-9.1,5.3-12
			c1.1-2.8,1.7-7.4,0.8-10.4C401.7,416.4,394.9,414.5,394.3,416.5z"/>
		<path class="st20" d="M386.4,234.2c0,0-8.8,14.9-8.4,26.7c0.3,10.1,3.8,75.6,3.8,75.6s36.7,3.4,38.8-0.4
			c2.2-4,11.3-41.8,14.5-56.9c3.2-15.1,2.5-36.5-4.5-43.7C423.6,228.3,386.4,234.2,386.4,234.2z"/>
		<path class="st29" d="M430.6,235.5c7,7.2,7.7,28.6,4.5,43.7c-3.2,15.1-12.3,52.9-14.5,56.9c-0.8,1.4-6.5,1.8-13.2,1.8
			c11.4-6.4,27.3-63.2,23.4-82.9c-1.2-6-45.7-4-50.7-1.9c-0.7,0.3-1.1,1.1-1.6,1.8c1.8-10.3,7.9-20.7,7.9-20.7
			S423.6,228.3,430.6,235.5z"/>
		<path class="st20" d="M437,248l-29.5,2.8c-1.4,0.1-2.7-0.8-3-2.1l-1.6-5.9l-1.9,5.9c-0.4,1.3-1.7,2.2-3.1,2l-18.7-3
			c-0.2-0.8,7.3-19.9,7.5-29.9c0-2-0.3-7.8-2.2-14.7c-1.4-4.9-4.5-7-4.8-12.2c-0.4-7.4,3.6-12,4.6-15.4c0,0,0.3-10.3,1-14.7
			c4.9-5.2,7.8-4.8,14.4-6.9c0,0-2,6.8-2.2,10c-0.1,3.2,0.2,44.6,5.7,44.6c4,0,16.3-39.1,16.7-44.1c0.3-3.9-0.6-10.1-0.6-10.1
			c6.5,2.3,12.4,3.2,17.1,8.6c0.6,4.4,0,14,0,14c0.6,14.6-1.6,22.2-3.2,27.1c-2.2,7.1-2.9,13-2.9,15
			C430.3,230.3,437.3,247.2,437,248z"/>
		<path class="st29" d="M386.8,217.8c0-2-0.3-7.8-2.2-14.7c-1.4-4.9-4.5-7-4.8-12.2c-0.4-7,3.1-11.4,4.4-14.7c0.5,2.1-2.3,6-2.8,8.2
			c-3,10.7,4.6,18.7,8.6,28.3c0.7,1.8-4,28.6-5.4,35.9l-5.1-0.8C379.1,246.9,386.7,227.8,386.8,217.8z"/>
		<path class="st29" d="M429.1,238.3c-1.6-8.3-4.7-15.9-2.6-24.4c2.5-9.9,6.7-18.4,9.1-28.4c0.3-1.3,0.7-2.6,1-3.8
			c0,11.6-1.9,18-3.3,22.4c-2.2,7.1-2.9,13-2.9,15c-0.2,11.2,6.8,28,6.6,28.8l-8.3,0.8C429.5,245.4,429.8,242,429.1,238.3z"/>
	</g>
</g>
<g>
	
		
</g>
<g>
	<path d="M160.9,353.9l-1.3-4.3h-6.4l-1.3,4.3h-4l6.2-18h4.5l6.2,18H160.9z M158.7,346.5c-1.2-3.9-1.8-6.1-2-6.6
		c-0.1-0.5-0.3-0.9-0.3-1.2c-0.3,1-1,3.6-2.3,7.8H158.7z"/>
	<path d="M192.5,353.9v-8.8c0-1.1-0.1-1.9-0.4-2.5s-0.8-0.8-1.4-0.8c-0.8,0-1.4,0.4-1.8,1.1c-0.4,0.7-0.6,1.9-0.6,3.5v7.6h-5.5v-8.8
		c0-1.1-0.1-1.9-0.4-2.5c-0.3-0.5-0.7-0.8-1.4-0.8c-0.9,0-1.5,0.4-1.9,1.2c-0.4,0.8-0.6,2.1-0.6,3.8v7.1h-5.5v-16.2h4.1l0.7,2h0.3
		c0.4-0.7,1-1.3,1.8-1.7c0.8-0.4,1.7-0.6,2.7-0.6c2.3,0,3.9,0.7,4.8,2.1h0.4c0.4-0.7,1.1-1.2,1.9-1.6c0.8-0.4,1.7-0.6,2.6-0.6
		c1.9,0,3.2,0.5,4.1,1.5c0.9,1,1.3,2.5,1.3,4.5v10.6H192.5z"/>
	<path d="M209.3,354.2c-2.6,0-4.7-0.7-6.1-2.2c-1.5-1.4-2.2-3.5-2.2-6.1c0-2.7,0.7-4.8,2-6.3s3.3-2.2,5.8-2.2c2.4,0,4.2,0.6,5.5,1.9
		c1.3,1.3,1.9,3.1,1.9,5.5v2.5h-9.7c0,0.9,0.4,1.6,1,2.1c0.6,0.5,1.4,0.8,2.5,0.8c1,0,1.8-0.1,2.6-0.3c0.8-0.2,1.7-0.5,2.6-1v4
		c-0.9,0.4-1.7,0.8-2.6,0.9C211.6,354.1,210.5,354.2,209.3,354.2z M208.9,341.2c-0.6,0-1.2,0.2-1.6,0.6s-0.7,1.1-0.8,2h4.7
		c0-0.8-0.2-1.4-0.6-1.9S209.6,341.2,208.9,341.2z"/>
	<path d="M226.9,354.2c-2.6,0-4.7-0.7-6.1-2.2c-1.5-1.4-2.2-3.5-2.2-6.1c0-2.7,0.7-4.8,2-6.3s3.3-2.2,5.8-2.2c2.4,0,4.2,0.6,5.5,1.9
		c1.3,1.3,1.9,3.1,1.9,5.5v2.5h-9.7c0,0.9,0.4,1.6,1,2.1c0.6,0.5,1.4,0.8,2.5,0.8c1,0,1.8-0.1,2.6-0.3c0.8-0.2,1.7-0.5,2.6-1v4
		c-0.9,0.4-1.7,0.8-2.6,0.9C229.3,354.1,228.2,354.2,226.9,354.2z M226.6,341.2c-0.6,0-1.2,0.2-1.6,0.6s-0.7,1.1-0.8,2h4.7
		c0-0.8-0.2-1.4-0.6-1.9S227.3,341.2,226.6,341.2z"/>
	<path d="M244.7,349.8c0.7,0,1.6-0.2,2.6-0.6v4.1c-0.7,0.3-1.4,0.6-2.1,0.7c-0.7,0.1-1.4,0.2-2.3,0.2c-1.8,0-3.2-0.5-4-1.4
		s-1.2-2.3-1.2-4.2v-6.7h-1.9v-2.3l2.4-1.8l1.4-3.4h3.6v3.2h3.9v4.2h-3.9v6.3C243.2,349.3,243.7,349.8,244.7,349.8z"/>
	<path d="M250,333.7c0-0.8,0.2-1.5,0.7-1.9c0.5-0.4,1.2-0.6,2.2-0.6c1,0,1.8,0.2,2.2,0.6c0.5,0.4,0.7,1,0.7,1.9c0,1.6-1,2.5-2.9,2.5
		C250.9,336.1,250,335.3,250,333.7z M255.5,353.9h-5.5v-16.2h5.5V353.9z"/>
	<path d="M269.3,353.9v-8.8c0-1.1-0.2-1.9-0.5-2.4c-0.3-0.5-0.8-0.8-1.5-0.8c-0.9,0-1.6,0.4-2,1.1s-0.6,2-0.6,3.9v7.1h-5.5v-16.2
		h4.1l0.7,2h0.3c0.5-0.8,1.1-1.3,1.9-1.7c0.8-0.4,1.8-0.6,2.8-0.6c1.7,0,3.1,0.5,4.1,1.6c1,1,1.5,2.5,1.5,4.4v10.6H269.3z"/>
	<path d="M293.4,337.7v2.7l-2.2,0.8c0.3,0.6,0.4,1.2,0.4,1.9c0,1.7-0.6,3.1-1.8,4.1c-1.2,1-3,1.4-5.3,1.4c-0.6,0-1.1,0-1.4-0.1
		c-0.1,0.2-0.2,0.5-0.2,0.7c0,0.3,0.2,0.5,0.7,0.6c0.4,0.1,1,0.2,1.7,0.2h2.6c3.5,0,5.3,1.5,5.3,4.6c0,2-0.8,3.5-2.5,4.6
		c-1.6,1.1-3.9,1.6-6.9,1.6c-2.2,0-4-0.4-5.2-1.2c-1.2-0.8-1.8-1.9-1.8-3.3c0-1.9,1.2-3.2,3.5-3.8c-0.5-0.2-0.9-0.5-1.3-1
		s-0.5-0.9-0.5-1.4c0-0.5,0.1-1,0.4-1.3c0.3-0.4,0.8-0.8,1.7-1.4c-0.8-0.4-1.5-1-1.9-1.7c-0.5-0.8-0.7-1.8-0.7-2.9
		c0-1.8,0.6-3.1,1.8-4.1c1.2-1,2.8-1.5,5-1.5c0.3,0,0.8,0,1.5,0.1c0.7,0.1,1.2,0.1,1.6,0.2H293.4z M281.5,355.9
		c0,0.5,0.2,0.8,0.7,1.1s1.1,0.4,1.9,0.4c1.3,0,2.4-0.2,3.2-0.5s1.2-0.8,1.2-1.3c0-0.4-0.2-0.7-0.7-0.9s-1.2-0.3-2.1-0.3h-2.1
		c-0.6,0-1.1,0.1-1.5,0.4S281.5,355.5,281.5,355.9z M283.2,343c0,1.7,0.6,2.5,1.7,2.5c0.5,0,0.9-0.2,1.2-0.6c0.3-0.4,0.4-1,0.4-1.8
		c0-1.7-0.5-2.5-1.6-2.5C283.8,340.5,283.2,341.4,283.2,343z"/>
	<path d="M312.7,337.4c0.5,0,0.9,0,1.4,0.1l0.3,0.1l-0.5,5.3c-0.4-0.1-1.1-0.2-1.9-0.2c-1.2,0-2.1,0.3-2.6,0.8
		c-0.5,0.6-0.8,1.4-0.8,2.4v8h-5.5v-16.2h4.1l0.9,2.6h0.3c0.5-0.9,1.1-1.6,1.9-2.1C311.1,337.7,311.9,337.4,312.7,337.4z"/>
	<path d="M331.7,345.8c0,2.7-0.7,4.7-2.1,6.2c-1.4,1.5-3.3,2.2-5.8,2.2c-2.4,0-4.3-0.8-5.7-2.3c-1.4-1.5-2.1-3.6-2.1-6.2
		c0-2.6,0.7-4.7,2.1-6.2s3.3-2.2,5.8-2.2c1.6,0,2.9,0.3,4.1,1s2.1,1.6,2.8,2.9C331.4,342.6,331.7,344.1,331.7,345.8z M321.4,345.8
		c0,1.4,0.2,2.5,0.5,3.2c0.4,0.7,1,1.1,1.8,1.1c0.8,0,1.4-0.4,1.8-1.1c0.3-0.7,0.5-1.8,0.5-3.2c0-1.4-0.2-2.4-0.5-3.1
		c-0.4-0.7-1-1.1-1.8-1.1c-0.8,0-1.4,0.4-1.8,1.1S321.4,344.4,321.4,345.8z"/>
	<path d="M349.9,345.8c0,2.7-0.7,4.7-2.1,6.2c-1.4,1.5-3.3,2.2-5.8,2.2c-2.4,0-4.3-0.8-5.7-2.3c-1.4-1.5-2.1-3.6-2.1-6.2
		c0-2.6,0.7-4.7,2.1-6.2s3.3-2.2,5.8-2.2c1.6,0,2.9,0.3,4.1,1s2.1,1.6,2.8,2.9C349.5,342.6,349.9,344.1,349.9,345.8z M339.6,345.8
		c0,1.4,0.2,2.5,0.5,3.2c0.4,0.7,1,1.1,1.8,1.1c0.8,0,1.4-0.4,1.8-1.1c0.3-0.7,0.5-1.8,0.5-3.2c0-1.4-0.2-2.4-0.5-3.1
		c-0.4-0.7-1-1.1-1.8-1.1c-0.8,0-1.4,0.4-1.8,1.1S339.6,344.4,339.6,345.8z"/>
	<path d="M372.4,353.9v-8.8c0-1.1-0.1-1.9-0.4-2.5s-0.8-0.8-1.4-0.8c-0.8,0-1.5,0.4-1.8,1.1c-0.4,0.7-0.6,1.9-0.6,3.5v7.6h-5.5v-8.8
		c0-1.1-0.1-1.9-0.4-2.5c-0.3-0.5-0.7-0.8-1.4-0.8c-0.9,0-1.5,0.4-1.9,1.2c-0.4,0.8-0.6,2.1-0.6,3.8v7.1H353v-16.2h4.1l0.7,2h0.3
		c0.4-0.7,1-1.3,1.8-1.7c0.8-0.4,1.7-0.6,2.7-0.6c2.3,0,3.9,0.7,4.8,2.1h0.4c0.4-0.7,1.1-1.2,1.9-1.6s1.7-0.6,2.6-0.6
		c1.9,0,3.2,0.5,4.1,1.5c0.9,1,1.3,2.5,1.3,4.5v10.6H372.4z"/>
	<path d="M169.5,377.2c0,2.2-0.6,4-1.7,5.2c-1.1,1.3-2.7,1.9-4.8,1.9c-1.3,0-2.4-0.3-3.4-0.9c-1-0.6-1.7-1.4-2.3-2.5
		c-0.5-1.1-0.8-2.3-0.8-3.8c0-2.2,0.6-4,1.7-5.2c1.1-1.2,2.7-1.9,4.8-1.9c1.3,0,2.4,0.3,3.4,0.9s1.7,1.4,2.3,2.5
		C169.2,374.5,169.5,375.8,169.5,377.2z M160.3,377.2c0,1.4,0.2,2.4,0.7,3.1s1.1,1,2.1,1c1,0,1.7-0.3,2.1-1s0.6-1.7,0.6-3.1
		c0-1.4-0.2-2.4-0.6-3.1c-0.4-0.7-1.1-1-2.1-1c-1,0-1.7,0.3-2.1,1S160.3,375.8,160.3,377.2z"/>
	<path d="M180,370.1c0.5,0,0.9,0,1.2,0.1l-0.3,3.5c-0.3-0.1-0.7-0.1-1.1-0.1c-1.2,0-2.1,0.3-2.7,0.9s-1,1.5-1,2.6v7h-3.6v-13.7h2.8
		l0.5,2.3h0.2c0.4-0.8,1-1.4,1.7-1.9C178.4,370.3,179.1,370.1,180,370.1z"/>
	<path d="M198.5,384.1l-0.7-1.9h-0.1c-0.6,0.8-1.2,1.3-1.9,1.7c-0.6,0.3-1.5,0.5-2.5,0.5c-1.3,0-2.3-0.4-3-1.1
		c-0.7-0.8-1.1-1.8-1.1-3.2c0-1.5,0.5-2.5,1.5-3.2c1-0.7,2.5-1.1,4.5-1.1l2.3-0.1v-0.6c0-1.4-0.7-2.1-2.1-2.1c-1.1,0-2.3,0.3-3.8,1
		l-1.2-2.5c1.5-0.8,3.2-1.2,5.1-1.2c1.8,0,3.2,0.4,4.1,1.2s1.4,2,1.4,3.7v9.1H198.5z M197.4,377.7l-1.4,0c-1.1,0-1.8,0.2-2.4,0.6
		c-0.5,0.4-0.8,0.9-0.8,1.6c0,1.1,0.6,1.6,1.8,1.6c0.8,0,1.5-0.2,2-0.7c0.5-0.5,0.8-1.2,0.8-2V377.7z"/>
	<path d="M217.1,384.1h-3.6v-8c0-1-0.2-1.7-0.5-2.2c-0.3-0.5-0.9-0.7-1.6-0.7c-1,0-1.8,0.3-2.2,1c-0.5,0.7-0.7,1.9-0.7,3.5v6.5h-3.6
		v-13.7h2.8l0.5,1.8h0.2c0.4-0.7,1-1.2,1.7-1.5c0.7-0.3,1.5-0.5,2.4-0.5c1.6,0,2.7,0.4,3.5,1.3c0.8,0.9,1.2,2.1,1.2,3.7V384.1z"/>
	<path d="M233.3,384.3c-2.2,0-3.8-0.6-5-1.8s-1.8-2.9-1.8-5.2c0-2.3,0.6-4.1,1.7-5.3c1.1-1.3,2.7-1.9,4.6-1.9c1.9,0,3.4,0.6,4.4,1.7
		c1.1,1.1,1.6,2.6,1.6,4.6v1.8h-8.6c0,1.1,0.3,1.9,0.9,2.5c0.6,0.6,1.4,0.9,2.4,0.9c0.8,0,1.6-0.1,2.3-0.3c0.7-0.2,1.5-0.4,2.2-0.8
		v2.9c-0.6,0.3-1.3,0.6-2,0.7C235.2,384.2,234.3,384.3,233.3,384.3z M232.7,372.8c-0.8,0-1.4,0.3-1.8,0.8c-0.4,0.5-0.7,1.2-0.8,2.1
		h5.1c0-0.9-0.3-1.6-0.7-2.1S233.5,372.8,232.7,372.8z"/>
	<path d="M253.6,384.1H250v-8c0-1-0.2-1.7-0.5-2.2c-0.3-0.5-0.8-0.7-1.5-0.7c-0.9,0-1.6,0.4-2,1.1c-0.4,0.7-0.6,1.9-0.6,3.5v6.5
		h-3.6v-13.7h2.8l0.5,1.8h0.2c0.4-0.6,0.9-1.1,1.6-1.5c0.7-0.4,1.5-0.5,2.3-0.5c2,0,3.4,0.7,4.1,2h0.3c0.4-0.6,0.9-1.1,1.6-1.5
		s1.5-0.5,2.4-0.5c1.5,0,2.7,0.4,3.4,1.2c0.8,0.8,1.2,2.1,1.2,3.8v8.9h-3.7v-8c0-1-0.2-1.7-0.5-2.2c-0.3-0.5-0.8-0.7-1.5-0.7
		c-0.9,0-1.6,0.3-2,1c-0.4,0.7-0.7,1.7-0.7,3.1V384.1z"/>
	<path d="M273,384.3c-1.6,0-2.8-0.6-3.7-1.8h-0.2c0.1,1.1,0.2,1.8,0.2,2v5.6h-3.6v-19.8h3l0.5,1.8h0.2c0.9-1.4,2.1-2,3.8-2
		c1.6,0,2.8,0.6,3.7,1.9c0.9,1.3,1.3,3,1.3,5.2c0,1.5-0.2,2.7-0.6,3.8c-0.4,1.1-1,1.9-1.8,2.5C275,384,274.1,384.3,273,384.3z
		 M272,373.1c-0.9,0-1.6,0.3-2,0.9c-0.4,0.6-0.6,1.5-0.6,2.8v0.4c0,1.5,0.2,2.5,0.6,3.2c0.4,0.6,1.1,1,2,1c1.6,0,2.4-1.4,2.4-4.1
		c0-1.3-0.2-2.4-0.6-3S272.8,373.1,272,373.1z"/>
	<path d="M286.8,381.3c0.6,0,1.4-0.1,2.3-0.4v2.8c-0.9,0.4-2,0.6-3.3,0.6c-1.5,0-2.5-0.4-3.2-1.1s-1-1.9-1-3.4v-6.6h-1.7v-1.6l2-1.3
		l1.1-2.9h2.3v2.9h3.7v2.8h-3.7v6.6c0,0.5,0.1,0.9,0.4,1.2C285.9,381.2,286.3,381.3,286.8,381.3z"/>
	<path d="M289.9,370.4h4l2.5,7.7c0.2,0.7,0.4,1.5,0.4,2.4h0.1c0.1-0.8,0.3-1.6,0.5-2.4l2.5-7.7h3.9l-5.7,15.5
		c-0.5,1.4-1.3,2.5-2.2,3.2s-2.1,1.1-3.4,1.1c-0.6,0-1.2-0.1-1.9-0.2v-3c0.4,0.1,0.9,0.2,1.4,0.2c0.6,0,1.2-0.2,1.7-0.6
		c0.5-0.4,0.9-1,1.1-1.8l0.2-0.7L289.9,370.4z"/>
	<path d="M321.4,380c0,1.4-0.5,2.5-1.4,3.2c-1,0.7-2.4,1.1-4.3,1.1c-1,0-1.8-0.1-2.5-0.2c-0.7-0.1-1.3-0.3-1.9-0.6v-3.1
		c0.7,0.3,1.4,0.6,2.3,0.8c0.8,0.2,1.6,0.3,2.2,0.3c1.3,0,2-0.4,2-1.2c0-0.3-0.1-0.5-0.3-0.7c-0.2-0.2-0.5-0.4-0.9-0.6
		c-0.4-0.2-1-0.5-1.7-0.8c-1-0.4-1.8-0.9-2.3-1.2c-0.5-0.4-0.8-0.8-1.1-1.3c-0.2-0.5-0.3-1.1-0.3-1.8c0-1.2,0.5-2.2,1.4-2.8
		c0.9-0.7,2.2-1,3.9-1c1.6,0,3.2,0.4,4.7,1.1l-1.1,2.7c-0.7-0.3-1.3-0.5-1.9-0.7c-0.6-0.2-1.2-0.3-1.8-0.3c-1.1,0-1.6,0.3-1.6,0.9
		c0,0.3,0.2,0.6,0.5,0.9c0.3,0.2,1.1,0.6,2.3,1.1c1,0.4,1.8,0.8,2.3,1.2c0.5,0.4,0.8,0.8,1.1,1.3C321.3,378.7,321.4,379.3,321.4,380
		z"/>
	<path d="M331.6,384.3c-1.6,0-2.8-0.6-3.7-1.8h-0.2c0.1,1.1,0.2,1.8,0.2,2v5.6h-3.6v-19.8h3l0.5,1.8h0.2c0.9-1.4,2.1-2,3.8-2
		c1.6,0,2.8,0.6,3.7,1.9c0.9,1.3,1.3,3,1.3,5.2c0,1.5-0.2,2.7-0.6,3.8c-0.4,1.1-1,1.9-1.8,2.5C333.5,384,332.6,384.3,331.6,384.3z
		 M330.5,373.1c-0.9,0-1.6,0.3-2,0.9c-0.4,0.6-0.6,1.5-0.6,2.8v0.4c0,1.5,0.2,2.5,0.6,3.2c0.4,0.6,1.1,1,2,1c1.6,0,2.4-1.4,2.4-4.1
		c0-1.3-0.2-2.4-0.6-3S331.4,373.1,330.5,373.1z"/>
	<path d="M348.2,384.1l-0.7-1.9h-0.1c-0.6,0.8-1.2,1.3-1.9,1.7s-1.5,0.5-2.5,0.5c-1.3,0-2.3-0.4-3-1.1c-0.7-0.8-1.1-1.8-1.1-3.2
		c0-1.5,0.5-2.5,1.5-3.2c1-0.7,2.5-1.1,4.5-1.1l2.3-0.1v-0.6c0-1.4-0.7-2.1-2.1-2.1c-1.1,0-2.3,0.3-3.8,1l-1.2-2.5
		c1.5-0.8,3.2-1.2,5.1-1.2c1.8,0,3.2,0.4,4.1,1.2c1,0.8,1.4,2,1.4,3.7v9.1H348.2z M347.1,377.7l-1.4,0c-1.1,0-1.8,0.2-2.4,0.6
		c-0.5,0.4-0.8,0.9-0.8,1.6c0,1.1,0.6,1.6,1.8,1.6c0.8,0,1.5-0.2,2-0.7s0.8-1.2,0.8-2V377.7z"/>
	<path d="M359.9,384.3c-4.2,0-6.2-2.3-6.2-7c0-2.3,0.6-4.1,1.7-5.3c1.1-1.2,2.8-1.8,4.9-1.8c1.5,0,2.9,0.3,4.2,0.9l-1.1,2.9
		c-0.6-0.2-1.1-0.4-1.6-0.6c-0.5-0.2-1-0.2-1.5-0.2c-1.9,0-2.8,1.4-2.8,4.1c0,2.7,0.9,4,2.8,4c0.7,0,1.4-0.1,1.9-0.3
		c0.6-0.2,1.2-0.5,1.8-0.9v3.2c-0.6,0.4-1.2,0.7-1.8,0.8S360.9,384.3,359.9,384.3z"/>
	<path d="M373.1,384.3c-2.2,0-3.8-0.6-5-1.8s-1.8-2.9-1.8-5.2c0-2.3,0.6-4.1,1.7-5.3s2.7-1.9,4.6-1.9c1.9,0,3.4,0.6,4.4,1.7
		s1.6,2.6,1.6,4.6v1.8H370c0,1.1,0.3,1.9,0.9,2.5c0.6,0.6,1.4,0.9,2.4,0.9c0.8,0,1.6-0.1,2.3-0.3s1.5-0.4,2.2-0.8v2.9
		c-0.6,0.3-1.3,0.6-2,0.7C375.1,384.2,374.2,384.3,373.1,384.3z M372.6,372.8c-0.8,0-1.4,0.3-1.8,0.8c-0.4,0.5-0.7,1.2-0.8,2.1h5.1
		c0-0.9-0.3-1.6-0.7-2.1S373.4,372.8,372.6,372.8z"/>
	<path d="M100.7,402c0-1.2,0.7-1.8,2-1.8c1.3,0,2,0.6,2,1.8c0,0.6-0.2,1-0.5,1.4c-0.3,0.3-0.8,0.5-1.5,0.5
		C101.4,403.8,100.7,403.2,100.7,402z M104.5,419.3h-3.6v-13.7h3.6V419.3z"/>
	<path d="M120.7,419.3H117v-8c0-1-0.2-1.7-0.5-2.2c-0.3-0.5-0.9-0.7-1.6-0.7c-1,0-1.8,0.3-2.2,1c-0.5,0.7-0.7,1.9-0.7,3.5v6.5h-3.6
		v-13.7h2.8l0.5,1.8h0.2c0.4-0.7,1-1.2,1.7-1.5c0.7-0.3,1.5-0.5,2.4-0.5c1.6,0,2.7,0.4,3.5,1.3c0.8,0.9,1.2,2.1,1.2,3.7V419.3z"/>
	<path d="M136.4,416.5c0.6,0,1.4-0.1,2.3-0.4v2.8c-0.9,0.4-2,0.6-3.3,0.6c-1.5,0-2.5-0.4-3.2-1.1c-0.7-0.8-1-1.9-1-3.4v-6.6h-1.7
		v-1.6l2-1.3l1.1-2.9h2.3v2.9h3.7v2.8h-3.7v6.6c0,0.5,0.1,0.9,0.4,1.2C135.5,416.4,135.9,416.5,136.4,416.5z"/>
	<path d="M153.7,419.3h-3.6v-8c0-2-0.7-3-2.2-3c-1,0-1.8,0.4-2.2,1.1c-0.5,0.7-0.7,1.9-0.7,3.5v6.5h-3.6v-19.1h3.6v3.9
		c0,0.3,0,1-0.1,2.1l-0.1,1.1h0.2c0.8-1.3,2.1-2,3.9-2c1.6,0,2.8,0.4,3.6,1.3s1.2,2.1,1.2,3.7V419.3z"/>
	<path d="M163.5,419.5c-2.2,0-3.8-0.6-5-1.8s-1.8-2.9-1.8-5.2c0-2.3,0.6-4.1,1.7-5.3c1.1-1.3,2.7-1.9,4.6-1.9c1.9,0,3.4,0.6,4.4,1.7
		c1.1,1.1,1.6,2.6,1.6,4.6v1.8h-8.6c0,1.1,0.3,1.9,0.9,2.5c0.6,0.6,1.4,0.9,2.4,0.9c0.8,0,1.6-0.1,2.3-0.3c0.7-0.2,1.5-0.4,2.2-0.8
		v2.9c-0.6,0.3-1.3,0.6-2,0.7C165.5,419.4,164.6,419.5,163.5,419.5z M163,407.9c-0.8,0-1.4,0.3-1.8,0.8c-0.4,0.5-0.7,1.2-0.8,2.1
		h5.1c0-0.9-0.3-1.6-0.7-2.1S163.8,407.9,163,407.9z"/>
	<path d="M193.3,411.1c0,2.7-0.7,4.7-2.1,6.2c-1.4,1.5-3.3,2.2-5.8,2.2c-2.4,0-4.3-0.8-5.7-2.3c-1.4-1.5-2.1-3.6-2.1-6.2
		c0-2.6,0.7-4.7,2.1-6.2c1.4-1.5,3.3-2.2,5.8-2.2c1.6,0,2.9,0.3,4.1,1c1.2,0.7,2.1,1.6,2.8,2.9C193,407.9,193.3,409.4,193.3,411.1z
		 M183.1,411.1c0,1.4,0.2,2.5,0.5,3.2c0.4,0.7,1,1.1,1.8,1.1c0.8,0,1.4-0.4,1.8-1.1c0.3-0.7,0.5-1.8,0.5-3.2c0-1.4-0.2-2.4-0.5-3.1
		c-0.4-0.7-1-1.1-1.8-1.1c-0.8,0-1.4,0.4-1.8,1.1C183.3,408.7,183.1,409.7,183.1,411.1z"/>
	<path d="M206.1,407.2h-3.4v12h-5.5v-12h-2.1v-2.7l2.2-1.4v-0.3c0-2.1,0.4-3.7,1.3-4.6c0.9-0.9,2.2-1.4,4.1-1.4
		c0.7,0,1.4,0.1,2.1,0.2c0.6,0.1,1.4,0.3,2.3,0.6l-1.2,3.6c-0.7-0.2-1.3-0.3-2-0.3c-0.4,0-0.7,0.1-0.9,0.4c-0.2,0.3-0.3,0.7-0.3,1.3
		v0.4h3.4V407.2z M217.9,407.2h-3.4v12h-5.5v-12H207v-2.7l2.2-1.4v-0.3c0-2.1,0.4-3.7,1.3-4.6c0.9-0.9,2.2-1.4,4.1-1.4
		c0.7,0,1.4,0.1,2.1,0.2s1.4,0.3,2.3,0.6l-1.2,3.6c-0.7-0.2-1.3-0.3-2-0.3c-0.4,0-0.7,0.1-0.9,0.4c-0.2,0.3-0.3,0.7-0.3,1.3v0.4h3.4
		V407.2z M219.9,399c0-0.8,0.2-1.5,0.7-1.9c0.5-0.4,1.2-0.6,2.2-0.6c1,0,1.8,0.2,2.2,0.6c0.5,0.4,0.7,1,0.7,1.9c0,1.6-1,2.5-2.9,2.5
		C220.9,401.5,219.9,400.6,219.9,399z M225.5,419.3h-5.5V403h5.5V419.3z"/>
	<path d="M236.5,419.5c-2.6,0-4.5-0.7-5.9-2.1c-1.3-1.4-2-3.5-2-6.2c0-2.7,0.7-4.8,2.2-6.3c1.4-1.5,3.5-2.2,6.1-2.2
		c1.8,0,3.6,0.4,5.2,1.2l-1.6,4.1c-0.7-0.3-1.3-0.5-1.8-0.7c-0.6-0.2-1.1-0.3-1.7-0.3c-0.9,0-1.6,0.4-2,1.1c-0.5,0.7-0.7,1.7-0.7,3
		c0,2.6,0.9,3.9,2.8,3.9c1.6,0,3.1-0.5,4.6-1.4v4.5C240.2,419.1,238.5,419.5,236.5,419.5z"/>
	<path d="M252.3,419.5c-2.6,0-4.7-0.7-6.1-2.2c-1.5-1.4-2.2-3.5-2.2-6.1c0-2.7,0.7-4.8,2-6.3s3.3-2.2,5.8-2.2c2.4,0,4.2,0.6,5.5,1.9
		c1.3,1.3,1.9,3.1,1.9,5.5v2.5h-9.7c0,0.9,0.4,1.6,1,2.1c0.6,0.5,1.4,0.8,2.5,0.8c1,0,1.8-0.1,2.6-0.3s1.7-0.5,2.6-1v4
		c-0.9,0.4-1.7,0.8-2.6,0.9C254.7,419.5,253.6,419.5,252.3,419.5z M252,406.6c-0.6,0-1.2,0.2-1.6,0.6s-0.7,1.1-0.8,2h4.7
		c0-0.8-0.2-1.4-0.6-1.9C253.3,406.8,252.7,406.6,252,406.6z"/>
	<path d="M274.2,419.5c-4.2,0-6.2-2.3-6.2-7c0-2.3,0.6-4.1,1.7-5.3c1.1-1.2,2.8-1.8,4.9-1.8c1.5,0,2.9,0.3,4.2,0.9l-1.1,2.9
		c-0.6-0.2-1.1-0.4-1.6-0.6c-0.5-0.2-1-0.2-1.5-0.2c-1.9,0-2.8,1.4-2.8,4.1c0,2.7,0.9,4,2.8,4c0.7,0,1.4-0.1,1.9-0.3
		c0.6-0.2,1.2-0.5,1.8-0.9v3.2c-0.6,0.4-1.2,0.7-1.8,0.8S275.1,419.5,274.2,419.5z"/>
	<path d="M289.8,419.3l-0.7-1.9H289c-0.6,0.8-1.2,1.3-1.9,1.7s-1.5,0.5-2.5,0.5c-1.3,0-2.3-0.4-3-1.1c-0.7-0.8-1.1-1.8-1.1-3.2
		c0-1.5,0.5-2.5,1.5-3.2c1-0.7,2.5-1.1,4.5-1.1l2.3-0.1v-0.6c0-1.4-0.7-2.1-2.1-2.1c-1.1,0-2.3,0.3-3.8,1l-1.2-2.5
		c1.5-0.8,3.2-1.2,5.1-1.2c1.8,0,3.2,0.4,4.1,1.2c1,0.8,1.4,2,1.4,3.7v9.1H289.8z M288.7,412.9l-1.4,0c-1.1,0-1.8,0.2-2.4,0.6
		c-0.5,0.4-0.8,0.9-0.8,1.6c0,1.1,0.6,1.6,1.8,1.6c0.8,0,1.5-0.2,2-0.7s0.8-1.2,0.8-2V412.9z"/>
	<path d="M308.4,419.3h-3.6v-8c0-1-0.2-1.7-0.5-2.2c-0.3-0.5-0.9-0.7-1.6-0.7c-1,0-1.8,0.3-2.2,1c-0.5,0.7-0.7,1.9-0.7,3.5v6.5h-3.6
		v-13.7h2.8l0.5,1.8h0.2c0.4-0.7,1-1.2,1.7-1.5s1.5-0.5,2.4-0.5c1.6,0,2.7,0.4,3.5,1.3s1.2,2.1,1.2,3.7V419.3z"/>
	<path d="M329.5,419.3l-1-4.8l-1.4-6.1H327l-2.4,10.9h-3.9l-3.8-13.7h3.6l1.5,6.1c0.2,1.1,0.5,2.6,0.8,4.5h0.1c0-0.6,0.2-1.6,0.4-3
		l0.2-1l1.6-6.6h4l1.6,6.6c0,0.2,0.1,0.4,0.1,0.8c0.1,0.4,0.1,0.7,0.2,1.1c0.1,0.4,0.1,0.8,0.2,1.2c0.1,0.4,0.1,0.7,0.1,0.9h0.1
		c0.1-0.6,0.2-1.4,0.4-2.4c0.2-1,0.3-1.7,0.4-2.1l1.6-6.1h3.6l-3.8,13.7H329.5z"/>
	<path d="M351.6,412.4c0,2.2-0.6,4-1.7,5.2s-2.7,1.9-4.8,1.9c-1.3,0-2.4-0.3-3.4-0.9c-1-0.6-1.7-1.4-2.3-2.5
		c-0.5-1.1-0.8-2.3-0.8-3.8c0-2.2,0.6-4,1.7-5.2c1.1-1.2,2.7-1.9,4.8-1.9c1.3,0,2.4,0.3,3.4,0.9c1,0.6,1.7,1.4,2.3,2.5
		C351.4,409.7,351.6,410.9,351.6,412.4z M342.4,412.4c0,1.4,0.2,2.4,0.7,3.1s1.1,1,2.1,1c1,0,1.7-0.3,2.1-1c0.4-0.7,0.6-1.7,0.6-3.1
		c0-1.4-0.2-2.4-0.6-3.1c-0.4-0.7-1.1-1-2.1-1c-1,0-1.7,0.3-2.1,1C342.6,410,342.4,411,342.4,412.4z"/>
	<path d="M362.1,405.3c0.5,0,0.9,0,1.2,0.1l-0.3,3.5c-0.3-0.1-0.7-0.1-1.1-0.1c-1.2,0-2.1,0.3-2.7,0.9s-1,1.5-1,2.6v7h-3.6v-13.7
		h2.8l0.5,2.3h0.2c0.4-0.8,1-1.4,1.7-1.9S361.3,405.3,362.1,405.3z"/>
	<path d="M369.3,411.8l1.6-2.1l3.7-4.2h4.1l-5.3,6l5.6,7.8h-4.2l-3.8-5.6l-1.6,1.3v4.3h-3.6v-19.1h3.6v8.5L369.3,411.8L369.3,411.8z
		"/>
	<path d="M380.4,417.5c0-0.7,0.2-1.2,0.5-1.6c0.4-0.4,0.9-0.5,1.6-0.5c0.7,0,1.2,0.2,1.5,0.5c0.4,0.4,0.5,0.9,0.5,1.5
		c0,0.6-0.2,1.2-0.5,1.5c-0.4,0.4-0.9,0.6-1.5,0.6c-0.7,0-1.2-0.2-1.6-0.5C380.6,418.7,380.4,418.2,380.4,417.5z"/>
</g>
<path class="st30" d="M140.5,144.5c0,0-14.7,46.5-37.2,38.2"/>
<path class="st31" d="M303.2,305.2c0,0,14.7-46.5,37.2-38.2"/>
</svg>
