<?xml version="1.0" encoding="utf-8"?>
<!-- Generator: Adobe Illustrator 25.2.1, SVG Export Plug-In . SVG Version: 6.00 Build 0)  -->
<svg version="1.1" id="Layer_1" xmlns="http://www.w3.org/2000/svg" xmlns:xlink="http://www.w3.org/1999/xlink" x="0px" y="0px"
	 viewBox="0 0 1366 768" style="enable-background:new 0 0 1366 768;" xml:space="preserve">
<g>
	<path d="M322.1,316.4c0.6-12,0.8-24.1,1.9-36c1.6-16.9,3.5-33.7,5.8-50.5c1.3-9.4,2.5-19,5.3-28.1c4.4-14.2,13.9-23.6,28.2-29.3
		c16.8-6.7,39.4,6.1,46.7,19.8c3.5,6.5,7.2,12.8,7.6,20.6c0.1,1.4,2.1,3.2,3.6,4c8.2,4.2,15.7,9.5,19.6,18c2.8,6,5.7,12.7,5.8,19.1
		c0.8,46.4,1,92.8,1.4,139.2c0,1.7,0.9,3.8,2.1,5.1c17.7,19.7,35.6,39.2,53.4,58.8c1.5,1.6,2.9,3.3,5.2,5
		c-0.4-23.8,7.8-44.1,23.4-61.3c15.7-17.2,35.4-27.2,60.1-29.1c-2.3-2.1-3.5-3.6-5-4.6c-13-8.6-22.9-19.7-28.2-34.5
		c-1.8-5.2-2.6-10.8-4.3-16.1c-0.7-2.1-2.3-4.6-4.1-5.3c-16.1-6.1-25.5-17.3-25.6-34.8c-0.1-25.2,0.1-50.5,1.3-75.7
		c0.3-6.7,4.3-13.3,6.8-19.9c4-10.8,11.6-19,20-26.5c12.2-10.8,25.9-18.8,42.5-19.7c18.7-1.1,37.6-1.4,56.3-1.6
		c15-0.2,30,0.4,45,0.5c2.5,0,4.9-0.3,7.4-0.5c6.4-0.5,11.4,3.4,10.2,9.5c-1.9,9.2,0.8,14.7,8.4,20.4c11.6,8.8,16.7,22,16.9,36.4
		c0.3,27.1,0.2,54.1-0.3,81.2c-0.2,11.7-7.4,19.7-16.4,26.1c-2.9,2-6.7,2.7-9.5,4.8c-1.8,1.3-3.5,3.8-3.9,6
		c-3.2,18.1-11.9,32.9-25.8,44.7c-3.5,3-7.5,5.6-11.2,9.2c24.9,1.9,45.1,12.6,61.3,30.7c16.3,18.2,23.9,39.9,21.8,64.8
		c0.5,0,1,0,1.5,0c3.2-3.4,6.5-6.7,9.6-10.2c17.7-19.4,35.5-38.9,53.1-58.4c1-1.2,1.7-3.1,1.7-4.8c0.6-46.9,0.6-93.8,1.8-140.7
		c0.4-14.6,8.1-26.5,21.8-33.5c4.2-2.1,6.4-4.8,7.7-10.1c4.8-20.4,17.9-35.6,39.8-38.4c12.2-1.6,22.8,4,31.3,12.8
		c8.7,9.1,13,20.2,14.4,32.7c1.8,16.7,4.7,33.3,5.9,50c1.6,22,2.8,44.1,2.9,66.2c0.2,29.7-0.2,59.4-1.2,89.1
		c-0.8,21.2-2.9,42.4-4.7,63.6c-0.9,11.2-2,22.3-3.5,33.4c-3.8,28.3-14.2,53.8-34.5,74.3c-23.8,24-48.3,47.2-72.3,71
		c-8.7,8.6-17.9,17-24.9,26.9c-6.7,9.5-10.8,20.9-16.1,31.5c-3,6-5.9,12-9.2,17.9c-2.7,4.8-6.4,5.9-10.8,3.4
		c-3.4-1.9-4.4-6.9-2.2-11.4c2.6-5.3,5.1-10.7,7.8-15.9c5.2-10.1,10.7-20,15.7-30.2c4.9-10.1,13.2-17.2,21-24.7
		c18.3-17.7,37-35.1,55.3-52.8c10-9.7,19.7-19.7,28.8-30.2c8.7-10.1,15.4-21.6,19.7-34.4c6.3-18.5,7.5-37.7,8.9-56.9
		c1.5-21.7,3-43.4,5-65.1c3.6-40,3-80.2,1.7-120.2c-0.6-19.4-2.7-38.8-4.9-58.1c-1.3-11.9-3.7-23.7-6.2-35.4
		c-2.6-12.4-11-20.4-23.5-21.9c-8.5-1-15.6,2.7-21.3,9.2c-6.7,7.5-9.3,16.5-9.3,26.3c-0.1,51.7-0.1,103.4-0.2,155.1
		c0,0.7,0.1,1.4,0,2c-1.5,6.3,1.6,10.4,6.3,14.1c9.3,7.3,13.7,17.3,14.9,28.9c1,10.1,0,20-4.5,28.9c-3.8,7.4-8.9,14.1-13.8,20.9
		c-10.4,14.5-21,29-31.7,43.4c-10.6,14.2-21.1,28.6-32.2,42.4c-10.2,12.7-20.9,25-31.7,37.2c-4.8,5.4-7.3,5-12.1-0.2
		c-3.2-3.5-1.9-6.2,0.6-9.1c6.5-7.4,13.3-14.6,19.5-22.3c10.8-13.4,21.5-27,31.9-40.8c12.2-16.1,24.4-32.3,36-48.8
		c7.5-10.6,15-21.3,20.7-32.8c6.4-13,2.2-30.4-10-39.5c-4.2-3.1-17.3-3.2-21.2,0.6c-7.9,7.5-15.4,15.4-23,23.3
		c-7.7,8.1-15.3,16.4-22.9,24.5c-16.8,17.9-33.3,36-50.6,53.5c-13.9,14-28.6,27.2-43.1,40.6c-13.5,12.5-25.1,26-33,43.1
		c-14.2,30.7-14.3,62.2-9.2,94.7c2.2,14.4,1.1,29.3,1.1,43.9c0,3.8-4.6,7.9-7.9,7.5c-4.3-0.5-6.9-3.2-6.9-7.7
		c0-6.3,0.6-12.5,0.4-18.8c-0.2-6.9-0.3-13.9-1.6-20.6c-4.5-23.6-5.1-47.3-1.1-70.9c1.9-10.8,6.9-21.1,10.5-31.6
		c4.8-13.8,13-25.5,22.9-35.8c9.2-9.6,19.6-18,29.2-27.3c11.7-11.3,23.2-22.8,34.5-34.4c1.4-1.4,2.2-4.2,2.1-6.3
		c-0.6-12.5-0.7-25.1-2.5-37.4c-2.2-15.6-11.1-28-23-37.9c-5.5-4.6-12-8-18.2-11.5c-1-0.6-3.8,0.4-4.7,1.6
		c-8.2,11.1-16.1,22.4-24.2,33.6c-5.3,7.3-10.7,14.6-16,21.8c-0.5,0.6-0.7,1.4-1.6,3.4c3.4-0.2,6-0.3,8.6-0.4
		c9.3-0.4,12.2,2.7,12.2,11.8c-0.1,21.3-0.1,42.6-0.1,63.9c0,2.5,0.2,5-0.1,7.4c-0.6,5.2-3.7,8.2-8.8,8.2c-20.1,0.1-40.3,0.1-60.4,0
		c-5.9,0-8.4-3.2-8.5-10.4c-0.1-15,0-30.1,0.1-45.1c0-8.6,0-17.2,0-25.8c0-7.3,2.3-9.8,9.6-10.2c3.2-0.2,6.5,0,10.8,0
		c-1.4-2-2.3-3.4-3.3-4.8c-12.7-18-25.4-35.9-38.3-53.8c-0.7-1-3.3-1.7-4.4-1.2c-15.9,7.8-28.7,18.6-36.5,35.1
		c-5.6,11.8-6.6,24.1-7.5,36.8c-0.8,10.9,3.1,18.4,10.8,25.4c17.3,15.8,34.2,32.1,51.3,48.2c16.3,15.4,28.3,33.4,36,54.7
		c11.2,30.9,9.9,62,5.1,93.6c-1.6,10.8-0.8,22-1.1,33c-0.1,2,0.1,4,0,5.9c-0.1,4.6-3.6,8-7,7.4c-3-0.5-7.4-4.7-7.6-7.5
		c-1-15.8-1.7-31.5,1.3-47.3c4.2-22.2,4.3-44.5-1-66.7c-6.5-27.4-20.4-49.8-41.9-67.8c-20.9-17.5-39.9-36.8-58.3-56.8
		c-18-19.5-36.1-38.7-54.2-58.1c-6.8-7.3-13.5-14.7-20.3-22.1c-6.5-7.1-14.8-9.2-23.8-6.8c-3.2,0.8-6.3,3.5-8.6,6
		c-9.6,10.7-10.7,29-2,42.4c7.9,12.3,16.6,24.1,25.2,36c8.1,11.3,16.4,22.6,24.8,33.7c10.2,13.3,20.5,26.6,31.1,39.6
		c7.4,9.2,15.5,17.9,23.1,26.9c4.4,5.2,4.3,7.2,0.3,11.4c-2.9,3-6.1,3.5-9.1,0.5c-6.3-6.7-12.8-13.3-18.5-20.4
		c-13.8-17.1-27.5-34.3-40.9-51.8c-10.7-14-20.9-28.3-31.1-42.6c-6.6-9.2-13.4-18.4-19.1-28.1c-7.7-13.1-8.7-27.4-4-41.9
		c3-9.3,8.6-16.8,16.8-22.5c1.4-0.9,2.1-3.6,2.2-5.5c0.2-8.4,0.1-16.8,0-25.3c-0.1-45.7-0.1-91.5-0.2-137.2c0-13-5.1-23.6-15.7-31.4
		c-5.6-4.1-21.5-4.2-27.9,1.3c-9.5,8.1-11.8,18.7-13.5,29.7c-8.9,59.3-10.6,118.9-8,178.7c1,23.7,2.5,47.4,4.6,71.1
		c1.7,19.4,4.3,38.6,6.8,57.9c2.2,16.5,8.8,31.7,19.6,44.1c13.8,16,28.9,30.9,43.8,45.8c18.8,18.7,38.4,36.6,56.8,55.7
		c6.7,6.9,10.9,16.3,15.8,24.8c4.1,7.3,7.4,15,11.1,22.5c1.9,3.8,4,7.5,5.7,11.4c2.2,5.1,0.8,9.2-3.6,11.2c-4,1.8-7.9,0.2-10.4-4.8
		c-6-12.2-12.1-24.4-17.7-36.8c-5.5-12-14-21.6-23.4-30.6c-17.6-16.7-35.1-33.4-52.3-50.4c-12.5-12.4-24.8-25-36.4-38.2
		c-8.9-10.2-14.8-22.3-19.5-35.1c-6.2-17.2-7.5-35-8.9-52.9c-2.3-29.4-4.7-58.8-6.9-88.2c-0.8-10.3-0.8-20.7-1.2-31.1
		C322.1,356,322.1,336.2,322.1,316.4z M632.1,188.3c0-0.2,0-0.4,0-0.6c-4.6,0-9.3,0.2-13.9,0c-8-0.4-15.4,2.2-22.1,5.8
		c-18,9.5-28.3,28-26.5,48.8c0.6,6.3-4,12.5-10.3,12.7c-7.4,0.2-12.1,3.7-16,9.6c-8.1,12.3-0.3,31.3,14.3,32.6
		c8.9,0.8,12,4.1,12.1,13c0,10.7,3.7,20,9.5,28.5c7,10.2,16.3,17.4,28,22.1c9.8,4,19.7,3.1,29.7,3.5c10.5,0.5,20.1-2.5,29-7.8
		c18.7-11.1,28.4-27.7,29.6-49.3c0.3-6.2,3.3-9.2,9.9-9.8c7.4-0.6,12.8-3.6,16.5-10.5c7.8-14.4,0.4-29.8-15.7-31.9
		c-7.8-1-10.6-4-10.7-11.9c-0.2-7.6-0.3-14.9-3.2-22.3c-7.2-18-20.1-29-38.9-32.3C646.4,187.2,639.2,188.3,632.1,188.3z
		 M651.3,148.8c0,0.1,0,0.1,0,0.2c-13.2,0-26.4-0.3-39.6,0.1c-10.4,0.3-20.7,1-30.8,5.4c-21,9.2-34.2,24.8-38.6,46.5
		c-2.8,13.5-1.6,27.8-2.1,41.7c0,0.7,0.6,1.9,1.1,1.9c0.8,0.1,1.8-0.3,2.6-0.7c1.7-0.9,3.1-2.4,4.8-2.7c4.1-0.8,4.9-3.1,5.4-6.9
		c0.7-6.3,1.5-12.8,3.8-18.7c2.6-6.6,6.5-12.9,10.8-18.6c9.1-12,21.3-20.7,36.1-23c13.7-2.1,27.9-1.6,41.9-1.5
		c6.2,0,12.5,1.2,18.6,2.5c4.6,1,8,1.3,12.8-1c10-4.7,15.1-13.1,20.1-21.9c0.3-0.5-0.9-2.6-1.8-3c-1.4-0.6-3.2-0.4-4.9-0.4
		C678,148.8,664.7,148.8,651.3,148.8z M608.5,498c0,8.9,0.1,17.8,0,26.7c0,3,0.6,4.5,4.2,4.4c12.2-0.3,24.4-0.4,36.6-0.4
		c6.1,0,6.8-0.2,6.8-6c0.1-17,0.1-33.9,0.2-50.9c0-3.6-2.1-4-4.8-4c-13,0-26.1,0-39.1-0.1c-3.1,0-4,1.1-3.9,4.1
		C608.6,480.5,608.5,489.3,608.5,498z M420.1,233.1c-0.6,0.4-1.3,0.8-1.9,1.2c0,4.4,0,8.8,0,13.2c0.1,41.8,0.2,83.5,0.2,125.3
		c0,10.4-0.1,10.3,10.1,12.2c3.5,0.7,4.8,0,4.8-3.8c-0.7-41.7-1.2-83.5-2.1-125.2c-0.1-5-1.6-10.1-3.7-14.7
		C426.1,238.1,422.7,235.8,420.1,233.1z M851.2,233.1c-5.3,2.5-8.6,6.1-9.5,10.5c-1.7,8.3-3.2,16.8-3.4,25.3
		c-0.8,36.1-0.9,72.3-1.5,108.4c-0.1,7.5-1.4,9.3,8.6,7c4.5-1,6.2-2.3,6.2-7.1c0-46.5,0.3-93.1,0.5-139.6
		C852,236.4,851.6,235.2,851.2,233.1z M590.2,386.1c-1.4,0.8-2.8,1.1-2.9,1.7c-0.2,0.9,0.1,2.3,0.7,3.1
		c12.5,17.6,25.1,35.3,37.7,52.8c7,9.7,6.8,9.6,14-0.7c12.1-17.4,24.5-34.5,36.8-51.8c0.7-1,0.7-2.5,1-3.8c-1.6,0-3.3-0.5-4.6,0
		c-1,0.4-1.6,1.9-2.2,3.1c-4.1,8.8-11.4,14-20,17.2c-10.8,4-21.6,5.4-33.2,1.1c-10.4-3.8-18.7-9.1-23.7-19.1
		C593.1,388.2,591.4,387.3,590.2,386.1z M724.9,203.8c-0.2-12.2-3.7-22.8-12.9-31.4c-3.4-3.2-5.9-2.9-9.1,0.5
		c-4,4.2-8.6,7.9-13.1,11.6c-2.1,1.8-3,3.3-0.8,5.7c3.7,4.1,7.5,8.2,10.7,12.7c6.3,8.9,10.4,18.7,10.5,29.7c0.1,4.6,0.1,8.5,6.3,8.6
		c1.5,0,2.9,2,4.5,2.8c0.8,0.4,2.2,1,2.6,0.6c0.7-0.6,1.1-1.9,1.1-2.9C725,229.2,724.9,216.5,724.9,203.8z M633.8,396.5
		c4.4-1.1,9.5-1.3,13.5-3.5c4.1-2.3,7.8-6,10.3-9.9c2.2-3.6-0.5-5.4-4.5-5.3c-13.3,0.4-26.6,0.2-39.9,0.3c-1.8,0-4.7-0.2-5.2,0.7
		c-0.8,1.5-0.6,4.1,0.1,5.8c0.7,1.9,2.3,3.5,3.8,4.9C617.8,395.3,626,394.8,633.8,396.5z"/>
</g>
</svg>
