<svg width="236" height="9" xmlns="http://www.w3.org/2000/svg"><path d="M-.052 3.546c2.966 1.126 5.94 3.204 8.898 3.23 44.577.378 89.152.552 133.724.62 16.528.025 33.048-.559 49.578-.47 12.143.063 24.297.834 36.448 1.133 2.394.06 4.788-.57 7.41-3.225-1.468-.841-2.943-2.41-4.403-2.419-14.659-.09-29.31.057-43.968.168-12.47.098-24.943.376-37.417.269-3.375-.033-6.76-1.158-10.14-1.787l-.862.09-.86-.127c-1.873.019-3.746.037-5.62.053-1.874-.08-3.749-.157-5.625-.24-1.256.021-2.51.047-3.765.069-24.622.44-49.244.827-73.867 1.338-16.511.341-33.02.859-49.531 1.298" fill="#8CEDE4" fillRule="evenodd"/></svg>