<?xml version="1.0" encoding="utf-8"?>
<!-- Generator: Adobe Illustrator 25.2.1, SVG Export Plug-In . SVG Version: 6.00 Build 0)  -->
<svg version="1.1" id="Layer_1" xmlns="http://www.w3.org/2000/svg" xmlns:xlink="http://www.w3.org/1999/xlink" x="0px" y="0px"
	 viewBox="0 0 1366 768" style="enable-background:new 0 0 1366 768;" xml:space="preserve">
<path d="M438.9,295.3c0.5-0.3,1-0.6,1.5-0.9c1.5,2.2,3.2,4.3,4.5,6.7c12.1,23.3,24.6,46.4,36.1,70c20.1,41.1,39.8,82.5,51.7,126.9
	c3.9,14.4,8.1,29.1,2.4,43.6c16.9,19.5,33.6,38.6,51.2,58.9c8-13.6,9.8-27.3,11.3-41.2c3-28.7-7-54.9-16.5-80.9
	c-12.3-33.5-25.7-66.5-39.3-99.4c-11.9-28.6-24.2-57-37.4-85c-8.3-17.6-18.8-34.2-28.3-51.2c-3.3-6-6.8-6.3-10.5-0.4
	c-2.9,4.6-6.1,9.1-8.5,13.9c-14.6,28.7-30,57.2-43.3,86.5c-9.8,21.4-17,44-25,66.2c-1.1,3-0.5,6.7-0.8,10.9
	c43.4-2.5,84.9-0.1,121.2,25.8c0.8-0.6,1.6-1.2,2.4-1.8C487.3,394.3,463.1,344.8,438.9,295.3z M816.9,234.6
	c-3.4,4.3-5.5,6.3-6.8,8.7c-10.3,18.8-20.5,37.6-30.5,56.5c-7.9,14.9-16.6,29.6-23,45.2c-5.1,12.6-6.1,26.8-11,39.6
	c-14.8,38.4-30.9,76.4-45.9,114.7c-12,30.5-13.7,61.6-3.1,92.9c0.8,2.5,2.9,4.5,4.4,6.8c1.9-1.4,4.1-2.5,5.7-4.2
	c13.7-15.6,27.4-31.3,40.9-47.1c2.1-2.5,4.8-6.2,4.5-9c-2.9-21.1,3.4-40.7,10-60c20.2-59.6,48.6-115.5,78.6-170.6
	c6.8-12.4,9.4-22.1,0.2-34.4C832,262.2,825.5,248.9,816.9,234.6z M675.7,257.6c-1-0.6-2-1.2-3-1.8c1.4-3.3,2.5-6.8,4.3-9.8
	c7.6-12.6,16.1-24.7,23.1-37.6c9.8-18.2,19-36.8,27.7-55.6c8.2-17.8,2.4-32.4-11.6-45.2c-17.2-15.8-33.7-32.3-50.8-48.2
	c-2.8-2.6-6.9-3.6-10.4-5.4c-0.8,3.6-2.4,7.1-2.4,10.7c0.1,27.2,0.7,54.4,0.8,81.6c0,28.2-0.6,56.3-0.6,84.5c0,3.7,1.7,7.4,2.7,11
	c4.2,14.8,17.9,19.7,28.9,27.3c19.1,13.3,38.6,26.2,57.3,40c8.8,6.5,9.6,7.1,14.8-2.5c10.4-19.1,20.9-38.2,31.3-57.3
	c4.6-8.5,9.1-17.1,14.3-26.7c-3.6-0.5-5.4-1.2-7.1-1c-25.4,3-51,5-76.1,9.6C702,234.3,682.3,235.4,675.7,257.6z M485,220.8
	c0.6,2.7,0.6,4.1,1.2,5.1c15,27.5,30,55,45.2,82.5c3.6,6.5,7.5,5.3,13.2,1.3c21.8-15.4,43.6-31.1,66.5-44.8
	c15.2-9.1,22.9-21.8,23.5-38.2c1.1-29.7,0.5-59.4,0.5-89.1c0.1-24.3,0.2-48.6,0-72.9c0-3.7-2.1-7.3-3.2-11
	c-3.6,1.6-7.9,2.3-10.6,4.9c-17.4,16.6-33.8,34.1-51.7,50.1c-10.3,9.2-11.8,19.2-9.6,31.7c4.5,24.9,16.6,46.2,29.8,67.1
	c8.4,13.3,16.6,26.6,24.7,40c1.5,2.6,2.1,5.7,3.1,8.6c-13.6-15.4-13.5-15.7-23.4-19C559.2,225.4,522.8,223.3,485,220.8z M843.6,647
	c17.6-13.1,29.9-28.4,40.8-45.1c3.9-5.9,2.7-8.8-3.2-11.9c-15.3-8.1-31.3-15.3-45.2-25.3c-18.3-13.3-36.4-13.2-56.7-6.5
	c-13.5,4.5-26.9,8.8-36.6,19.7c-8.3,9.3-15.8,19.4-23.9,28.8c-5.6,6.5-3.9,11.3,3.8,11.9c12.3,1,24.8,0.3,37.1,0
	c19.2-0.4,38.4-1.6,57.6-1.1c14.1,0.3,20.6,6.9,24.1,20.5C842,640.5,842.5,642.9,843.6,647z M443.7,646.1
	c10.5-28.1,12.1-29.5,43.1-29c16,0.2,31.9,2.4,47.9,2.8c10.7,0.2,21.5-0.7,32.1-2.1c7.5-0.9,6.6-5.4,2.6-10.1
	c-3.9-4.6-8.5-8.9-11.6-14c-14.2-22.9-35.2-34.5-61.2-38.3c-3.5-0.5-6.9-2-10.3-2.1c-3.9-0.1-8.3-0.1-11.6,1.6
	c-18.4,9.7-36.5,19.9-54.6,30c-6.6,3.7-13.2,7.5-19.6,11.2C408.2,614,431,640.4,443.7,646.1z M900.2,419.7
	c-7.8-38.6-37.6-112.3-49.6-122.6c-26.2,48.2-51,96.9-72.8,150.1C816.2,419.6,857.4,417.5,900.2,419.7z M532.9,537.7
	c0-7.4,1.2-14.2-0.2-20.4c-4-16.8-9.3-33.2-13.7-49.9c-2.5-9.3-8.2-15.7-15.9-20.8c-34.2-22.7-72.3-25.8-111.7-22.2
	c-2.1,0.2-5.3,2.1-5.6,3.8c-0.4,1.8,1.2,5,3,6.3c5.9,4.4,12.2,8.3,18.3,12.3c18.7,12.3,37.9,23.9,55.9,37
	C486.2,500.6,508.5,518.7,532.9,537.7z M762.9,556.4c44.4-7.6,89.6-15.7,134.9-22.8c9.6-1.5,12.8-5.9,12.6-14.2
	c-0.6-20.1-1.3-40.2-2.3-60.3c-0.1-2.6-1.7-5-3-8.5C854.2,483.5,803.7,514.6,762.9,556.4z M523.8,557.4c-4.9-5.4-8-9.5-11.8-12.9
	c-38.1-34.4-80.6-62.7-124-89.8c-6.9-4.3-9.6-1.5-9.7,5.1c-0.5,21.4-0.5,42.8-0.8,64.2c-0.1,6.1,2.7,7.9,8.6,8.7
	c24.4,3.3,48.8,6.8,73,11.1C479.9,547.6,500.7,552.5,523.8,557.4z M754.5,535c1.1,0.5,2.3,1,3.4,1.5c2.4-2,4.6-4,7.1-5.9
	c22.9-17.9,45.3-36.6,68.9-53.6c20.2-14.5,42-26.8,62.8-40.5c2.5-1.6,4.5-5.3,4.7-8.2c0.1-1.3-4.5-4.2-7.1-4.4
	c-36-2.7-71,0.3-103.2,19c-10.9,6.3-19.2,14.5-22.5,27.3c-3.2,12.4-7.9,24.4-10.7,36.8C755.8,516.1,755.6,525.6,754.5,535z
	 M634.7,295.6c-0.3-5.5-0.4-8.7-0.7-11.9c-0.9-9.5-3-10.8-11.4-6.3c-7.3,3.9-14.9,7.6-21.3,12.7c-14,11.4-27.8,23.2-40.6,36
	c-3,3-3.6,11.1-2,15.6c4.8,12.8,9.9,25.9,17.4,37.1c8.1,11.9,18.5,22.5,29.1,32.3c6.1,5.6,14.4,2.3,18.3-4c2.7-4.3,4.2-13,1.7-16.3
	c-10.9-14.9-9.7-32.3-11.9-48.7c-1.5-11.2,0.7-23.5,11.5-29.7C633.4,307.6,636.4,302.3,634.7,295.6z M730.3,336.2
	c-1.1-2.6-1.7-5.5-3.4-7.6c-18.2-22.7-39.6-41.5-66.9-52.8c-4.2-1.7-6.9-0.8-7.1,4.2c-0.1,3.8,0.2,7.7-0.3,11.5
	c-1.1,9.6,1.2,16.6,10.1,22.6c5.1,3.4,9.6,11.5,9.8,17.6c0.6,19.7,1.6,39.9-10.4,57.5c-4.6,6.7-3.8,13.6,1.8,19.3
	c6,6.1,13.2,6,20.2,1.7c3.8-2.3,7.2-5.4,10.3-8.6c14.8-14.8,23.1-33.5,31.3-52.3C727.6,345.1,728.8,340.8,730.3,336.2z M554.5,127.3
	c-0.9-0.4-1.8-0.8-2.8-1.2c-22.9,29.3-45.9,58.7-69,88.2c41.1,6.1,79.7,11.8,118.1,17.5C580.8,200.3,556.6,168.7,554.5,127.3z
	 M802.5,214.7c-18.4-30.5-41.8-56.6-66.4-85.2c-4,41.9-27.3,72.1-46.4,102.4C727,226.3,763.9,220.6,802.5,214.7z M470.5,551.7
	c0.1-0.8,0.2-1.6,0.3-2.4c-30.4-4.6-60.8-9.2-94.1-14.3c7,20.9,13,38.7,19.4,57.7C422.6,578.1,446.5,564.9,470.5,551.7z
	 M819.4,549.2c-0.1,0.8-0.2,1.5-0.3,2.3c23.3,12.9,46.6,25.7,70.9,39.1c9.5-17.6,14.9-34.7,17.6-55
	C877,540.3,848.2,544.8,819.4,549.2z"/>
</svg>
