<?xml version="1.0" encoding="utf-8"?>
<!-- Generator: Adobe Illustrator 25.2.1, SVG Export Plug-In . SVG Version: 6.00 Build 0)  -->
<svg version="1.1" id="Layer_1" xmlns="http://www.w3.org/2000/svg" xmlns:xlink="http://www.w3.org/1999/xlink" x="0px" y="0px"
	 viewBox="0 0 1366 768" style="enable-background:new 0 0 1366 768;" xml:space="preserve">
<style type="text/css">
	.st0{fill:#FFFFFF;}
</style>
<path class="st0" d="M143.6,311.4c0.3-0.2,0.6-0.4,1-0.6c1,1.4,2.1,2.8,2.9,4.3c7.8,15.1,15.9,30.1,23.4,45.3
	c13,26.6,25.7,53.4,33.5,82.2c2.5,9.3,5.2,18.9,1.6,28.2c11,12.6,21.8,25,33.2,38.1c5.2-8.8,6.4-17.7,7.3-26.7
	c2-18.6-4.5-35.6-10.7-52.4c-7.9-21.7-16.6-43.1-25.5-64.4c-7.7-18.5-15.7-36.9-24.2-55.1c-5.4-11.4-12.2-22.1-18.3-33.2
	c-2.2-3.9-4.4-4.1-6.8-0.3c-1.9,3-3.9,5.9-5.5,9c-9.5,18.6-19.4,37-28.1,56c-6.3,13.9-11,28.5-16.2,42.9c-0.7,2-0.3,4.3-0.5,7.1
	c28.1-1.6,55-0.1,78.5,16.7c0.5-0.4,1.1-0.8,1.6-1.1C174.9,375.6,159.3,343.5,143.6,311.4z M388.4,272.1c-2.2,2.8-3.6,4.1-4.4,5.6
	c-6.6,12.2-13.2,24.4-19.7,36.6c-5.1,9.7-10.8,19.2-14.9,29.3c-3.3,8.2-4,17.4-7.2,25.6c-9.6,24.9-20,49.5-29.7,74.3
	c-7.8,19.7-8.9,39.9-2,60.2c0.5,1.6,1.9,2.9,2.9,4.4c1.2-0.9,2.7-1.6,3.7-2.7c8.9-10.1,17.8-20.2,26.5-30.5c1.4-1.6,3.1-4,2.9-5.8
	c-1.9-13.7,2.2-26.4,6.5-38.9c13.1-38.6,31.5-74.8,50.9-110.5c4.4-8,6.1-14.3,0.1-22.2C398.2,289.9,394,281.4,388.4,272.1z M297,287
	c-0.6-0.4-1.3-0.8-1.9-1.1c0.9-2.1,1.6-4.4,2.8-6.3c4.9-8.2,10.4-16,15-24.4c6.4-11.8,12.3-23.8,17.9-36c5.3-11.5,1.6-21-7.5-29.3
	c-11.2-10.2-21.8-20.9-32.9-31.2c-1.8-1.7-4.5-2.3-6.8-3.5c-0.5,2.3-1.5,4.6-1.5,6.9c0.1,17.6,0.5,35.2,0.5,52.8
	c0,18.2-0.4,36.5-0.4,54.7c0,2.4,1.1,4.8,1.8,7.1c2.7,9.6,11.6,12.7,18.7,17.7c12.4,8.6,25,16.9,37.1,25.9c5.7,4.2,6.2,4.6,9.6-1.6
	c6.7-12.4,13.5-24.7,20.3-37.1c3-5.5,5.9-11.1,9.2-17.3c-2.3-0.3-3.5-0.8-4.6-0.7c-16.5,1.9-33,3.2-49.3,6.2
	C314,271.9,301.2,272.6,297,287z M173.5,263.2c0.4,1.8,0.4,2.6,0.8,3.3c9.7,17.8,19.5,35.6,29.3,53.4c2.3,4.2,4.9,3.5,8.5,0.9
	c14.1-10,28.2-20.1,43.1-29c9.8-5.9,14.8-14.1,15.2-24.7c0.7-19.2,0.3-38.5,0.3-57.7c0-15.7,0.1-31.5,0-47.2c0-2.4-1.4-4.7-2.1-7.1
	c-2.3,1-5.1,1.5-6.9,3.2c-11.2,10.7-21.9,22.1-33.5,32.5c-6.7,6-7.7,12.4-6.2,20.5c2.9,16.1,10.8,29.9,19.3,43.4
	c5.4,8.6,10.8,17.2,16,25.9c1,1.7,1.4,3.7,2,5.5c-8.8-10-8.8-10.2-15.1-12.3C221.5,266.1,197.9,264.8,173.5,263.2z M405.7,539.2
	c11.4-8.5,19.4-18.4,26.4-29.2c2.5-3.8,1.8-5.7-2-7.7c-9.9-5.2-20.3-9.9-29.3-16.4c-11.9-8.6-23.6-8.6-36.7-4.2
	c-8.8,2.9-17.4,5.7-23.7,12.8c-5.4,6-10.2,12.5-15.5,18.6c-3.6,4.2-2.5,7.3,2.4,7.7c8,0.6,16,0.2,24.1,0c12.4-0.2,24.9-1,37.3-0.7
	c9.1,0.2,13.3,4.5,15.6,13.3C404.6,534.9,405,536.5,405.7,539.2z M146.7,538.6c6.8-18.2,7.8-19.1,27.9-18.8
	c10.3,0.2,20.7,1.6,31,1.8c6.9,0.2,13.9-0.5,20.8-1.3c4.8-0.6,4.3-3.5,1.7-6.5c-2.6-3-5.5-5.8-7.5-9.1
	c-9.2-14.8-22.8-22.3-39.6-24.8c-2.2-0.3-4.4-1.3-6.7-1.4c-2.5-0.1-5.4-0.1-7.5,1c-11.9,6.3-23.6,12.9-35.4,19.4
	c-4.3,2.4-8.5,4.8-12.7,7.2C123.8,517.8,138.5,534.9,146.7,538.6z M442.4,391.9c-5.1-25-24.3-72.7-32.1-79.4
	c-17,31.2-33,62.7-47.2,97.2C388,391.9,414.6,390.6,442.4,391.9z M204.5,468.4c0-4.8,0.8-9.2-0.2-13.2c-2.6-10.9-6-21.5-8.9-32.3
	c-1.6-6-5.3-10.2-10.3-13.5c-22.1-14.7-46.8-16.7-72.3-14.4c-1.4,0.1-3.4,1.4-3.7,2.4c-0.3,1.2,0.8,3.2,1.9,4.1
	c3.8,2.9,7.9,5.4,11.9,8c12.1,8,24.5,15.5,36.2,24C174.3,444.4,188.7,456.1,204.5,468.4z M353.4,480.5c28.8-4.9,58-10.2,87.4-14.8
	c6.2-1,8.3-3.8,8.2-9.2c-0.4-13-0.9-26.1-1.5-39.1c-0.1-1.7-1.1-3.3-1.9-5.5C412.6,433.3,379.9,453.4,353.4,480.5z M198.6,481.1
	c-3.2-3.5-5.2-6.2-7.6-8.4c-24.7-22.3-52.2-40.6-80.3-58.1c-4.5-2.8-6.2-1-6.3,3.3c-0.3,13.9-0.3,27.7-0.5,41.6
	c-0.1,3.9,1.7,5.1,5.5,5.7c15.8,2.1,31.6,4.4,47.3,7.2C170.2,474.8,183.6,478,198.6,481.1z M348,466.6c0.7,0.3,1.5,0.7,2.2,1
	c1.5-1.3,3-2.6,4.6-3.8c14.8-11.6,29.3-23.7,44.6-34.7c13.1-9.4,27.2-17.4,40.7-26.2c1.6-1,2.9-3.4,3.1-5.3c0.1-0.9-2.9-2.8-4.6-2.9
	c-23.3-1.8-46,0.2-66.8,12.3c-7,4.1-12.4,9.4-14.6,17.7c-2.1,8-5.1,15.8-7,23.8C348.9,454.4,348.7,460.6,348,466.6z M270.4,311.6
	c-0.2-3.6-0.3-5.6-0.5-7.7c-0.6-6.2-1.9-7-7.4-4.1c-4.7,2.6-9.7,4.9-13.8,8.2c-9.1,7.4-18,15.1-26.3,23.3c-1.9,1.9-2.4,7.2-1.3,10.1
	c3.1,8.3,6.4,16.8,11.3,24c5.2,7.7,12,14.6,18.8,20.9c4,3.7,9.3,1.5,11.9-2.6c1.7-2.8,2.7-8.4,1.1-10.6c-7.1-9.6-6.3-20.9-7.7-31.6
	c-1-7.3,0.4-15.2,7.4-19.2C269.6,319.4,271.5,315.9,270.4,311.6z M332.4,337.9c-0.7-1.7-1.1-3.6-2.2-5
	c-11.8-14.7-25.6-26.9-43.3-34.2c-2.7-1.1-4.5-0.5-4.6,2.7c-0.1,2.5,0.1,5-0.2,7.5c-0.7,6.2,0.7,10.8,6.6,14.6
	c3.3,2.2,6.2,7.4,6.3,11.4c0.4,12.7,1,25.8-6.8,37.2c-3,4.3-2.5,8.8,1.2,12.5c3.9,3.9,8.6,3.9,13.1,1.1c2.4-1.5,4.6-3.5,6.7-5.5
	c9.6-9.6,15-21.7,20.3-33.9C330.6,343.7,331.3,340.9,332.4,337.9z M218.5,202.6c-0.6-0.3-1.2-0.5-1.8-0.8
	c-14.9,19-29.7,38-44.7,57.1c26.6,3.9,51.6,7.6,76.5,11.3C235.5,249.9,219.8,229.4,218.5,202.6z M379.1,259.2
	c-11.9-19.8-27.1-36.7-43-55.2c-2.6,27.1-17.6,46.7-30,66.3C330.2,266.7,354.1,263.1,379.1,259.2z M164.1,477.4
	c0.1-0.5,0.1-1,0.2-1.6c-19.7-3-39.4-6-60.9-9.2c4.6,13.5,8.4,25.1,12.6,37.4C133,494.6,148.5,486,164.1,477.4z M390,475.8
	c-0.1,0.5-0.1,1-0.2,1.5c15.1,8.3,30.2,16.6,45.9,25.3c6.1-11.4,9.7-22.5,11.4-35.6C427.3,470.1,408.7,473,390,475.8z"/>
<g>
	<path class="st0" d="M491,391.7h36.6V412h2.4c1.8-3.6,4.2-6.9,7.2-9.8c3-3,6.3-5.6,10-7.8c3.7-2.2,7.6-4,11.9-5.4
		c4.3-1.4,8.5-2,12.7-2c5.2,0,9.6,0.6,13.3,1.7c3.7,1.1,6.8,2.5,9.4,4.3l-10.4,34.9c-2.4-1.2-5-2.1-7.9-2.8c-2.9-0.7-6.4-1-10.6-1
		c-5.4,0-10.2,1.1-14.6,3.1c-4.4,2.1-8.1,5-11.2,8.8c-3.1,3.8-5.5,8.2-7.2,13.3c-1.7,5.1-2.5,10.6-2.5,16.6v71.9h-39V391.7z"/>
	<path class="st0" d="M672.4,386.9c11.3,0,21.7,1.9,31.1,5.8c9.4,3.9,17.6,9.2,24.4,16.1c6.9,6.9,12.2,15,16.1,24.6
		c3.9,9.5,5.8,20,5.8,31.3s-1.9,21.8-5.8,31.3c-3.9,9.5-9.2,17.7-16.1,24.6c-6.9,6.9-15,12.2-24.4,16.1c-9.4,3.9-19.8,5.8-31.1,5.8
		s-21.7-1.9-31.1-5.8c-9.4-3.9-17.6-9.2-24.4-16.1c-6.9-6.9-12.2-15-16.1-24.6c-3.9-9.5-5.8-20-5.8-31.3s1.9-21.8,5.8-31.3
		c3.9-9.5,9.2-17.7,16.1-24.6c6.9-6.9,15-12.2,24.4-16.1C650.7,388.9,661.1,386.9,672.4,386.9z M672.4,506.4c5,0,9.8-0.9,14.5-2.8
		c4.7-1.9,8.8-4.6,12.4-8.2s6.4-7.9,8.5-13.1c2.1-5.2,3.1-11,3.1-17.6c0-6.6-1-12.4-3.1-17.6c-2.1-5.2-4.9-9.5-8.5-13.1
		c-3.6-3.6-7.7-6.3-12.4-8.2c-4.7-1.9-9.5-2.8-14.5-2.8c-5.2,0-10,0.9-14.6,2.8c-4.6,1.9-8.6,4.6-12.2,8.2
		c-3.6,3.6-6.4,7.9-8.5,13.1c-2.1,5.2-3.1,11-3.1,17.6c0,6.6,1,12.4,3.1,17.6c2.1,5.2,4.9,9.5,8.5,13.1s7.6,6.3,12.2,8.2
		C662.4,505.5,667.3,506.4,672.4,506.4z"/>
	<path class="st0" d="M773.4,537.7V324.4h39v213.3H773.4z"/>
	<path class="st0" d="M917.9,322c5.6,0,10.7,0.5,15.5,1.5c4.8,1,9,2.3,12.8,3.9l-11,34.9c-2-1-4.1-1.8-6.4-2.4
		c-2.3-0.6-5.1-0.9-8.5-0.9c-5.8,0-10.3,1.8-13.7,5.5c-3.4,3.7-5.1,8.8-5.1,15.3v11.9h36.3v33.4h-36.3v112.6h-39V425.1h-26.2v-33.4
		h26.2v-14.3c0-8.9,1.3-16.8,4-23.7c2.7-6.9,6.5-12.6,11.5-17.3c5-4.7,10.8-8.2,17.6-10.7C902.3,323.2,909.8,322,917.9,322z"/>
	<path class="st0" d="M966.8,537.7c-7.2,0-13.3-2.4-18.3-7.3c-5.1-4.9-7.6-10.8-7.6-17.7c0-6.9,2.5-12.7,7.6-17.5s11.2-7.2,18.3-7.2
		c7.2,0,13.2,2.4,18.2,7.2c5,4.8,7.4,10.6,7.4,17.5c0,6.9-2.5,12.8-7.4,17.7C980,535.3,974,537.7,966.8,537.7z"/>
	<path class="st0" d="M1067.2,537.7h-39V425.1H1002v-33.4h26.2v-14.3c0-8.9,1.3-16.8,4-23.7c2.7-6.9,6.5-12.6,11.5-17.3
		c5-4.7,10.8-8.2,17.6-10.7c6.8-2.5,14.2-3.7,22.3-3.7c4,0,7.2,0.2,9.5,0.6c2.4,0.4,4.7,1,6.9,1.8l-2.4,36.6c-1.4-0.6-3-1.1-4.8-1.5
		c-1.8-0.4-4.1-0.6-6.9-0.6c-5.8,0-10.3,1.8-13.7,5.5c-3.4,3.7-5.1,8.8-5.1,15.3v11.9h94.2v146h-39V425.1h-55.1V537.7z
		 M1141.7,370.5c-3.4,0-6.6-0.6-9.7-1.9c-3.1-1.3-5.8-3.1-8-5.4c-2.3-2.3-4.1-4.9-5.4-7.9c-1.3-3-1.9-6.3-1.9-9.8s0.6-6.9,1.9-9.8
		c1.3-3,3.1-5.6,5.4-7.9c2.3-2.3,5-4.1,8-5.4c3.1-1.3,6.3-1.9,9.7-1.9c7,0,12.9,2.4,17.9,7.3c5,4.9,7.4,10.8,7.4,17.7
		c0,7-2.5,12.9-7.4,17.7C1154.6,368.1,1148.7,370.5,1141.7,370.5z"/>
	<path class="st0" d="M1211.7,425.1h-25.6v-33.4h25.6V347h39v44.7h35.8v33.4h-35.8v58.3c0,3.5,0.3,6.7,1,9.7c0.7,3,2,5.5,4,7.5
		c2.8,3.3,6.8,4.9,11.9,4.9c3.4,0,6.1-0.3,8-1c2-0.7,3.9-1.6,5.7-2.8l11,34.3c-4.6,2.2-9.5,3.8-14.7,4.9c-5.3,1.1-11.1,1.6-17.4,1.6
		c-7.4,0-14-1.2-19.8-3.5c-5.9-2.3-10.8-5.5-14.7-9.6c-9.3-9.1-14-22.1-14-38.9V425.1z"/>
</g>
</svg>
