<?xml version="1.0" encoding="utf-8"?>
<!-- Generator: Adobe Illustrator 25.2.1, SVG Export Plug-In . SVG Version: 6.00 Build 0)  -->
<svg version="1.1" id="Layer_1" xmlns="http://www.w3.org/2000/svg" xmlns:xlink="http://www.w3.org/1999/xlink" x="0px" y="0px"
	 viewBox="0 0 1366 768" style="enable-background:new 0 0 1366 768;" xml:space="preserve">
<path d="M182.2,340.8c0.3-0.2,0.5-0.3,0.8-0.5c0.8,1.2,1.7,2.2,2.3,3.5c6.3,12.1,12.8,24.1,18.8,36.4c10.4,21.4,20.7,42.9,26.9,66
	c2,7.5,4.2,15.1,1.3,22.7c8.8,10.1,17.5,20.1,26.6,30.6c4.2-7.1,5.1-14.2,5.9-21.4c1.6-14.9-3.7-28.5-8.6-42
	c-6.4-17.4-13.3-34.6-20.4-51.7c-6.2-14.9-12.6-29.7-19.5-44.2c-4.3-9.1-9.8-17.8-14.7-26.6c-1.7-3.1-3.5-3.3-5.5-0.2
	c-1.5,2.4-3.2,4.7-4.4,7.2c-7.6,14.9-15.6,29.7-22.5,45c-5.1,11.1-8.8,22.9-13,34.4c-0.6,1.6-0.3,3.5-0.4,5.7
	c22.6-1.3,44.1-0.1,63,13.4c0.4-0.3,0.8-0.6,1.3-0.9C207.3,392.2,194.7,366.5,182.2,340.8z M378.7,309.2c-1.8,2.2-2.9,3.3-3.6,4.5
	c-5.3,9.8-10.6,19.6-15.9,29.4c-4.1,7.8-8.7,15.4-12,23.5c-2.7,6.5-3.2,14-5.7,20.6c-7.7,20-16,39.7-23.9,59.6
	c-6.2,15.9-7.1,32-1.6,48.3c0.4,1.3,1.5,2.3,2.3,3.5c1-0.7,2.1-1.3,2.9-2.2c7.1-8.1,14.2-16.2,21.3-24.5c1.1-1.3,2.5-3.2,2.3-4.7
	c-1.5-11,1.8-21.2,5.2-31.2c10.5-31,25.3-60,40.9-88.7c3.5-6.5,4.9-11.5,0.1-17.9C386.5,323.5,383.1,316.6,378.7,309.2z
	 M305.3,321.1c-0.5-0.3-1-0.6-1.5-0.9c0.7-1.7,1.3-3.5,2.2-5.1c4-6.5,8.4-12.8,12-19.6c5.1-9.5,9.9-19.1,14.4-28.9
	c4.3-9.3,1.2-16.9-6-23.5c-9-8.2-17.5-16.8-26.4-25.1c-1.4-1.3-3.6-1.9-5.4-2.8c-0.4,1.9-1.2,3.7-1.2,5.6
	c0.1,14.1,0.4,28.3,0.4,42.4c0,14.6-0.3,29.3-0.3,43.9c0,1.9,0.9,3.8,1.4,5.7c2.2,7.7,9.3,10.2,15,14.2c9.9,6.9,20.1,13.6,29.8,20.8
	c4.6,3.4,5,3.7,7.7-1.3c5.4-9.9,10.9-19.8,16.3-29.8c2.4-4.4,4.8-8.9,7.4-13.9c-1.9-0.3-2.8-0.6-3.7-0.5c-13.2,1.6-26.5,2.6-39.6,5
	C318.9,309,308.7,309.6,305.3,321.1z M206.1,302c0.3,1.4,0.3,2.1,0.6,2.7c7.8,14.3,15.6,28.6,23.5,42.9c1.9,3.4,3.9,2.8,6.9,0.7
	c11.4-8,22.7-16.1,34.6-23.3c7.9-4.7,11.9-11.3,12.2-19.9c0.5-15.4,0.2-30.9,0.3-46.3c0-12.6,0.1-25.3,0-37.9c0-1.9-1.1-3.8-1.7-5.7
	c-1.9,0.8-4.1,1.2-5.5,2.5c-9,8.6-17.6,17.7-26.9,26.1c-5.4,4.8-6.1,10-5,16.5c2.3,12.9,8.6,24,15.5,34.9
	c4.4,6.9,8.6,13.8,12.9,20.8c0.8,1.3,1.1,3,1.6,4.4c-7.1-8-7-8.2-12.2-9.9C244.7,304.4,225.8,303.3,206.1,302z M392.5,523.6
	c9.2-6.8,15.5-14.8,21.2-23.4c2-3.1,1.4-4.6-1.6-6.2c-7.9-4.2-16.3-7.9-23.5-13.2c-9.5-6.9-18.9-6.9-29.5-3.4c-7,2.4-14,4.6-19,10.2
	c-4.3,4.8-8.2,10.1-12.4,15c-2.9,3.4-2,5.9,2,6.2c6.4,0.5,12.9,0.1,19.3,0c10-0.2,20-0.8,29.9-0.6c7.3,0.2,10.7,3.6,12.5,10.7
	C391.7,520.2,392,521.4,392.5,523.6z M184.7,523.1c5.5-14.6,6.3-15.3,22.4-15.1c8.3,0.1,16.6,1.3,24.9,1.4
	c5.6,0.1,11.2-0.4,16.7-1.1c3.9-0.5,3.4-2.8,1.4-5.3c-2-2.4-4.4-4.6-6-7.3c-7.4-11.9-18.3-17.9-31.8-19.9c-1.8-0.3-3.6-1.1-5.4-1.1
	c-2-0.1-4.3-0.1-6,0.8c-9.5,5-19,10.3-28.4,15.6c-3.4,1.9-6.8,3.9-10.2,5.8C166.2,506.4,178.1,520.1,184.7,523.1z M422,405.4
	c-4.1-20-19.5-58.4-25.8-63.7c-13.6,25.1-26.5,50.3-37.9,78C378.3,405.4,399.7,404.3,422,405.4z M231,466.7c0-3.8,0.6-7.4-0.1-10.6
	c-2.1-8.7-4.8-17.3-7.1-25.9c-1.3-4.8-4.3-8.2-8.3-10.8c-17.8-11.8-37.6-13.4-58.1-11.5c-1.1,0.1-2.7,1.1-2.9,2
	c-0.2,1,0.6,2.6,1.5,3.3c3.1,2.3,6.3,4.3,9.5,6.4c9.7,6.4,19.7,12.4,29.1,19.2C206.8,447.5,218.4,456.9,231,466.7z M350.6,476.5
	c23.1-4,46.6-8.2,70.1-11.9c5-0.8,6.7-3,6.6-7.4c-0.3-10.5-0.7-20.9-1.2-31.4c-0.1-1.3-0.9-2.6-1.6-4.4
	C398.1,438.5,371.8,454.8,350.6,476.5z M226.3,477c-2.6-2.8-4.2-4.9-6.1-6.7c-19.8-17.9-41.9-32.6-64.5-46.7c-3.6-2.3-5-0.8-5.1,2.7
	c-0.2,11.1-0.3,22.3-0.4,33.4c-0.1,3.2,1.4,4.1,4.5,4.5c12.7,1.7,25.3,3.5,37.9,5.8C203.5,471.9,214.3,474.4,226.3,477z
	 M346.2,465.3c0.6,0.3,1.2,0.5,1.8,0.8c1.2-1,2.4-2.1,3.7-3.1c11.9-9.3,23.5-19,35.8-27.8c10.5-7.5,21.8-13.9,32.7-21
	c1.3-0.8,2.3-2.8,2.5-4.3c0.1-0.7-2.3-2.2-3.7-2.3c-18.7-1.4-36.9,0.2-53.6,9.9c-5.7,3.3-10,7.6-11.7,14.2
	c-1.7,6.4-4.1,12.7-5.6,19.1C346.9,455.5,346.8,460.5,346.2,465.3z M284,340.9c-0.2-2.9-0.2-4.5-0.4-6.2c-0.5-4.9-1.6-5.6-5.9-3.3
	c-3.8,2-7.8,3.9-11.1,6.6c-7.3,5.9-14.5,12.1-21.1,18.7c-1.6,1.6-1.9,5.8-1,8.1c2.5,6.7,5.1,13.5,9.1,19.3
	c4.2,6.2,9.6,11.7,15.1,16.8c3.2,2.9,7.5,1.2,9.5-2.1c1.4-2.3,2.2-6.7,0.9-8.5c-5.7-7.7-5-16.8-6.2-25.3c-0.8-5.8,0.4-12.2,6-15.4
	C283.3,347.2,284.9,344.4,284,340.9z M333.7,362c-0.6-1.3-0.9-2.9-1.8-4c-9.5-11.8-20.6-21.6-34.8-27.5c-2.2-0.9-3.6-0.4-3.7,2.2
	c-0.1,2,0.1,4-0.1,6c-0.6,5,0.6,8.6,5.3,11.7c2.6,1.8,5,6,5.1,9.1c0.3,10.2,0.8,20.7-5.4,29.9c-2.4,3.5-2,7,0.9,10
	c3.1,3.2,6.9,3.1,10.5,0.9c2-1.2,3.7-2.8,5.4-4.4c7.7-7.7,12-17.4,16.3-27.2C332.3,366.6,332.9,364.4,333.7,362z M242.3,253.4
	c-0.5-0.2-1-0.4-1.4-0.6C228.9,268,217,283.3,205,298.6c21.4,3.2,41.5,6.1,61.4,9.1C256,291.3,243.3,274.9,242.3,253.4z
	 M371.2,298.9c-9.6-15.9-21.7-29.4-34.5-44.3c-2.1,21.8-14.2,37.5-24.1,53.2C331.9,304.8,351.1,301.9,371.2,298.9z M198.6,474
	c0-0.4,0.1-0.8,0.1-1.2c-15.8-2.4-31.6-4.8-48.9-7.4c3.7,10.9,6.8,20.1,10.1,30C173.7,487.8,186.1,480.9,198.6,474z M380,472.7
	c0,0.4-0.1,0.8-0.1,1.2c12.1,6.7,24.2,13.4,36.9,20.3c4.9-9.1,7.8-18,9.1-28.6C409.9,468.1,394.9,470.4,380,472.7z"/>
<g>
	<path d="M481.5,388.4h33.9v18.7h2.2c1.7-3.3,3.9-6.3,6.6-9.1c2.8-2.8,5.8-5.1,9.2-7.2c3.4-2,7.1-3.7,11-5c3.9-1.3,7.8-1.9,11.7-1.9
		c4.8,0,8.9,0.5,12.2,1.5c3.4,1,6.3,2.3,8.7,4l-9.6,32.2c-2.2-1.1-4.6-2-7.3-2.6c-2.7-0.6-5.9-1-9.8-1c-5,0-9.5,1-13.5,2.9
		c-4,1.9-7.5,4.7-10.3,8.2c-2.8,3.5-5,7.6-6.6,12.3c-1.6,4.7-2.3,9.8-2.3,15.4v66.4h-36.1V388.4z"/>
	<path d="M649.1,384c10.5,0,20,1.8,28.8,5.4c8.7,3.6,16.2,8.5,22.6,14.9c6.3,6.3,11.3,13.9,14.9,22.7c3.6,8.8,5.4,18.4,5.4,28.9
		s-1.8,20.1-5.4,28.9c-3.6,8.8-8.5,16.4-14.9,22.7c-6.3,6.3-13.9,11.3-22.6,14.9c-8.7,3.6-18.3,5.4-28.8,5.4
		c-10.5,0-20.1-1.8-28.8-5.4c-8.7-3.6-16.2-8.5-22.6-14.9c-6.3-6.3-11.3-13.9-14.9-22.7s-5.4-18.4-5.4-28.9s1.8-20.1,5.4-28.9
		c3.6-8.8,8.5-16.4,14.9-22.7c6.3-6.3,13.9-11.3,22.6-14.9C629.1,385.8,638.7,384,649.1,384z M649.1,494.4c4.6,0,9-0.9,13.4-2.6
		c4.3-1.7,8.1-4.3,11.4-7.6c3.3-3.3,5.9-7.3,7.8-12.1c1.9-4.8,2.9-10.2,2.9-16.2c0-6.1-1-11.5-2.9-16.2c-1.9-4.8-4.5-8.8-7.8-12.1
		c-3.3-3.3-7.1-5.8-11.4-7.6c-4.3-1.7-8.8-2.6-13.4-2.6c-4.8,0-9.3,0.9-13.5,2.6c-4.2,1.7-8,4.3-11.3,7.6s-5.9,7.3-7.8,12.1
		c-1.9,4.8-2.9,10.2-2.9,16.2c0,6.1,1,11.5,2.9,16.2c1.9,4.8,4.5,8.8,7.8,12.1c3.3,3.3,7.1,5.8,11.3,7.6
		C639.9,493.5,644.4,494.4,649.1,494.4z"/>
	<path d="M742.5,523.3V326.2h36.1v197.1H742.5z"/>
	<path d="M876,324c5.1,0,9.9,0.5,14.3,1.4c4.4,0.9,8.3,2.1,11.8,3.6l-10.2,32.2c-1.8-0.9-3.8-1.7-5.9-2.2c-2.1-0.6-4.7-0.8-7.8-0.8
		c-5.3,0-9.5,1.7-12.7,5.1c-3.1,3.4-4.7,8.1-4.7,14.2v11h33.6v30.8h-33.6v104.1h-36.1V419.3h-24.2v-30.8h24.2v-13.2
		c0-8.3,1.2-15.6,3.7-21.9c2.5-6.3,6-11.7,10.6-16c4.6-4.3,10-7.6,16.2-9.9C861.6,325.2,868.4,324,876,324z"/>
	<path d="M921.1,523.3c-6.6,0-12.2-2.3-16.9-6.8c-4.7-4.5-7-10-7-16.3c0-6.4,2.3-11.8,7-16.2c4.7-4.4,10.3-6.6,16.9-6.6
		c6.6,0,12.2,2.2,16.8,6.6c4.6,4.4,6.9,9.8,6.9,16.2c0,6.4-2.3,11.8-6.9,16.3C933.3,521.1,927.7,523.3,921.1,523.3z"/>
	<path d="M1013.9,523.3h-36.1V419.3h-24.2v-30.8h24.2v-13.2c0-8.3,1.2-15.6,3.7-21.9c2.5-6.3,6-11.7,10.6-16
		c4.6-4.3,10-7.6,16.2-9.9c6.2-2.3,13.1-3.4,20.6-3.4c3.7,0,6.6,0.2,8.8,0.6c2.2,0.4,4.3,0.9,6.3,1.7l-2.2,33.9
		c-1.3-0.6-2.8-1-4.4-1.4c-1.7-0.4-3.8-0.6-6.3-0.6c-5.3,0-9.5,1.7-12.7,5.1c-3.1,3.4-4.7,8.1-4.7,14.2v11h87v134.9h-36.1V419.3
		h-50.9V523.3z M1082.7,368.9c-3.1,0-6.1-0.6-8.9-1.8c-2.8-1.2-5.3-2.8-7.4-5c-2.1-2.1-3.8-4.5-5-7.3c-1.2-2.8-1.8-5.8-1.8-9.1
		s0.6-6.3,1.8-9.1c1.2-2.8,2.8-5.2,5-7.3c2.1-2.1,4.6-3.8,7.4-5c2.8-1.2,5.8-1.8,8.9-1.8c6.4,0,11.9,2.2,16.5,6.7
		c4.6,4.5,6.9,10,6.9,16.4c0,6.4-2.3,11.9-6.9,16.4C1094.6,366.6,1089.1,368.9,1082.7,368.9z"/>
	<path d="M1147.4,419.3h-23.7v-30.8h23.7v-41.3h36.1v41.3h33v30.8h-33v53.9c0,3.2,0.3,6.2,1,8.9c0.6,2.7,1.9,5.1,3.7,7
		c2.6,3,6.2,4.5,11,4.5c3.1,0,5.6-0.3,7.4-1c1.8-0.6,3.6-1.5,5.2-2.6l10.2,31.7c-4.2,2-8.8,3.5-13.6,4.5c-4.9,1-10.2,1.5-16.1,1.5
		c-6.8,0-12.9-1.1-18.3-3.2c-5.4-2.2-10-5.1-13.6-8.9c-8.6-8.4-12.9-20.4-12.9-36V419.3z"/>
</g>
</svg>
