<?xml version="1.0" encoding="utf-8"?>
<!-- Generator: Adobe Illustrator 25.2.1, SVG Export Plug-In . SVG Version: 6.00 Build 0)  -->
<svg version="1.1" id="Layer_1" xmlns="http://www.w3.org/2000/svg" xmlns:xlink="http://www.w3.org/1999/xlink" x="0px" y="0px"
	 viewBox="0 0 1366 768" style="enable-background:new 0 0 1366 768;" xml:space="preserve">
<g>
	<path d="M841.5,480.8c-0.4-2.3-0.3-3.8-0.8-4.9c-4.4-9.3-9.3-18.3-13.1-27.9c-2.7-6.7-3.6-14.1-5.7-21c-3.1-10.3-3.7-20.8-3.7-31.4
		c0-13.3-0.9-26.8,1.2-39.8c4.3-26.6,3.7-53.2,3.4-79.9c-0.1-7.3-1.3-14.6-2-21.9c-0.5-4.8,3.9-10.6,8.8-11.5c3.6-0.7,9.1,4,9.6,8.5
		c0.8,7.1,1.6,14.3,1.9,21.5c0.5,12.7,1.3,25.4,0.8,38c-0.6,15.6-1.8,31.2-3.8,46.6c-2,15.4-2.8,30.8-1.4,46.1
		c1.7,18.3,6,36.2,14,53c6.7,14.2,15,27.1,25.6,38.9c5.8,6.5,13.5,9.4,20,14.4c10.9,8.3,21.6,16.9,28.2,29.1
		c3.5,6.4,5.1,13.9,6.7,21.1c1.6,7.1,2.2,14.4,3.1,21.7c0.6,5.2,1,10.5,1.5,15.8c1,10.6,2.3,21.3,3.1,31.9c0.5,6.3-2.5,10-8.4,12.4
		c-5.1,2.1-10,4.7-15.2,6.5c-5.7,2-11.6,3.4-17.4,5.1c-6.6,1.9-13.1,4.2-19.8,5.9c-9.1,2.4-18.3,4.5-27.6,6.5
		c-10,2.2-20.1,4.2-30.2,6c-6.4,1.1-12.8,1.8-19.3,2.6c-11,1.4-22.1,2.3-33.1,4c-19.3,3-38.7,3-58.2,3.8c-7.2,0.3-14.4,0.6-21.6,0.9
		c-5.2,0.2-10.3,0.9-15.5,0.8c-11.8-0.4-23.6-1.1-35.4-1.7c-0.4,0-0.8,0-1.2,0c-12.4-0.4-24.8-0.5-37.2-1.3
		c-10-0.6-19.9-2.2-29.8-3.3c-5.1-0.5-10.3-0.6-15.4-1.3c-12.8-1.9-25.6-4-38.4-6.1c-5.2-0.8-10.5-1.3-15.6-2.5
		c-13.5-3.2-27-6.6-40.4-10.1c-9.8-2.6-19.6-5.2-29.2-8.5c-7.1-2.4-14-5.6-20.8-8.9c-3.5-1.7-5.3-5-5.5-8.9
		c-0.4-13.3,0.7-26.6,2.7-39.8c1.8-11.5,2.8-23.1,5.1-34.5c2.1-10.3,6.5-19.8,13.8-27.7c9.4-10.2,19.8-19,31.9-25.8
		c6.2-3.5,9.6-9.7,12.9-15.4c5.8-9.9,11.2-20.1,15.7-30.6c3-7.1,3.6-15.2,6.3-22.5c3.5-9.6,2.6-19.6,3.2-29.4
		c0.5-7.3-0.9-14.9-2.3-22.1c-2.6-13.5-6.5-26.8-8.7-40.3c-1.9-11.5-1.6-23.3-3.1-34.9c-2-16,1.9-31.7,2.2-47.5
		c0.1-6.5,2.4-13,3.9-19.4c1-4.3,5.7-8.3,9.1-8.2c3.7,0.1,9.2,4.7,9.4,9c0.2,3.2-1.3,6.5-1.7,9.8c-1.3,9.5-2.8,19-3.5,28.6
		c-0.7,9.1-0.8,18.2-0.9,27.4c-0.2,11.3,1.8,22.4,3.4,33.5c1.7,11.8,4.8,23.2,7.9,34.7c1.5,5.6,1.4,11.5,2.1,17.3
		c0.3,2.6,0.8,5.1,0.8,7.7c0.4,16.2-1,32.3-6.1,47.8c-3.2,9.6-7.4,18.8-11,28.2c-0.6,1.6-0.9,3.3-1.3,4.9c0.3,0.4,0.6,0.7,0.9,1.1
		c3.1-1.2,6.3-2.4,9.4-3.7c5.8-2.3,11.5-4.6,17.3-6.8c10-3.7,19.9-7.4,30-10.7c10.7-3.4,21.6-5.9,32.2-9.5c8-2.7,10.5-1.5,10-11.8
		c-0.2-4.8-0.4-9.5-1-14.2c-0.2-1.7-1.1-3.8-2.4-5c-11.5-11-20.4-24-27.9-38c-3.7-6.9-6.2-14.3-9.1-21.6c-1.7-4.4-3.3-8.9-4.5-13.4
		c-2.1-7.7-4.2-15.4-5.8-23.2c-1.4-6.6-2.3-13.4-2.9-20.1c-0.7-6.9-1-13.8-1-20.8c0-2.5,1.6-5,2.4-7.4c0.6-1.6,1.2-3.1,1.6-4
		c-5-2.6-9.8-4.4-13.6-7.4c-3.2-2.6-5.7-6.4-7.8-10.1c-4.2-7-7.6-14.5-12.1-21.3c-3.4-5.2-9.6-6.7-15.1-8.2
		c-9.9-2.7-18.4-7.8-26.2-14.2c-11.2-9.3-22.1-18.9-33.2-28.2c-4.7-3.9-9.7-7.4-14.6-11.1c-3.4-2.5-4.2-9-1.6-12.6
		c2.9-4,9-5.1,12.7-2.1c9.8,8,19.5,16.1,29.2,24.1c8.6,7.1,17,14.4,25.9,21c3.6,2.7,8.2,3.9,12.4,5.7c5.3,2.3,10.7,4.4,15.9,7
		c6.7,3.4,11.7,8.8,15,15.6c2.9,5.8,5.7,11.6,8.2,17.5c1.5,3.4,4.2,4.1,6.9,3c1.3-0.5,2.6-3.6,2.3-5.2c-1.3-6.7-2.9-13.4-5.1-19.8
		c-3.2-9.1-8.7-17-16.2-23c-5.1-4.1-10.8-7.6-16.6-10.9c-4.2-2.4-6.6-7.1-4.9-11.6c1.8-4.6,6.3-7.2,10.8-5.1
		c6.1,2.8,12.1,6.1,17.5,10.1c9.8,7.1,17.5,16.3,23.2,27c2.5,4.6,4,9.7,6.2,14.5c0.7,1.6,2.3,2.8,3.5,4.2c1.2-1.6,3.4-3.2,3.4-4.8
		c0.1-6.1,0.4-12.4-1.1-18.3c-2-8-5.6-15.7-12.6-21c-6.8-5.1-13.9-9.9-20.8-15c-4.9-3.7-9.9-7.4-14.3-11.7c-3.6-3.4-0.4-7.1,1.7-9.7
		c1.9-2.5,5.4-4.2,8.7-2.2c6.7,3.9,13.2,7.9,19.6,12.3c5.7,3.9,11.4,7.9,16.6,12.5c3.9,3.5,7.2,7.6,10.3,11.9
		c2.4,3.4,3.8,7.4,5.9,11c0.6,1,2.1,2.1,3.1,2c0.9-0.1,2.1-1.6,2.4-2.7c2.3-9.4,0.2-17.9-5.3-25.8c-7-10-17.5-15.2-27.6-21.2
		c-3.9-2.3-8.4-4.1-11.8-7c-2.1-1.8-3.7-5.5-3.6-8.3c0.1-4.2,4.1-6.2,7.7-7.5c1.2-0.4,2.9,0.3,4.2,0.8c8.8,3,17.5,6.3,26.4,9.2
		c2.2,0.7,4.8,0.4,8.7,0.6c-1-2.5-1.3-4.6-2.4-6.1c-5.9-7.7-14.7-11-23.3-14.2c-5.9-2.2-12-3.9-18-5.7c-2.2-0.7-4.5-1.1-6.7-1.4
		c-8.8-1.3-17.6-2.9-26.5-3.5c-14.3-1-28.7-1.6-42.6-5.8c-3.7-1.1-7.4-2.7-10.9-4.4c-4.1-2-5.9-6.8-4.4-10.5c2-4.8,6.7-7.5,11.2-5.8
		c13.6,5.2,27.9,6.2,42.2,7.5c12.3,1.2,24.7,1.9,37,5c12.9,3.3,25.6,6.8,37.3,12.8c11.1,5.6,21,13.5,25.2,26
		c2.9,8.4,1.9,18.2-7.2,23c-3.5,1.9-1.8,4.8,0,6.9c7.6,9.1,10.2,19.9,10.5,31.3c0.3,9.8-7.8,21.6-16.9,25c-2.5,0.9-3,2.2-3.1,4.4
		c-0.7,13.4-5.6,24.3-18.9,29.6c-4.4,1.7-5.5,5.8-7.7,9.1c-2.8,4.3-7.9,8.6-13.7,9.7c1.3,1.4,2.1,2.8,3.1,3.1
		c6.5,1.4,12.9,2.8,19.5,3.6c7.7,1,15.4,1.7,23.1,2c6.1,0.2,12.3-0.1,18.3-0.9c10-1.4,20.1-2.9,29.8-5.5c8.4-2.2,16.7-5.6,24.6-9.3
		c17.8-8.3,33.7-19.6,48.4-32.6c3.1-2.8,6.4-6.7,11.5-5.4c1.8,0.4,3.9,1.6,4.8,3.1c4.7,7.5,9,15.2,13.4,22.8
		c7.1,12.2,15.4,23.4,26.4,32.4c3.6,3,8.5,4.8,13.1,6c7.5,1.9,11.2,7.8,9.2,16.7c-2.9,13-5.1,26.3-8.9,39
		c-4,13.5-8.4,26.9-14.3,39.8c-6.9,14.9-15.9,28-27.4,39.5c-1.2,1.2-2,3.3-2,5c0.1,5.4,0.2,10.9,1.1,16.3c0.3,1.8,2.7,4.2,4.6,4.7
		c9.3,2.9,18.8,5,28.1,7.8c11.4,3.4,22.8,6.8,34,10.7c8.5,3,16.7,6.9,25.1,10.3C837.7,479.8,839.1,480.1,841.5,480.8z M673.8,665.1
		c0-0.7,0-1.3,0.1-2c14.8,0,29.6,0.7,44.3-0.2c22.8-1.4,45.5-3.5,68.2-6.2c20.6-2.5,41.2-5.4,61.4-9.6c17.7-3.7,35-9.4,52.5-14.3
		c4.4-1.3,8.6-3.5,13.1-4.3c4.6-0.8,5.8-3.1,5.4-7.3c-1.5-15-2.7-30-4.4-44.9c-1-8.4-2.8-16.7-4.3-25c-0.2-1.2-1-2.2-1.6-3.3
		c-6.4-11.7-16.8-19.3-27.6-26.3c-7.6-4.9-15.8-9-24-13.1c-7.4-3.8-14.9-7.3-22.6-10.5c-8.3-3.4-16.8-6.5-25.3-9.4
		c-11.7-4-23.6-7.7-35.4-11.4c-6.4-2-12.8-3.7-19.1-6c-5.3-1.9-6.3-1.4-5.9,4.3c1.4,22.9-6.6,41.6-25.5,54.9
		c-10.4,7.3-22.3,10.6-34.8,11.9c-21.4,2.3-42.3,1.2-62.1-8.1c-9.4-4.5-17.2-11.4-23-19.9c-8.3-12.3-12.3-26.1-11.6-41
		c0.1-2.6-1.3-3.8-4-2.9c-4.7,1.6-9.5,3.3-14.2,4.9c-10.2,3.4-20.5,6.6-30.7,10.2c-11.9,4.3-23.8,8.5-35.5,13.5
		c-10.4,4.4-20.7,9.3-30.4,14.9c-10.6,6.2-20.8,13.1-30.4,20.6c-7.5,5.8-13.1,13.5-14.9,23.3c-1.6,8.4-3.9,16.8-4.8,25.3
		c-1.4,13.3-2.1,26.7-2.8,40c-0.1,1.4,1.5,3.5,2.9,4.3c3.2,1.7,6.8,2.9,10.3,4c12.8,3.8,25.5,8.1,38.5,11
		c20.9,4.7,41.9,9.1,63.1,12.5c16.8,2.7,33.9,4.1,50.9,5.3C617.6,662.1,645.7,663.5,673.8,665.1z M671.9,436c6.3-1,12.6-2,19-2.9
		c15.5-2,28.3-9.6,39.6-19.9c15.5-14.1,25.3-31.8,31.4-51.5c5.2-16.8,9.2-34,13.7-50.9c0.7-2.7-0.3-4-2.6-5.6
		c-6.2-4.2-12.6-8.4-17.9-13.6c-11.7-11.4-20.9-24.8-28.5-39.3c-1.3-2.5-2.9-3.2-5.2-1.2c-13.3,11.2-27.4,21.3-43.4,28.3
		c-11.7,5.1-23.6,10.2-35.9,13.6c-16.9,4.5-34.4,6.2-52,4.8c-8-0.6-16-1.5-23.9-2.8c-5.2-0.9-6.7-0.1-5.7,5.3
		c2.4,13.1,4.7,26.3,7.5,39.4c1.3,6.1,3.2,12.1,5.5,18c4.8,12.2,10.7,23.8,18.2,34.7c10.6,15.5,24.3,27.3,41.2,35.3
		C645.1,433.2,658.3,435.4,671.9,436z M668.3,524.8c9-0.8,15.2-1,21.2-2.1c8.6-1.6,17-3.7,24.3-9.1c9.1-6.8,13.8-16.1,15.1-27.1
		c0.6-5.5,0.8-11.2,0.3-16.7c-0.7-7.9-2.3-15.7-3.2-23.5c-0.5-4.5-1.8-5.3-5.7-2.9c-8.6,5.3-18.2,8.4-28,9.7
		c-22.3,3-44.5,2.3-65.5-7.4c-2.8-1.3-5.6-2.8-8.5-4.1c-2.6-1.2-4-0.6-4.3,2.6c-0.4,5.2-1.3,10.3-1.7,15.5
		c-0.9,12.1-1.9,24,2.8,35.9c4.9,12.5,14.1,19.9,25.9,23.8C650.5,522.5,660.9,523.4,668.3,524.8z"/>
	<path d="M848.1,103.8c-10.6-0.7-20.5-2.1-30.3-1.9c-9.3,0.2-18.5,2.6-27.8,3c-8.7,0.4-16.8,2.9-24.9,5.3
		c-6.3,1.9-11.8,5.3-16.5,9.9c-0.9,0.9-1.3,2.8-0.9,4c0.2,0.7,2.3,1.5,3.4,1.3c5.6-0.7,11.3-1.5,16.8-2.7c5.5-1.2,10.8-3.5,16.4-4.4
		c3.8-0.6,6.9,1.9,9,5.2c2,3.1,2.2,5.6-0.3,8.8c-4.3,5.5-11.1,5.8-16.7,8.6c-9.6,4.9-20.3,8-27.7,16.5c-6.3,7.2-10.2,15.4-8.9,25.3
		c0.1,1.1,1.1,2.8,2,3c0.9,0.2,2.8-0.6,3.3-1.5c5.8-11.9,15.7-19.7,26.9-25.9c9.3-5.2,19-9.8,28.6-14.5c3.9-1.9,8.5-0.2,10.7,3.7
		c2.4,4.3,1.7,9.1-2.3,11.5c-5.8,3.5-11.9,6.4-17.8,9.7c-7.4,4.2-15.1,8-21.9,13c-3.7,2.7-6.1,7.5-8.6,11.7
		c-4.2,7-6.2,14.7-5.5,22.9c0.1,0.9,0,2,0.4,2.8c0.6,1.2,1.7,3.1,2.4,3c1.3-0.2,2.8-1.3,3.5-2.5c2.9-4.9,5.6-9.9,8.3-14.8
		c4.2-7.7,10.5-13.5,17.3-18.9c7.5-6,15.7-11,25-13.8c5.9-1.8,11.1,0.3,12.7,5.4c1.3,3.9-0.5,9.2-7.3,11.9
		c-14.6,5.7-27.2,14-34.9,28.4c-3.8,7-8.4,13.7-7.5,22.2c0.2,1.5,1.2,4.2,1.7,4.2c2.1-0.1,4.8-0.4,6.1-1.8c2.6-2.9,4.6-6.4,6.6-9.8
		c3.9-6.9,8-13.7,14.9-18c3.7-2.3,7.8-4.3,12-5.7c9.2-3.1,19-4.7,27.6-9c9.3-4.6,17.3-11.6,26.1-17.3c10.9-7.1,22-14,33-20.8
		c3.8-2.4,6.2,1.1,8.5,3c2.6,2.2,4.4,5.7,2,9.1c-1.8,2.6-4.3,5-6.9,6.7c-11.7,7.8-23.5,15.4-35.3,23c-8.3,5.3-16.5,11.1-25.3,15.4
		c-6.6,3.2-14.1,4.4-21.3,6.2c-7.1,1.8-12.9,5-16.7,11.5c-3.3,5.7-7.4,11-11,16.6c-3.4,5.3-8.4,8.6-14.3,10.2
		c-7,1.8-12.9-1.4-18.3-5.4c-4.5-3.3-6.8-8.4-8.4-13.7c-0.3-1-1.1-2.1-2-2.8c-3.6-2.9-8-5.2-10.8-8.7c-4.6-6-8.2-12.9-7.3-21
		c0.5-4.2-1-7-4.2-9.4c-6.9-5.2-9.4-12.5-10.2-20.8c-1.3-13.7,4.1-25,12.7-35c2.5-2.9,1.7-4.8-0.7-6.8c-7.1-6.1-7.8-14.2-5.1-20.4
		c4.3-9.6,11.2-17,20.7-22.2c10.3-5.5,21.4-8.2,32.6-10.3c8.1-1.4,16.4-2.4,24.6-2.8c11-0.4,22,0,33,0c7.6,0,15.2,0.2,22.8-0.2
		c3.7-0.2,7.3-1.7,11-2.4c4.4-0.8,8.7-1.7,12.3,2.6c3.3,4,3.1,10-1.5,12.6c-3.5,2-7.3,3.7-11.2,4.3
		C864.3,102.6,855.9,103,848.1,103.8z"/>
	<path d="M666.4,81.6c13.1-2,25.8,1,38.3,3.8c6.5,1.5,12.7,4.6,18.8,7.5c4,1.9,5.4,7.7,3.3,11.2c-2.8,4.8-8.4,5.8-13,4
		c-7.2-2.8-14.8-5.3-22.4-6.5c-9.3-1.5-18.9-2.2-28.4-2c-12.3,0.3-24.6,1.4-36.4,5.2c-6.7,2.1-13.4,4.2-20,6.6
		c-4.8,1.7-7-1.6-9.7-4.2c-2.7-2.6-2.6-5.9-0.6-8.6c1.7-2.3,4.2-4.7,6.8-5.6c9.9-3.2,19.8-6.5,29.9-8.5c11-2.2,22.2-3.1,33.3-4.5
		C666.3,80.6,666.3,81.1,666.4,81.6z"/>
	<path d="M644.5,189.8c-0.2,14.3-3.8,27.5-14.9,37.3c-3.9,3.5-9.1,5.7-13.9,8.1c-1,0.5-3.3-0.2-4.3-1.2c-2.3-2.2-5.7-4.8-5.7-7.3
		c0-2.8,2.6-6.8,5.2-8.1c10-4.8,12.8-13.4,14.7-23.3c1.7-9.2-0.5-16.7-6.2-23.8c-3.6-4.5-2.8-8.9,1.7-12.7c3.8-3.1,8.1-2.8,11.9,1.3
		C640.6,168.6,644.6,178.4,644.5,189.8z"/>
	<path d="M703.9,123.6c6.6,0.1,9.3,3.4,11.1,7c0.8,1.5-0.6,4.6-1.7,6.5c-6,9.8-11.7,19.8-10.1,31.9c0.4,3.1,1.5,6.3,3.2,8.9
		c2.8,4.6,3,9.1-0.4,12.6c-4.2,4.3-8.1,4.5-12.3,0.1c-9.4-10-11.8-21.8-8.6-34.9c2.4-9.6,6.4-18.5,12.3-26.3
		C699.3,126.7,702.4,124.9,703.9,123.6z"/>
	<path d="M672.8,405.6c-14.2,0.3-25.8-3.2-35.6-11.8c-5.4-4.7-6-9.4-2.1-14.3c3-3.7,8.3-4.8,12-1.7c11.4,9.3,24.2,10,37.5,6.3
		c3.7-1,6.9-3.7,10.2-5.9c4.1-2.8,8.6-2.8,11.9,0.4c4.1,3.9,5.1,8.3,1.3,12.2c-4,4.1-8.9,7.7-14,10.3
		C687.2,404.5,679.5,406.3,672.8,405.6z"/>
	<path d="M716.5,329.4c-8-0.7-16-1.9-22.6-7.6c-3.6-3.1-4.4-8.3-1.9-11.7c3.5-4.7,7.7-5.8,12.4-3.7c8.4,3.8,16.8,4,25.2-0.1
		c4.5-2.2,7.8-1.4,11.3,3c3.5,4.5,3.7,7.4,0.1,11.3C734.5,327.6,725.7,328.8,716.5,329.4z"/>
	<path d="M621.9,329.4c-9.1-0.4-17.3-2.1-24-7.9c-3.6-3.1-4.1-7.8-1.4-11.4c3.8-5,7.5-5.9,12.2-3.6c8.1,3.8,16.4,3.8,24.5,0.2
		c5.5-2.5,9.7-1.4,13.2,4c2.5,3.9,1.8,8-2.5,11.5C637.5,327.4,629.7,329.1,621.9,329.4z"/>
</g>
</svg>
